<svg xmlns="http://www.w3.org/2000/svg" viewBox="0 0 63.5 49.41"><defs><style>.cls-1{fill:#3c9564;}.cls-2{fill:#57b782;}</style></defs><title>Firewall</title><g id="Lag_2" data-name="Lag 2"><g id="Icons"><path class="cls-1" d="M25.43,49.34l-.73-1.86C33.05,44.17,34.76,40.12,34.76,35a9.93,9.93,0,0,0-4.89-8.75A9.65,9.65,0,0,1,29,33.45,5.9,5.9,0,0,1,23.73,36a5.71,5.71,0,0,1-5.16-2.74c-1.57-2.64-1.24-6.64.84-10.44a15.9,15.9,0,0,0,1-13.06,12.93,12.93,0,0,0-4.69-6.34c1.14,8.64-3.54,13.65-7.36,17.74a24.52,24.52,0,0,0-4.44,5.71A18.4,18.4,0,0,0,2,35c0,5.2,3.44,10.09,8.77,12.46L10,49.33C3.91,46.63,0,41,0,35a20.64,20.64,0,0,1,2.1-9,25.9,25.9,0,0,1,4.79-6.21c4.18-4.48,8.51-9.11,6.5-18L13,0l1.75.69a13.83,13.83,0,0,1,7.55,8.43,17.89,17.89,0,0,1-1.12,14.71c-1.72,3.13-2.06,6.44-.87,8.45A3.69,3.69,0,0,0,23.73,34a4,4,0,0,0,3.61-1.68c1.28-2,.93-5.39-.06-7.61l-1-2.23,2.28.9A12.25,12.25,0,0,1,36.76,35C36.76,39.89,35.42,45.39,25.43,49.34Z"/><polygon class="cls-2" points="63.5 49.41 34.42 49.41 34.42 47.41 61.5 47.41 61.5 13.31 26.4 13.31 26.4 11.31 63.5 11.31 63.5 49.41"/><rect class="cls-2" x="35.76" y="23.35" width="26.74" height="2"/><rect class="cls-2" x="39.77" y="35.38" width="22.73" height="2"/><rect class="cls-2" x="44.12" y="12.32" width="2" height="12.03"/><rect class="cls-2" x="52.14" y="24.35" width="2" height="12.03"/><rect class="cls-2" x="44.12" y="36.38" width="2" height="12.03"/></g></g></svg>