<svg xmlns="http://www.w3.org/2000/svg" viewBox="0 0 49.83 58.42"><defs><style>.cls-1{fill:#3c9564;}.cls-2{fill:#57b782;}</style></defs><title>File secure</title><g id="Lag_2" data-name="Lag 2"><g id="Icons"><path class="cls-1" d="M47.83,49.83H30.21a2,2,0,0,1-2-2V33.89a2,2,0,0,1,2-2H47.83a2,2,0,0,1,2,2V47.83A2,2,0,0,1,47.83,49.83ZM30.21,33.89V47.83H47.83V33.89Z"/><path class="cls-1" d="M46.15,33.89H31.89V26.76a7.13,7.13,0,1,1,14.26,0Zm-12.26-2H44.15V26.76a5.13,5.13,0,1,0-10.26,0Z"/><polygon class="cls-2" points="41.25 58.42 0 58.42 0 6.72 6.72 0 41.25 0 41.25 18.17 39.25 18.17 39.25 2 7.55 2 2 7.54 2 56.42 39.25 56.42 39.25 51.28 41.25 51.28 41.25 58.42"/><polygon class="cls-2" points="10.59 10.59 3.45 10.59 3.45 8.59 8.59 8.59 8.59 3.45 10.59 3.45 10.59 10.59"/></g></g></svg>