<svg xmlns="http://www.w3.org/2000/svg" viewBox="0 0 56.99 51.89"><defs><style>.cls-1{fill:#57b782;}.cls-2{fill:#3c9564;}</style></defs><title>Administration</title><g id="Lag_2" data-name="Lag 2"><g id="Icons"><path class="cls-1" d="M15.08,51.89A1.09,1.09,0,0,1,14,50.79v-2.6a5.87,5.87,0,0,0-3.7-5.47,1.11,1.11,0,0,1-.68-.94,1.09,1.09,0,0,1,.55-1,4.15,4.15,0,1,0-4.14,0,1.1,1.1,0,0,1-.13,2,5.87,5.87,0,0,0-3.7,5.47v2.6a1.1,1.1,0,1,1-2.19,0v-2.6a8,8,0,0,1,3.5-6.66,6.34,6.34,0,1,1,9.18,0,8,8,0,0,1,3.5,6.66v2.6A1.1,1.1,0,0,1,15.08,51.89Z"/><path class="cls-1" d="M35.49,51.89a1.1,1.1,0,0,1-1.1-1.1v-2.6a5.88,5.88,0,0,0-3.69-5.47,1.1,1.1,0,0,1-.14-2,4.15,4.15,0,1,0-4.13,0,1.1,1.1,0,0,1,.54,1,1.08,1.08,0,0,1-.68.94,5.88,5.88,0,0,0-3.69,5.47v2.6a1.1,1.1,0,1,1-2.19,0v-2.6a8.05,8.05,0,0,1,3.49-6.66,6.35,6.35,0,1,1,9.19,0,8,8,0,0,1,3.5,6.66v2.6A1.1,1.1,0,0,1,35.49,51.89Z"/><path class="cls-1" d="M55.9,51.89a1.1,1.1,0,0,1-1.1-1.1v-2.6a5.88,5.88,0,0,0-3.69-5.47,1.1,1.1,0,0,1-.14-2,4.15,4.15,0,1,0-4.14,0,1.1,1.1,0,0,1-.13,2A5.87,5.87,0,0,0,43,48.19v2.6a1.1,1.1,0,1,1-2.19,0v-2.6a8,8,0,0,1,3.5-6.66,6.34,6.34,0,1,1,9.18,0A8,8,0,0,1,57,48.19v2.6A1.09,1.09,0,0,1,55.9,51.89Z"/><path class="cls-1" d="M48.9,28.09A1.09,1.09,0,0,1,47.81,27V21.14a2.21,2.21,0,0,0-2.2-2.2H11.38a2.2,2.2,0,0,0-2.19,2.2V27A1.1,1.1,0,0,1,7,27V21.14a4.4,4.4,0,0,1,4.39-4.39H45.61A4.4,4.4,0,0,1,50,21.14V27A1.1,1.1,0,0,1,48.9,28.09Z"/><path class="cls-1" d="M28.5,28.09A1.1,1.1,0,0,1,27.4,27V9.7a1.1,1.1,0,0,1,2.19,0V27A1.09,1.09,0,0,1,28.5,28.09Z"/><path class="cls-2" d="M35.17,10.8H21.82a3.29,3.29,0,0,1-3.29-3.29V3.29A3.29,3.29,0,0,1,21.82,0H35.17a3.29,3.29,0,0,1,3.29,3.29V7.51A3.29,3.29,0,0,1,35.17,10.8ZM21.82,2.19a1.1,1.1,0,0,0-1.1,1.1V7.51a1.1,1.1,0,0,0,1.1,1.1H35.17a1.1,1.1,0,0,0,1.1-1.1V3.29a1.1,1.1,0,0,0-1.1-1.1Z"/></g></g></svg>