<svg xmlns="http://www.w3.org/2000/svg" viewBox="0 0 82.81 73.55"><defs><style>.cls-1{fill:#3c9564;}.cls-2{fill:#57b782;}</style></defs><title>ApplyToStore</title><g id="Lag_2" data-name="Lag 2"><g id="Icons"><rect class="cls-1" x="60.07" y="10.48" width="21.28" height="2" transform="translate(13.77 54.95) rotate(-46.58)"/><path class="cls-1" d="M70.74,24.14A12.07,12.07,0,1,1,82.81,12.07,12.08,12.08,0,0,1,70.74,24.14ZM70.74,2A10.07,10.07,0,1,0,80.81,12.07,10.08,10.08,0,0,0,70.74,2Z"/><path class="cls-2" d="M70.86,71.55H66.23V42.13a1,1,0,0,0-2,0V71.55H30.17V42.13a1,1,0,0,0-2,0V71.55H7.63V42.13a1,1,0,0,0-2,0V71.55H1a1,1,0,0,0,0,2H70.86a1,1,0,0,0,0-2Z"/><path class="cls-2" d="M22.41,47.89a1,1,0,1,0,0,2h2.25a1,1,0,0,0,0-2Z"/><path class="cls-2" d="M59.17,51.56a1,1,0,0,0-1.41,0L44.24,65.08a1,1,0,0,0,1.41,1.42L59.17,53A1,1,0,0,0,59.17,51.56Z"/><path class="cls-2" d="M57.76,58.31,51,65.07a1,1,0,0,0,1.41,1.42l6.76-6.76a1,1,0,0,0,0-1.42A1,1,0,0,0,57.76,58.31Z"/><path class="cls-2" d="M70.71,26.24a.48.48,0,0,0,0-.12l-.19-.77H57.08L54,3.69h6.63l2-2H7.76a1,1,0,0,0-1,.77L1.15,26.12a.48.48,0,0,0,0,.12s0,.07,0,.11v4.51a7.76,7.76,0,0,0,14.52,3.81,7.76,7.76,0,0,0,13.52,0,7.77,7.77,0,0,0,13.53,0,7.76,7.76,0,0,0,13.52,0,7.76,7.76,0,0,0,14.52-3.81h0V26.35A.43.43,0,0,0,70.71,26.24ZM52,3.69l3.1,21.66H43.65l-1-21.66Zm-20.71,0h9.36l1,21.66H30.22Zm-2,0-1,21.66H16.8L19.9,3.69Zm-20.7,0h9.33l-3.1,21.66H3.39ZM63,36.62a5.77,5.77,0,0,1-5.76-5.56v-.2a1,1,0,0,0-2,0,1.34,1.34,0,0,0,0,.2,5.76,5.76,0,0,1-11.52,0v-.21a1,1,0,0,0-2,0v.21a5.76,5.76,0,0,1-11.52,0,1.48,1.48,0,0,0,0-.21,1,1,0,0,0-2,0v.21a5.76,5.76,0,0,1-11.52,0c0-.07,0-.14,0-.21a1,1,0,0,0-2,0v.21a5.76,5.76,0,0,1-11.52-.21V27.35H68.74v3.51A5.76,5.76,0,0,1,63,36.62Z"/></g></g></svg>