<svg xmlns="http://www.w3.org/2000/svg" viewBox="0 0 34.33 38.76"><defs><style>.cls-1{fill:#3c9564;}.cls-2{fill:#57b782;}</style></defs><title>Settings</title><g id="Lag_2" data-name="Lag 2"><g id="Icons"><path class="cls-1" d="M5.28,38.76a1,1,0,0,1-1-1V23.59a1,1,0,0,1,2,0V37.76A1,1,0,0,1,5.28,38.76Z"/><path class="cls-1" d="M5.28,15.43a1,1,0,0,1-1-1V1a1,1,0,0,1,2,0V14.43A1,1,0,0,1,5.28,15.43Z"/><path class="cls-1" d="M5.28,24.59a5.29,5.29,0,1,1,5.28-5.28A5.29,5.29,0,0,1,5.28,24.59Zm0-8.57a3.29,3.29,0,1,0,3.28,3.29A3.29,3.29,0,0,0,5.28,16Z"/><path class="cls-2" d="M17.65,38.76a1,1,0,0,1-1-1v-5a1,1,0,0,1,2,0v5A1,1,0,0,1,17.65,38.76Z"/><path class="cls-2" d="M17.65,24.14a1,1,0,0,1-1-1V1a1,1,0,0,1,2,0V23.14A1,1,0,0,1,17.65,24.14Z"/><path class="cls-2" d="M17.65,33.74a5.28,5.28,0,1,1,5.28-5.28A5.29,5.29,0,0,1,17.65,33.74Zm0-8.56a3.28,3.28,0,1,0,3.28,3.28A3.28,3.28,0,0,0,17.65,25.18Z"/><path class="cls-2" d="M29.05,38.76a1,1,0,0,1-1-1V15a1,1,0,0,1,2,0V37.76A1,1,0,0,1,29.05,38.76Z"/><path class="cls-2" d="M29.05,6.58a1,1,0,0,1-1-1V1a1,1,0,0,1,2,0V5.58A1,1,0,0,1,29.05,6.58Z"/><path class="cls-2" d="M29.05,15.73a5.28,5.28,0,1,1,5.28-5.28A5.29,5.29,0,0,1,29.05,15.73Zm0-8.56a3.28,3.28,0,1,0,3.28,3.28A3.28,3.28,0,0,0,29.05,7.17Z"/></g></g></svg>