<svg xmlns="http://www.w3.org/2000/svg" viewBox="0 0 61.85 49.88"><defs><style>.cls-1{fill:#57b782;}.cls-2{fill:#3c9564;}</style></defs><title>Folder secure</title><g id="Lag_2" data-name="Lag 2"><g id="Icons"><path class="cls-1" d="M59.52,49.88H2.33A2.33,2.33,0,0,1,0,47.55V6.32A2.33,2.33,0,0,1,2.33,4H6.65V2.33A2.33,2.33,0,0,1,9,0H32.25a2.36,2.36,0,0,1,1.87.93l3.19,4.26a.33.33,0,0,0,.26.13h22a2.33,2.33,0,0,1,2.33,2.33v39.9A2.34,2.34,0,0,1,59.52,49.88ZM2.33,6A.33.33,0,0,0,2,6.32V47.55a.33.33,0,0,0,.33.33H59.52a.33.33,0,0,0,.33-.33V7.65a.33.33,0,0,0-.33-.33h-22a2.34,2.34,0,0,1-1.86-.93L32.52,2.13A.35.35,0,0,0,32.25,2H9a.33.33,0,0,0-.33.33V39.25a2.33,2.33,0,0,1-.24,1l-1.2,2.38-1.78-.89L6.62,39.4a.37.37,0,0,0,0-.15V6Z"/><path class="cls-2" d="M41.23,43.23H22a2,2,0,0,1-2-2v-14a2,2,0,0,1,2-2H41.23a2,2,0,0,1,2,2v14A2,2,0,0,1,41.23,43.23ZM22,27.27v14H41.23v-14Z"/><path class="cls-2" d="M39.24,27.27H23.94V19.62a7.65,7.65,0,0,1,15.3,0Zm-13.3-2h11.3V19.62a5.65,5.65,0,0,0-11.3,0Z"/></g></g></svg>