<svg xmlns="http://www.w3.org/2000/svg" viewBox="0 0 64.63 70.74"><defs><style>.cls-1{fill:#57b782;}.cls-2{fill:#3c9564;}</style></defs><title>Mobile secure</title><g id="Lag_2" data-name="Lag 2"><g id="Icons"><path class="cls-1" d="M36.14,70.74H4.06a4.05,4.05,0,0,1-4.06-4V4.06A4.06,4.06,0,0,1,4.06,0H36.14a4.06,4.06,0,0,1,4,4.06V14.75h-2V4.06a2.05,2.05,0,0,0-2-2.06H4.06A2.06,2.06,0,0,0,2,4.06V66.69a2.05,2.05,0,0,0,2.06,2H36.14a2.05,2.05,0,0,0,2-2V56h2V66.69A4.05,4.05,0,0,1,36.14,70.74Z"/><rect class="cls-1" x="1" y="59.58" width="38.19" height="2"/><rect class="cls-1" x="1" y="7.64" width="38.19" height="2"/><rect class="cls-1" x="17.8" y="64.16" width="4.58" height="2"/><path class="cls-2" d="M46.83,57a1.17,1.17,0,0,1-.26,0C45.67,56.72,29,47.72,29,39.19V22.39a1,1,0,0,1,1-1c4.21,0,14.55-5.18,16-7.22a1,1,0,0,1,1.64,0c1.43,2,11.77,7.22,16,7.22a1,1,0,0,1,1,1v16.8C64.63,47.72,48,56.72,47.09,57A1.17,1.17,0,0,1,46.83,57ZM31,23.32V39.19c0,6.4,13.13,14.49,15.81,15.73,2.59-1.19,15.79-9.32,15.79-15.73V23.32c-4.55-.56-12.83-4.49-15.8-7.12C43.86,18.83,35.58,22.76,31,23.32Z"/></g></g></svg>