<svg xmlns="http://www.w3.org/2000/svg" viewBox="0 0 58 58"><defs><style>.cls-1{fill:#57b782;}</style></defs><title>Profile</title><g id="Lag_2" data-name="Lag 2"><g id="Icons"><path class="cls-1" d="M29,30a8.45,8.45,0,0,1-8.64-8.64V17.55A8.45,8.45,0,0,1,29,8.91a8.45,8.45,0,0,1,8.64,8.64v3.81A8.45,8.45,0,0,1,29,30Zm0-19.09a6.42,6.42,0,0,0-6.64,6.64v3.81A6.42,6.42,0,0,0,29,28a6.42,6.42,0,0,0,6.64-6.64V17.55A6.42,6.42,0,0,0,29,10.91Z"/><path class="cls-1" d="M45.27,48.09h-2V41.73c0-4.83-9.37-7.91-14.27-7.91S14.73,36.9,14.73,41.73v6.36h-2V41.73c0-6.51,10.59-9.91,16.27-9.91s16.27,3.4,16.27,9.91Z"/><path class="cls-1" d="M29,58A29,29,0,1,1,58,29,29,29,0,0,1,29,58ZM29,2A27,27,0,1,0,56,29,27,27,0,0,0,29,2Z"/></g></g></svg>