<svg xmlns="http://www.w3.org/2000/svg" viewBox="0 0 64.05 60"><defs><style>.cls-1{fill:#3c9564;}.cls-2{fill:#57b782;}</style></defs><title>Password encryption</title><g id="Lag_2" data-name="Lag 2"><g id="Icons"><path class="cls-1" d="M32,60A17.19,17.19,0,1,1,49.21,42.81,17.21,17.21,0,0,1,32,60Zm0-32.37A15.19,15.19,0,1,0,47.21,42.81,15.2,15.2,0,0,0,32,27.63Z"/><path class="cls-2" d="M15.84,16.84a1,1,0,0,1-.53-.15,1,1,0,0,1-.47-.85V9.09h2v5.13l3.95-2L21.68,14l-5.4,2.7A1,1,0,0,1,15.84,16.84Z"/><rect class="cls-2" x="12.14" y="11.47" width="2" height="6.03" transform="translate(-5.7 19.76) rotate(-63.43)"/><path class="cls-2" d="M12.5,20.59l-1.42-1.41,4.05-4a1,1,0,0,1,1.41,0l4.05,4-1.41,1.41-3.34-3.34Z"/><path class="cls-2" d="M32,16.84a1,1,0,0,1-.52-.15,1,1,0,0,1-.48-.85V9.09h2v5.13l3.95-2,.9,1.78-5.4,2.7A1,1,0,0,1,32,16.84Z"/><rect class="cls-2" x="28.33" y="11.47" width="2" height="6.03" transform="translate(3.25 34.24) rotate(-63.43)"/><path class="cls-2" d="M28.68,20.59l-1.41-1.41,4.05-4a1,1,0,0,1,1.41,0l4.05,4-1.42,1.41L32,17.25Z"/><path class="cls-2" d="M48.21,16.84a1,1,0,0,1-1-1V9.09h2v5.13l3.95-2L54.05,14l-5.39,2.7A1,1,0,0,1,48.21,16.84Z"/><rect class="cls-2" x="44.51" y="11.47" width="2" height="6.03" transform="translate(12.2 48.72) rotate(-63.43)"/><path class="cls-2" d="M44.87,20.59l-1.41-1.41,4-4a1,1,0,0,1,1.42,0l4,4-1.41,1.41-3.34-3.34Z"/><path class="cls-2" d="M60.35,33H49.56V31H60.35a1.7,1.7,0,0,0,1.7-1.69V3.7A1.7,1.7,0,0,0,60.35,2H3.7A1.7,1.7,0,0,0,2,3.7V29.33A1.7,1.7,0,0,0,3.7,31H14.49v2H3.7A3.7,3.7,0,0,1,0,29.33V3.7A3.7,3.7,0,0,1,3.7,0H60.35a3.7,3.7,0,0,1,3.7,3.7V29.33A3.7,3.7,0,0,1,60.35,33Z"/><path class="cls-1" d="M29.41,50.56a1,1,0,0,1-.7-.29l-5.48-5.39,1.4-1.43,4.69,4.61,10-12.61,1.57,1.24L30.19,50.18a1,1,0,0,1-.72.38Z"/></g></g></svg>