<svg xmlns="http://www.w3.org/2000/svg" viewBox="0 0 45.1 57.83"><defs><style>.cls-1{fill:#3c9564;}.cls-2{fill:#57b782;}</style></defs><title>OnlyAssignByManager</title><g id="Lag_2" data-name="Lag 2"><g id="Icons"><path class="cls-1" d="M33.29,51.88a5.16,5.16,0,1,0-5.16-5.15A5.16,5.16,0,0,0,33.29,51.88Zm0-8.93a3.78,3.78,0,1,1-3.78,3.78A3.77,3.77,0,0,1,33.29,43Z"/><path class="cls-1" d="M44.42,43.53H41.54A9.32,9.32,0,0,0,40.79,42l2.12-2.12a.68.68,0,0,0,0-1l-2.53-2.53a.69.69,0,0,0-1,0l-2.3,2.3a7.93,7.93,0,0,0-1.33-.51v-3.3a.69.69,0,0,0-.69-.69H31.5a.69.69,0,0,0-.69.69v3.3a8,8,0,0,0-1.34.51l-2.3-2.3a.71.71,0,0,0-1,0l-2.53,2.53a.69.69,0,0,0,0,1L25.78,42A9.32,9.32,0,0,0,25,43.53H22.16a.69.69,0,0,0-.7.69V47.8a.69.69,0,0,0,.7.69h2.51a8.78,8.78,0,0,0,.66,2l-1.67,1.67a.69.69,0,0,0,0,1l2.53,2.53a.69.69,0,0,0,1,0l1.49-1.49a8.8,8.8,0,0,0,2.15,1v2a.69.69,0,0,0,.69.69h3.58a.69.69,0,0,0,.69-.69v-2a8.9,8.9,0,0,0,2.14-1l1.49,1.49a.69.69,0,0,0,1,0l2.53-2.53a.69.69,0,0,0,0-1l-1.67-1.67a8.62,8.62,0,0,0,.66-2h2.52a.68.68,0,0,0,.68-.62V44.15A.68.68,0,0,0,44.42,43.53ZM43.73,45V47.1h-2.4a.69.69,0,0,0-.69.59,7.45,7.45,0,0,1-.85,2.55.71.71,0,0,0,.11.83l1.54,1.54-1.55,1.55-1.4-1.4a.7.7,0,0,0-.89-.08,7.21,7.21,0,0,1-2.68,1.2.7.7,0,0,0-.54.68v1.88H32.19V54.57a.69.69,0,0,0-.54-.68A7.21,7.21,0,0,1,29,52.69a.7.7,0,0,0-.89.08l-1.4,1.4-1.55-1.55,1.54-1.54a.7.7,0,0,0,.11-.83,7.45,7.45,0,0,1-.85-2.55.69.69,0,0,0-.68-.59h-2.4v-2.2h2.67a.69.69,0,0,0,.66-.48,7.52,7.52,0,0,1,1.05-2.1.68.68,0,0,0-.07-.89l-2-2,1.55-1.56L28.85,40a.69.69,0,0,0,.82.12,7.42,7.42,0,0,1,2-.75.7.7,0,0,0,.54-.68V35.57h2.19v3.14a.7.7,0,0,0,.54.68,7.29,7.29,0,0,1,2,.75.68.68,0,0,0,.82-.12l2.17-2.17,1.55,1.56-2,2a.68.68,0,0,0-.07.89,7.38,7.38,0,0,1,1,2.1.69.69,0,0,0,.66.48h2.68Z"/><path class="cls-2" d="M17.14,19.61A8.16,8.16,0,0,1,8.8,11.27V8.34A8.16,8.16,0,0,1,17.14,0a8.16,8.16,0,0,1,8.34,8.34v2.93A8.16,8.16,0,0,1,17.14,19.61ZM17.14,2A6.14,6.14,0,0,0,10.8,8.34v2.93a6.14,6.14,0,0,0,6.34,6.34,6.14,6.14,0,0,0,6.34-6.34V8.34A6.14,6.14,0,0,0,17.14,2Z"/><circle class="cls-2" cx="17.14" cy="24.26" r="2.25"/><rect class="cls-2" x="16.14" y="25.45" width="2" height="25.78"/><path class="cls-2" d="M31.64,30H33.9C31.9,25.05,22.39,22,17.14,22,11.26,22,0,25.83,0,31.82V57.31H2V31.82C2,27.66,11.44,24,17.14,24,22,24,29.46,26.63,31.64,30Z"/></g></g></svg>