<svg xmlns="http://www.w3.org/2000/svg" viewBox="0 0 55.61 61.09"><defs><style>.cls-1{fill:#57b782;}.cls-2{fill:#3c9564;}</style></defs><title>In a box</title><g id="Lag_2" data-name="Lag 2"><g id="Icons"><path class="cls-1" d="M36.65,49.67l-9.85-7v-2.4l19-9.48,9.85,7v2.41ZM28.8,41.6l8,5.74L53.61,39v-.14l-8-5.74L28.8,41.46Z"/><polygon class="cls-1" points="27.8 61.09 7.66 51.69 7.66 43.4 9.66 43.4 9.66 50.42 27.8 58.88 45.95 50.42 45.95 43.4 47.95 43.4 47.95 51.69 27.8 61.09"/><path class="cls-1" d="M19,49.67,0,40.19V37.78l9.84-7,19,9.48v2.4ZM2,39l16.78,8.39,8-5.74v-.14L10,33.07,2,38.81Z"/><rect class="cls-1" x="26.8" y="40.84" width="2" height="19.15"/><polygon class="cls-1" points="45.76 33.07 36.29 28.33 37.18 26.55 45.58 30.75 53.61 25.01 53.61 24.85 36.26 15.6 37.2 13.84 55.61 23.65 55.61 26.04 45.76 33.07"/><polygon class="cls-1" points="9.84 33.07 0 26.04 0 23.65 18.4 13.84 19.34 15.6 2 24.85 2 25.01 10.03 30.75 18.42 26.55 19.32 28.34 9.84 33.07"/><rect class="cls-2" x="17.87" width="2" height="2.55"/><rect class="cls-2" x="26.8" y="8.93" width="2" height="2.55"/><rect class="cls-2" x="26.8" y="3.83" width="2" height="2.55"/><rect class="cls-2" x="35.74" y="6.38" width="2" height="2.55"/><rect class="cls-2" x="26.8" y="14.04" width="2" height="20.42"/><rect class="cls-2" x="17.87" y="5.11" width="2" height="25.53"/><rect class="cls-2" x="35.74" y="11.49" width="2" height="20.42"/></g></g></svg>