<svg xmlns="http://www.w3.org/2000/svg" viewBox="0 0 72.36 62.61"><defs><style>.cls-1{fill:#57b782;}.cls-2{fill:#3c9564;}</style></defs><title>CompareMonthToMonth</title><g id="Lag_2" data-name="Lag 2"><g id="Icons"><path class="cls-1" d="M54.64,56.81H1a1,1,0,0,1-1-1V6.8a1,1,0,0,1,1-1H54.64a1,1,0,0,1,1,1v49A1,1,0,0,1,54.64,56.81ZM2,54.81H53.64V7.8H2Z"/><path class="cls-1" d="M13.48,13.51a1,1,0,0,1-1-1V1a1,1,0,0,1,2,0V12.51A1,1,0,0,1,13.48,13.51Z"/><path class="cls-1" d="M23,13.51a1,1,0,0,1-1-1V1a1,1,0,0,1,2,0V12.51A1,1,0,0,1,23,13.51Z"/><path class="cls-1" d="M32.6,13.51a1,1,0,0,1-1-1V1a1,1,0,0,1,2,0V12.51A1,1,0,0,1,32.6,13.51Z"/><path class="cls-1" d="M42.16,13.51a1,1,0,0,1-1-1V1a1,1,0,0,1,2,0V12.51A1,1,0,0,1,42.16,13.51Z"/><path class="cls-1" d="M36,23.87H30.21a1,1,0,0,1,0-2H36a1,1,0,0,1,0,2Z"/><path class="cls-1" d="M46.65,23.87H40.83a1,1,0,0,1,0-2h5.82a1,1,0,0,1,0,2Z"/><path class="cls-1" d="M14.82,31.47H9a1,1,0,0,1,0-2h5.83a1,1,0,0,1,0,2Z"/><path class="cls-1" d="M25.43,31.47H19.6a1,1,0,0,1,0-2h5.83a1,1,0,0,1,0,2Z"/><path class="cls-1" d="M36,31.47H30.21a1,1,0,0,1,0-2H36a1,1,0,0,1,0,2Z"/><path class="cls-1" d="M46.65,31.47H40.83a1,1,0,0,1,0-2h5.82a1,1,0,1,1,0,2Z"/><path class="cls-1" d="M14.82,39.07H9a1,1,0,0,1,0-2h5.83a1,1,0,0,1,0,2Z"/><path class="cls-1" d="M25.43,39.07H19.6a1,1,0,0,1,0-2h5.83a1,1,0,0,1,0,2Z"/><path class="cls-1" d="M36,39.07H30.21a1,1,0,0,1,0-2H36a1,1,0,0,1,0,2Z"/><path class="cls-2" d="M46.65,39.07H40.83a1,1,0,0,1,0-2h5.82a1,1,0,0,1,0,2Z"/><path class="cls-1" d="M14.82,46.66H9a1,1,0,0,1,0-2h5.83a1,1,0,0,1,0,2Z"/><path class="cls-1" d="M25.43,46.66H19.6a1,1,0,1,1,0-2h5.83a1,1,0,1,1,0,2Z"/><path class="cls-1" d="M65.34,28.87H59.52a1,1,0,0,1,0-2h5.82a1,1,0,0,1,0,2Z"/><path class="cls-1" d="M65.34,36.47H59.52a1,1,0,0,1,0-2h5.82a1,1,0,0,1,0,2Z"/><path class="cls-1" d="M65.34,44.07H59.52a1,1,0,0,1,0-2h5.82a1,1,0,0,1,0,2Z"/><path class="cls-1" d="M65.34,51.66H59.52a1,1,0,0,1,0-2h5.82a1,1,0,0,1,0,2Z"/><path class="cls-1" d="M71.36,11.59H59.87v2H70.36v47H16.71v1a1,1,0,0,0,1,1H71.36a1,1,0,0,0,1-1v-49A1,1,0,0,0,71.36,11.59Z"/></g></g></svg>