<svg xmlns="http://www.w3.org/2000/svg" viewBox="0 0 42.81 51.88"><defs><style>.cls-1{fill:#57b782;}.cls-2{fill:#3c9564;}</style></defs><title>Timeless coding</title><g id="Lag_2" data-name="Lag 2"><g id="Icons"><polygon class="cls-1" points="28.07 6.54 22.54 6.54 22.54 4.54 26.07 4.54 26.07 2 16.74 2 16.74 4.54 20.27 4.54 20.27 6.54 14.74 6.54 14.74 0 28.07 0 28.07 6.54"/><path class="cls-1" d="M21.41,51.88A21.4,21.4,0,0,1,18.14,9.33V7.8h2v3.3l-.89.1a19.41,19.41,0,1,0,4.31,0l-.89-.1V7.8h2V9.33a21.4,21.4,0,0,1-3.26,42.55Z"/><rect class="cls-1" x="36.84" y="8.23" width="2" height="4.81" transform="translate(3.56 29.87) rotate(-45)"/><rect class="cls-1" x="33.17" y="11.9" width="4.81" height="2" transform="translate(1.3 28.93) rotate(-45)"/><rect class="cls-1" x="2.56" y="9.64" width="4.81" height="2" transform="translate(-6.07 6.63) rotate(-45)"/><rect class="cls-1" x="6.23" y="10.5" width="2" height="4.81" transform="translate(-7.01 8.9) rotate(-45)"/><polygon class="cls-2" points="28.91 37.98 27.5 36.57 33.59 30.47 27.5 24.38 28.91 22.96 36.42 30.47 28.91 37.98"/><polygon class="cls-2" points="13.9 37.98 6.39 30.47 13.9 22.96 15.31 24.38 9.22 30.47 15.31 36.57 13.9 37.98"/><rect class="cls-2" x="9.36" y="30.04" width="22.95" height="2" transform="translate(-15.49 39.86) rotate(-69.78)"/></g></g></svg>