<svg xmlns="http://www.w3.org/2000/svg" viewBox="0 0 49.37 57.31"><defs><style>.cls-1{fill:#57b782;}.cls-2{fill:#3c9564;}</style></defs><title>ManagerApproval</title><g id="Lag_2" data-name="Lag 2"><g id="Icons"><path class="cls-1" d="M17.14,19.61A8.16,8.16,0,0,1,8.8,11.27V8.34A8.16,8.16,0,0,1,17.14,0a8.16,8.16,0,0,1,8.34,8.34v2.93A8.16,8.16,0,0,1,17.14,19.61ZM17.14,2A6.14,6.14,0,0,0,10.8,8.34v2.93a6.14,6.14,0,0,0,6.34,6.34,6.14,6.14,0,0,0,6.34-6.34V8.34A6.14,6.14,0,0,0,17.14,2Z"/><circle class="cls-1" cx="17.14" cy="24.26" r="2.25"/><rect class="cls-1" x="16.14" y="25.45" width="2" height="25.78"/><path class="cls-2" d="M31.5,44.88h0a1,1,0,0,1-.69-.3l-8.69-9a1,1,0,0,1,0-1.37l3.93-3.94a1,1,0,0,1,1.39,0l4.23,4.23,12.09-12a1,1,0,0,1,1.39,0l3.93,3.93a1,1,0,0,1,.29.7.94.94,0,0,1-.29.69L32.19,44.6A1,1,0,0,1,31.5,44.88Zm-7.31-10,7.33,7.57L47,27.17l-2.54-2.54-12.09,12a1,1,0,0,1-1.39,0l-4.22-4.22Z"/><path class="cls-1" d="M31.64,30H33.9C31.9,25.05,22.39,22,17.14,22,11.26,22,0,25.83,0,31.82V57.31H2V31.82C2,27.66,11.44,24,17.14,24,22,24,29.46,26.63,31.64,30Z"/><rect class="cls-1" x="32.28" y="46.16" width="2" height="11.15"/></g></g></svg>