<svg xmlns="http://www.w3.org/2000/svg" viewBox="0 0 73.21 55.23"><defs><style>.cls-1{fill:#3c9564;}.cls-2{fill:#57b782;}</style></defs><title>Responsive design</title><g id="Lag_2" data-name="Lag 2"><g id="Icons"><g id="icon"><path class="cls-1" d="M23.44,36.06H4.26A4.26,4.26,0,0,0,0,40.32V51a4.26,4.26,0,0,0,4.26,4.26H23.44A4.26,4.26,0,0,0,27.7,51V40.32A4.26,4.26,0,0,0,23.44,36.06Zm2,14.91a2,2,0,0,1-2,2H4.26a2,2,0,0,1-2-2V40.32a2,2,0,0,1,2-2H23.44a2,2,0,0,1,2,2Z"/><path class="cls-2" d="M35.51,13H10.76A4.26,4.26,0,0,0,6.5,17.26V32.62H8.79V17.26a2,2,0,0,1,2-2H35.51a2,2,0,0,1,2,2V51a2,2,0,0,1-2,2H30.84a7.73,7.73,0,0,1-1,2.29h5.68A4.26,4.26,0,0,0,39.77,51V17.26A4.26,4.26,0,0,0,35.51,13Z"/><path class="cls-2" d="M68.35,0H18.19a4.87,4.87,0,0,0-4.86,4.86V9.57h2.29V4.86a2.57,2.57,0,0,1,2.57-2.57H68.35a2.58,2.58,0,0,1,2.57,2.57V42.94a2.58,2.58,0,0,1-2.57,2.57H43.2V47.8h6.36v4.43a2.71,2.71,0,0,0,.09.71H42.91a7.73,7.73,0,0,1-1,2.29H53.53a1.15,1.15,0,0,0,0-2.29h0s-1.65-.08-1.65-.71V47.8H68.35a4.87,4.87,0,0,0,4.86-4.86V4.86A4.87,4.87,0,0,0,68.35,0Z"/><path class="cls-2" d="M66.27,8.9V35.51a2,2,0,0,1-2,2H43.2v2.29H64.3a4.26,4.26,0,0,0,4.26-4.26V8.9A4.26,4.26,0,0,0,64.3,4.64H22.24A4.26,4.26,0,0,0,18,8.9v.67h2.29V8.9a2,2,0,0,1,2-2H64.3A2,2,0,0,1,66.27,8.9Z"/></g></g></g></svg>