<svg xmlns="http://www.w3.org/2000/svg" viewBox="0 0 69.5 50.89"><defs><style>.cls-1{fill:#57b782;}</style></defs><title>Groups</title><g id="Lag_2" data-name="Lag 2"><g id="Icons"><path class="cls-1" d="M51.89,50.89h-2V31.82c0-4.16-9.44-7.81-15.14-7.81s-15.14,3.65-15.14,7.81V50.89h-2V31.82c0-6,11.25-9.81,17.14-9.81s17.14,3.82,17.14,9.81Z"/><path class="cls-1" d="M34.75,19.61a8.16,8.16,0,0,1-8.34-8.34V8.34A8.16,8.16,0,0,1,34.75,0a8.16,8.16,0,0,1,8.34,8.34v2.93A8.16,8.16,0,0,1,34.75,19.61ZM34.75,2a6.14,6.14,0,0,0-6.34,6.34v2.93a6.14,6.14,0,0,0,6.34,6.34,6.14,6.14,0,0,0,6.34-6.34V8.34A6.14,6.14,0,0,0,34.75,2Z"/><path class="cls-1" d="M69.5,49.42h-2V34.75c0-3.95-8.65-7.8-13.67-7.8H52.36V25h1.47c5.36,0,15.67,4.14,15.67,9.8Z"/><path class="cls-1" d="M55.29,22.54A8.15,8.15,0,0,1,47,14.21V11.27a8.34,8.34,0,1,1,16.67,0v2.94A8.15,8.15,0,0,1,55.29,22.54Zm0-17.61A6.13,6.13,0,0,0,49,11.27v2.94a6.34,6.34,0,0,0,12.67,0V11.27A6.13,6.13,0,0,0,55.29,4.93Z"/><path class="cls-1" d="M2,49.42H0V34.75C0,29.09,10.31,25,15.67,25h1.47v2H15.67C10.65,27,2,30.8,2,34.75Z"/><path class="cls-1" d="M14.21,22.54a8.15,8.15,0,0,1-8.34-8.33V11.27a8.16,8.16,0,0,1,8.34-8.34,8.15,8.15,0,0,1,8.33,8.34v2.94A8.15,8.15,0,0,1,14.21,22.54Zm0-17.61a6.13,6.13,0,0,0-6.34,6.34v2.94a6.12,6.12,0,0,0,6.34,6.33,6.12,6.12,0,0,0,6.33-6.33V11.27A6.13,6.13,0,0,0,14.21,4.93Z"/></g></g></svg>