<svg xmlns="http://www.w3.org/2000/svg" viewBox="0 0 59.82 64.66"><defs><style>.cls-1{fill:#57b782;}.cls-2{fill:#3c9564;}</style></defs><title>Absence</title><g id="Lag_2" data-name="Lag 2"><g id="Icons"><path class="cls-1" d="M47.15,64.66H4a4,4,0,0,1-4-4V10.78a4,4,0,0,1,4-4H9.43V9.43H4a1.35,1.35,0,0,0-1.35,1.35V60.62A1.35,1.35,0,0,0,4,62H47.15a1.34,1.34,0,0,0,1.34-1.34V51h2.7v9.61A4,4,0,0,1,47.15,64.66Z"/><path class="cls-1" d="M51.19,23.29h-2.7V10.78a1.34,1.34,0,0,0-1.34-1.35H41.76V6.74h5.39a4,4,0,0,1,4,4Z"/><polygon class="cls-1" points="45.8 59.27 5.39 59.27 5.39 12.12 9.43 12.12 9.43 14.82 8.08 14.82 8.08 56.58 43.11 56.58 43.11 51.01 45.8 51.01 45.8 59.27"/><polygon class="cls-1" points="45.8 23.29 43.11 23.29 43.11 14.82 41.76 14.82 41.76 12.12 45.8 12.12 45.8 23.29"/><path class="cls-1" d="M40.41,16.16H10.78V10.78a5.39,5.39,0,0,1,5.39-5.39H19a6.74,6.74,0,0,1,13.2,0H35a5.4,5.4,0,0,1,5.39,5.39ZM13.47,13.47H37.72V10.78A2.7,2.7,0,0,0,35,8.08H29.64V6.74a4,4,0,1,0-8.09,0V8.08H16.17a2.7,2.7,0,0,0-2.7,2.7Z"/><rect class="cls-1" x="24.25" y="5.39" width="2.69" height="2.69"/><rect class="cls-2" x="37.08" y="35.77" width="21.28" height="2" transform="translate(-11.78 46.16) rotate(-46.58)"/><path class="cls-2" d="M47.75,49.43A12.07,12.07,0,1,1,59.82,37.36,12.08,12.08,0,0,1,47.75,49.43Zm0-22.14A10.07,10.07,0,1,0,57.82,37.36,10.08,10.08,0,0,0,47.75,27.29Z"/></g></g></svg>