<svg xmlns="http://www.w3.org/2000/svg" viewBox="0 0 51.4 68.48"><defs><style>.cls-1{fill:#57b782;}.cls-2{fill:#3c9564;}</style></defs><title>CreateNotes</title><g id="Lag_2" data-name="Lag 2"><g id="Icons"><rect class="cls-1" x="7.67" y="31.25" width="22.83" height="2"/><rect class="cls-1" x="7.67" y="36.84" width="12.58" height="2"/><rect class="cls-1" x="7.67" y="36.84" width="22.83" height="2"/><rect class="cls-1" x="7.67" y="42.43" width="12.58" height="2"/><polygon class="cls-1" points="10.59 20.64 3.45 20.64 3.45 18.64 8.59 18.64 8.59 13.51 10.59 13.51 10.59 20.64"/><path class="cls-2" d="M43.09,23.07h-5.8V14.35H29V8.63h8.32V0h5.8V8.63H51.4v5.72H43.09Zm-3.8-2h1.8V12.35H49.4V10.63H41.09V2h-1.8v8.63H31v1.72h8.32Z"/><polygon class="cls-1" points="39.25 25.48 39.25 53.42 39.25 55.15 39.25 61.34 39.25 62.45 39.25 66.48 2 66.48 2 17.6 7.55 12.06 26.39 12.06 26.39 10.06 6.72 10.06 0 16.77 0 68.48 41.25 68.48 41.25 62.45 41.25 61.34 41.25 55.15 41.25 53.42 41.25 25.48 39.25 25.48"/></g></g></svg>