<svg xmlns="http://www.w3.org/2000/svg" viewBox="0 0 58.26 59.57"><defs><style>.cls-1{fill:#57b782;}.cls-2{fill:#3c9564;}</style></defs><title>Report</title><g id="Lag_2" data-name="Lag 2"><g id="Icons"><rect class="cls-1" x="12.78" y="48.41" width="9.16" height="2"/><path class="cls-1" d="M58.26,59.57H23.55V14.08a2.93,2.93,0,0,0-5.85,0V45.49a4.93,4.93,0,0,1-9.85,0V4.93A2.93,2.93,0,1,0,2,4.93v5.54H6.23v2H0V4.93a4.93,4.93,0,1,1,9.85,0V45.49a2.93,2.93,0,0,0,5.85,0V14.08a4.93,4.93,0,0,1,4.93-4.92H53.34a4.93,4.93,0,0,1,4.92,4.92Zm-32.71-2H56.26V14.08a2.92,2.92,0,0,0-2.92-2.92H24.59a4.93,4.93,0,0,1,1,2.92Z"/><path class="cls-1" d="M42.56,7.54h-2V4.93A2.93,2.93,0,0,0,37.64,2H6.23V0H37.64a4.93,4.93,0,0,1,4.92,4.93Z"/><rect class="cls-2" x="31.09" y="27.48" width="19.63" height="2"/><rect class="cls-2" x="31.09" y="32.71" width="11.78" height="2"/><rect class="cls-2" x="31.09" y="22.24" width="19.63" height="2"/></g></g></svg>