<svg xmlns="http://www.w3.org/2000/svg" viewBox="0 0 53.46 64.1"><defs><style>.cls-1{fill:#3c9564;}.cls-2{fill:#57b782;}</style></defs><title>Basket02</title><g id="Lag_2" data-name="Lag 2"><g id="Description"><path class="cls-1" d="M51.33,51.87H2.13a.8.8,0,0,0,0,1.6h49.2a.8.8,0,1,0,0-1.6Z"/><path class="cls-2" d="M.8,64.1H52.66a.77.77,0,0,0,.6-.27.84.84,0,0,0,.2-.63L52.13,53V19.42a.8.8,0,0,0-.8-.8H41.49V4.79a.81.81,0,0,0-.32-.64l-5.32-4s-.06,0-.1-.06l-.07,0A.67.67,0,0,0,35.4,0H18.09a.78.78,0,0,0-.3.07l-.05,0-.13.07-5.32,4a.81.81,0,0,0-.32.64V18.62H2.13a.8.8,0,0,0-.8.8V53L0,63.2a.8.8,0,0,0,.19.63A.77.77,0,0,0,.8,64.1ZM18.89,1.6H34.57V5.32H18.89Zm0,5.32H34.57v11.7H18.89Zm-16,46.19a.34.34,0,0,0,0-.1V20.22h9.84a.8.8,0,0,0,.8-.8V5.19L17.29,2.4v17a.8.8,0,0,0,.8.8H35.37a.8.8,0,0,0,.8-.8V2.4l3.72,2.79V19.42a.8.8,0,0,0,.8.8h9.84V53s0,.07,0,.1l1.21,9.39h-50Z"/></g></g></svg>