<svg xmlns="http://www.w3.org/2000/svg" viewBox="0 0 64 64"><defs><style>.cls-1{fill:#3c9564;}.cls-2{fill:#57b782;}</style></defs><title>Payment 01</title><g id="Lag_2" data-name="Lag 2"><g id="Icons"><g id="wallet"><path class="cls-1" d="M37,41a4,4,0,1,1,4-4A4,4,0,0,1,37,41Zm0-6a2,2,0,1,0,2,2A2,2,0,0,0,37,35Z"/><path class="cls-1" d="M61,46H37.24a9.19,9.19,0,0,1-9.13-7.58A9,9,0,0,1,37,28H61a3,3,0,0,1,3,3V43A3,3,0,0,1,61,46ZM37,30a7,7,0,0,0-6.91,8.11A7.17,7.17,0,0,0,37.24,44H61a1,1,0,0,0,1-1V31a1,1,0,0,0-1-1Z"/><path class="cls-2" d="M53,64H7a7,7,0,0,1-7-7V6H2V57a5,5,0,0,0,5,5H53a3,3,0,0,0,3-3V50h2v9A5,5,0,0,1,53,64Z"/><path class="cls-2" d="M58,24H56V15a3,3,0,0,0-3-3H6a6,6,0,0,1-4.44-2A6.07,6.07,0,0,1,0,5.41,6.17,6.17,0,0,1,6.22,0H49a5,5,0,0,1,5,5V8H52V5a3,3,0,0,0-3-3H6.22A4.14,4.14,0,0,0,2,5.6,4,4,0,0,0,3,8.69,4,4,0,0,0,6,10H53a5,5,0,0,1,5,5Z"/></g></g></g></svg>