<svg xmlns="http://www.w3.org/2000/svg" viewBox="0 0 75.95 56.76"><defs><style>.cls-1{fill:#57b782;}.cls-2{fill:#3c9564;}</style></defs><title>DownloadReport_1</title><g id="Lag_2" data-name="Lag 2"><g id="Description"><path class="cls-1" d="M57.88,47.54a18.08,18.08,0,0,0,4.85-35.49L62.42,12l-.05-.33A13.47,13.47,0,0,0,38.58,5l-.25.31L38,5.09A16.87,16.87,0,0,0,14.1,15.76l-.09.32-.33.05a15.77,15.77,0,0,0,2.1,31.41h9.83a5.24,5.24,0,0,1-.05-2.33H15.78A13.44,13.44,0,0,1,15,18.35l.91-.05.18-.9A14.54,14.54,0,0,1,38.05,7.81l1,.61.62-1A11.14,11.14,0,0,1,60.15,13l0,.91.89.18a15.74,15.74,0,0,1-3.2,31.16H53.46a5.24,5.24,0,0,1-.05,2.33Z"/><path class="cls-2" d="M40.29,56l.4.3h0l-.32-.37,8.8-8.81a1.21,1.21,0,1,0-1.72-1.71l-6.73,6.72V29.3a1.21,1.21,0,1,0-2.42,0V52.12L31.57,45.4a1.21,1.21,0,1,0-1.72,1.71l9.09,9-.09.51.2-.46,0,.51.15-.48.12,0,.06.51h0l0-.5a1,1,0,0,0,.24,0l.17.48h0l0-.5.44-.19.38.35h0Z"/></g></g></svg>