<svg xmlns="http://www.w3.org/2000/svg" viewBox="0 0 37.79 70.41"><defs><style>.cls-1{fill:#57b782;}.cls-2{fill:#3c9564;}</style></defs><title>SmartphoneResponsive</title><g id="Lag_2" data-name="Lag 2"><g id="Icons"><path class="cls-1" d="M37.78,9.8V7a7,7,0,0,0-7-7H7.17a7,7,0,0,0-7,7V33.26l0,.1A.93.93,0,0,0,0,34a.91.91,0,0,0,.08.23l0,.21v29a7,7,0,0,0,7,7H30.75a7,7,0,0,0,7-7V60.76a1.72,1.72,0,0,0,0-.27,1.15,1.15,0,0,0,0-.19V25.24a1.15,1.15,0,0,0,0-.37V10.25a1.72,1.72,0,0,0,0-.27A1,1,0,0,0,37.78,9.8Zm-2,53.59a5.06,5.06,0,0,1-5,5H7.17a5.06,5.06,0,0,1-5-5V61.47H35.8Zm0-3.89H2.12V11H35.8ZM35.8,9H2.12V7A5.06,5.06,0,0,1,7.17,2H30.75A5.06,5.06,0,0,1,35.8,7Z"/><rect class="cls-2" x="13.15" y="21.9" width="1" height="13.86" transform="translate(-16.39 18.1) rotate(-45)"/><path class="cls-2" d="M18.2,34.62,7.86,24.28,9.1,23.05,19.43,33.38ZM8.92,24.28l9.28,9.27.17-.17L9.1,24.11Z"/><polygon class="cls-2" points="19.05 34.23 10.55 34.23 10.55 33.23 18.05 33.23 18.05 25.73 19.05 25.73 19.05 34.23"/><path class="cls-2" d="M19.42,34.61H10.17V32.86h7.5v-7.5h1.75Zm-8.5-.75h7.75V26.11h-.25v7.5h-7.5Z"/><rect class="cls-2" x="25.95" y="34.7" width="1" height="13.86" transform="translate(-21.69 30.9) rotate(-45)"/><path class="cls-2" d="M31,47.42,20.67,37.08l1.23-1.23L32.24,46.18ZM21.73,37.08,31,46.36l.18-.18L21.9,36.91Z"/><polygon class="cls-2" points="22.05 44.73 21.05 44.73 21.05 36.23 29.55 36.23 29.55 37.23 22.05 37.23 22.05 44.73"/><path class="cls-2" d="M22.42,45.11H20.67V35.86h9.25v1.75h-7.5Zm-1-.75h.25v-7.5h7.5v-.25H21.42Z"/></g></g></svg>