<svg xmlns="http://www.w3.org/2000/svg" viewBox="0 0 48.44 45.17"><defs><style>.cls-1{fill:#57b782;}.cls-2{fill:#3c9564;}</style></defs><title>Box</title><g id="Lag_2" data-name="Lag 2"><g id="Icons"><rect class="cls-1" x="23.04" y="1.67" width="2.36" height="41.84"/><polygon class="cls-2" points="9.03 12.4 15.98 10.97 15.98 3.81 9.03 6.19 9.03 12.4"/><polygon class="cls-2" points="39.65 12.4 32.71 10.65 32.71 3.81 39.65 6.19 39.65 12.4"/><path class="cls-2" d="M30.09,36.85a1.55,1.55,0,1,1-1.55-1.56A1.56,1.56,0,0,1,30.09,36.85Z"/><path class="cls-2" d="M34.62,35.61a1.55,1.55,0,1,1-1.55-1.56A1.55,1.55,0,0,1,34.62,35.61Z"/><path class="cls-1" d="M24.22,45.17,0,36.88V8.29L24.22,0,48.44,8.29V36.88ZM3.15,34.63l21.07,7.21,21.07-7.21V10.55L24.22,3.33,3.15,10.55Z"/></g></g></svg>