<svg xmlns="http://www.w3.org/2000/svg" viewBox="0 0 43.42 59.21"><defs><style>.cls-1{fill:#57b782;}.cls-2{fill:#3c9564;}</style></defs><title>EmployessCanAddReason</title><g id="Lag_2" data-name="Lag 2"><g id="Icons"><path class="cls-1" d="M34.28,34.31h-2V31.82c0-4.16-9.43-7.81-15.14-7.81S2,27.66,2,31.82V57.31H0V31.82C0,25.83,11.26,22,17.14,22s17.14,3.82,17.14,9.81Z"/><path class="cls-1" d="M17.14,19.61A8.16,8.16,0,0,1,8.8,11.27V8.34A8.16,8.16,0,0,1,17.14,0a8.16,8.16,0,0,1,8.34,8.34v2.93A8.16,8.16,0,0,1,17.14,19.61ZM17.14,2A6.14,6.14,0,0,0,10.8,8.34v2.93a6.14,6.14,0,0,0,6.34,6.34,6.14,6.14,0,0,0,6.34-6.34V8.34A6.14,6.14,0,0,0,17.14,2Z"/><path class="cls-2" d="M43.42,43.59V57.24a2,2,0,0,1-2,2H29.61a2,2,0,0,1-2-2V40.14a2,2,0,0,1,2-2H38a1.88,1.88,0,0,1,1.4.58l3.45,3.45A1.89,1.89,0,0,1,43.42,43.59Zm-1.5,14.12a.64.64,0,0,0,.18-.47V44.74H37.83a.91.91,0,0,1-.7-.29,1,1,0,0,1-.29-.7V39.48H29.61a.62.62,0,0,0-.66.66v17.1a.64.64,0,0,0,.18.47.63.63,0,0,0,.48.19H41.45A.61.61,0,0,0,41.92,57.71ZM39.33,47.52a.47.47,0,0,0-.35-.15H32.07a.5.5,0,0,0-.49.5v.32a.5.5,0,0,0,.49.5H39a.47.47,0,0,0,.35-.15.48.48,0,0,0,.14-.35v-.32A.48.48,0,0,0,39.33,47.52Zm0,2.63A.47.47,0,0,0,39,50H32.07a.5.5,0,0,0-.49.5v.33a.48.48,0,0,0,.49.49H39a.5.5,0,0,0,.35-.14.52.52,0,0,0,.14-.35V50.5A.48.48,0,0,0,39.33,50.15Zm0,2.63a.47.47,0,0,0-.35-.15H32.07a.49.49,0,0,0-.35.15.5.5,0,0,0-.14.35v.33a.48.48,0,0,0,.49.49H39a.5.5,0,0,0,.35-.14.52.52,0,0,0,.14-.35v-.33A.5.5,0,0,0,39.33,52.78Zm-.88-13.1a1.15,1.15,0,0,0-.29-.2v4H42.1a1,1,0,0,0-.2-.29Z"/></g></g></svg>