<svg xmlns="http://www.w3.org/2000/svg" viewBox="0 0 55.77 37.07"><defs><style>.cls-1{fill:#57b782;}.cls-2{fill:#3c9564;}</style></defs><title>Scripting - Coding</title><g id="Lag_2" data-name="Lag 2"><g id="Icons"><path class="cls-1" d="M27.89,37.07a15,15,0,1,1,15-15A15,15,0,0,1,27.89,37.07ZM27.89,9a13,13,0,1,0,13,13A13,13,0,0,0,27.89,9Z"/><path class="cls-1" d="M27.8,37.07C12.57,37.07.73,23.27.24,22.69a1,1,0,0,1,0-1.29C.73,20.81,12.57,7,27.8,7S55,20.8,55.53,21.39a1,1,0,0,1,0,1.3c-.4.47-9.93,11.44-22.78,13.9A26.18,26.18,0,0,1,27.8,37.07ZM2.35,22c2.53,2.71,13,13,25.45,13a24.64,24.64,0,0,0,4.57-.44c10.43-2,18.8-10.2,21.05-12.59C50.85,19.32,40.28,9,27.8,9S4.87,19.33,2.35,22Z"/><path class="cls-1" d="M5.08,10,3.93,8.37c5.4-3.82,14-8.37,24-8.37s18.55,4.55,24,8.37L50.69,10c-5.17-3.65-13.32-8-22.8-8S10.25,6.35,5.08,10Z"/><polygon class="cls-2" points="22.5 27.42 17.12 22.04 22.5 16.66 23.92 18.07 19.95 22.04 23.92 26.01 22.5 27.42"/><polygon class="cls-2" points="33.27 27.42 31.86 26.01 35.82 22.04 31.86 18.07 33.27 16.66 38.65 22.04 33.27 27.42"/><rect class="cls-2" x="20.07" y="21.04" width="16.75" height="2" transform="translate(0.87 45.16) rotate(-77.74)"/></g></g></svg>