<svg xmlns="http://www.w3.org/2000/svg" viewBox="0 0 56.51 62.1"><defs><style>.cls-1{fill:#3c9564;}.cls-2{fill:#57b782;}</style></defs><title>Communication 01</title><g id="Lag_2" data-name="Lag 2"><g id="Icons"><rect class="cls-1" x="20.57" y="11.18" width="22.36" height="2"/><rect class="cls-1" x="20.57" y="16.77" width="12.58" height="2"/><path class="cls-2" d="M35.19,62.1h-16a4.53,4.53,0,0,1-4.14-2c-.46-.58-.67-.84-1.45-.84H9.39v-2h4.19a3.44,3.44,0,0,1,3,1.6,2.63,2.63,0,0,0,2.58,1.19h16a2.19,2.19,0,0,0,1.93-1.73l0-.16,2-11.74a3.43,3.43,0,0,0-.77-2.76,3.26,3.26,0,0,0-2.49-1.18H31.75v-2h4.08a5.26,5.26,0,0,1,4,1.89,5.41,5.41,0,0,1,1.21,4.38L39.12,58.46A4.17,4.17,0,0,1,35.19,62.1Z"/><path class="cls-2" d="M23.8,52.22l-.87-1.8c3.62-1.75,5-3.61,5-6.63V41.53a5.41,5.41,0,0,1,.56-2,9,9,0,0,0,.84-3.58,7.75,7.75,0,0,0-2.11-5.32A2.36,2.36,0,0,0,25.31,30a1.39,1.39,0,0,0-.95.32v1.47c0,5.43-7.34,10.78-9.38,10.78H9.39v-2H15c1.09-.12,7.38-4.42,7.38-8.78v-1.5a2.24,2.24,0,0,1,1.7-2.07,4.49,4.49,0,0,1,4.77,1.22,9.66,9.66,0,0,1,2.52,6.54,10.89,10.89,0,0,1-1,4.34A4.63,4.63,0,0,0,30,41.53v2.26C30,48.6,26.84,50.75,23.8,52.22Z"/><path class="cls-2" d="M10.39,62.1H0V37.74H10.39ZM2,60.1H8.39V39.74H2Z"/><path class="cls-1" d="M47.11,39.74a2.35,2.35,0,0,1-1.87-.92L38.3,31.35H33.15v-2h6l7.64,8.23a.38.38,0,0,0,.44.14.39.39,0,0,0,.27-.38v-8h5.2a1.79,1.79,0,0,0,1.79-1.8V3.79A1.79,1.79,0,0,0,52.72,2H10.78A1.79,1.79,0,0,0,9,3.79V27.55a1.79,1.79,0,0,0,1.79,1.8h8.39v2H10.78A3.8,3.8,0,0,1,7,27.55V3.79A3.79,3.79,0,0,1,10.78,0H52.72a3.79,3.79,0,0,1,3.79,3.79V27.55a3.8,3.8,0,0,1-3.79,3.8h-3.2v6a2.42,2.42,0,0,1-2.41,2.4Z"/></g></g></svg>