<svg xmlns="http://www.w3.org/2000/svg" viewBox="0 0 57.06 57.82"><defs><style>.cls-1{fill:#57b782;}.cls-2{fill:#3c9564;}</style></defs><title>Folder encryption</title><g id="Lag_2" data-name="Lag 2"><g id="Icons"><path class="cls-1" d="M54.58,42.93H2.48A2.24,2.24,0,0,1,.24,40.69V2.24A2.24,2.24,0,0,1,2.48,0H23a2.23,2.23,0,0,1,1.79.9l3,4a.22.22,0,0,0,.19.09H49.62A2.25,2.25,0,0,1,51.86,7.2V9.68h-2V7.2A.24.24,0,0,0,49.62,7H27.91a2.24,2.24,0,0,1-1.79-.89l-3-4A.26.26,0,0,0,23,2H2.48a.24.24,0,0,0-.24.24V40.69a.24.24,0,0,0,.24.24h52.1a.24.24,0,0,0,.24-.24V13.4a.24.24,0,0,0-.24-.24H8.68a.24.24,0,0,0-.24.24V35.22a2.22,2.22,0,0,1-.65,1.58L5.67,38.92,4.25,37.51l2.12-2.12a.23.23,0,0,0,.07-.17V13.4a2.25,2.25,0,0,1,2.24-2.24h45.9a2.25,2.25,0,0,1,2.24,2.24V40.69A2.24,2.24,0,0,1,54.58,42.93Z"/><path class="cls-1" d="M28.53,57.82a4.72,4.72,0,1,1,4.72-4.72A4.73,4.73,0,0,1,28.53,57.82Zm0-7.44a2.72,2.72,0,1,0,2.72,2.72A2.72,2.72,0,0,0,28.53,50.38Z"/><rect class="cls-1" x="27.53" y="44.41" width="2" height="4.96"/><rect class="cls-1" y="52.1" width="24.81" height="2"/><rect class="cls-1" x="32.25" y="52.1" width="24.81" height="2"/><path class="cls-2" d="M18.61,28.05a1,1,0,0,1-.53-.15,1,1,0,0,1-.47-.85v-6.2h2v4.58l3.51-1.76L24,25.46l-5,2.48A1,1,0,0,1,18.61,28.05Z"/><rect class="cls-2" x="15.12" y="23.03" width="2" height="5.55" transform="translate(-14.17 28.69) rotate(-63.43)"/><path class="cls-2" d="M21.62,31.48l-3-3-3,3-1.41-1.42,3.72-3.72a1,1,0,0,1,1.41,0L23,30.06Z"/><path class="cls-2" d="M32.25,28.05a1,1,0,0,1-1-1v-6.2h2v4.58l3.51-1.76.9,1.79-5,2.48A1,1,0,0,1,32.25,28.05Z"/><rect class="cls-2" x="28.77" y="23.03" width="2" height="5.55" transform="translate(-6.63 40.89) rotate(-63.43)"/><path class="cls-2" d="M29.24,31.48l-1.42-1.42,3.72-3.72a1,1,0,0,1,.71-.29h0a1,1,0,0,1,.71.29l3.72,3.72-1.42,1.42-3-3Z"/><path class="cls-2" d="M45.9,28.05a1,1,0,0,1-.53-.15,1,1,0,0,1-.47-.85v-6.2h2v4.58l3.51-1.76.89,1.79-5,2.48A1,1,0,0,1,45.9,28.05Z"/><rect class="cls-2" x="42.41" y="23.03" width="2" height="5.55" transform="translate(0.92 53.1) rotate(-63.43)"/><path class="cls-2" d="M42.88,31.48l-1.41-1.42,3.72-3.72a1,1,0,0,1,.71-.29h0a1,1,0,0,1,.7.29l3.72,3.72-1.41,1.42-3-3Z"/></g></g></svg>