<svg xmlns="http://www.w3.org/2000/svg" viewBox="0 0 72.02 54.61"><defs><style>.cls-1{fill:#57b782;}.cls-2{fill:#3c9564;stroke:#3c9564;stroke-miterlimit:10;stroke-width:0.5px;}</style></defs><title>Browser</title><g id="Lag_2" data-name="Lag 2"><g id="Description"><path class="cls-1" d="M64,7.81H25.18a1,1,0,0,1,0-2H64a1,1,0,0,1,0,2Z"/><path class="cls-1" d="M13.5,7.81H13a1,1,0,0,1,0-2h.53a1,1,0,0,1,0,2Z"/><path class="cls-1" d="M8.57,7.81H8a1,1,0,1,1,0-2h.53a1,1,0,0,1,0,2Z"/><path class="cls-1" d="M18.48,7.81H18a1,1,0,0,1,0-2h.53a1,1,0,0,1,0,2Z"/><path class="cls-1" d="M66.94,54.61H5.08A5.09,5.09,0,0,1,0,49.52V5.09A5.09,5.09,0,0,1,5.08,0H66.94A5.09,5.09,0,0,1,72,5.09V49.52A5.09,5.09,0,0,1,66.94,54.61ZM5.08,2A3.08,3.08,0,0,0,2,5.09V49.52a3.08,3.08,0,0,0,3.08,3.09H66.94A3.08,3.08,0,0,0,70,49.52V5.09A3.08,3.08,0,0,0,66.94,2Z"/><path class="cls-1" d="M71,13.57H1a1,1,0,0,1,0-2H71a1,1,0,0,1,0,2Z"/><polygon class="cls-2" points="28.89 30.16 27.93 30.16 27.93 24.34 33.74 24.34 33.74 25.31 28.89 25.31 28.89 30.16"/><rect class="cls-2" x="31.22" y="23.46" width="0.97" height="9.33" transform="translate(-10.6 30.66) rotate(-45)"/><polygon class="cls-2" points="46.35 30.16 45.38 30.16 45.38 25.31 40.53 25.31 40.53 24.34 46.35 24.34 46.35 30.16"/><rect class="cls-2" x="37.9" y="27.64" width="9.33" height="0.97" transform="translate(-7.42 38.33) rotate(-45)"/><polygon class="cls-2" points="33.74 42.77 27.93 42.77 27.93 36.95 28.89 36.95 28.89 41.8 33.74 41.8 33.74 42.77"/><rect class="cls-2" x="27.04" y="38.5" width="9.33" height="0.97" transform="translate(-18.28 33.84) rotate(-45)"/><polygon class="cls-2" points="46.35 42.77 40.53 42.77 40.53 41.8 45.38 41.8 45.38 36.95 46.35 36.95 46.35 42.77"/><rect class="cls-2" x="42.08" y="34.32" width="0.97" height="9.33" transform="translate(-15.1 41.51) rotate(-45)"/></g></g></svg>