<svg xmlns="http://www.w3.org/2000/svg" viewBox="0 0 61.66 61.63"><defs><style>.cls-1{fill:#3c9564;}.cls-2{fill:#57b782;}</style></defs><title>ComprehensiveStatistics</title><g id="Lag_2" data-name="Lag 2"><g id="Icons"><path class="cls-1" d="M32.5,2A28.87,28.87,0,0,1,59.53,28h2A30.88,30.88,0,0,0,32.5,0Z"/><path class="cls-2" d="M59.66,31A28.83,28.83,0,1,1,29.5,2V0A30.83,30.83,0,1,0,61.66,31Z"/><path class="cls-1" d="M18,32.32a1.17,1.17,0,0,0-1.17,1.17v4.65a1.17,1.17,0,0,0,2.33,0V33.49A1.16,1.16,0,0,0,18,32.32Z"/><path class="cls-1" d="M36.61,23a1.16,1.16,0,0,0-1.16,1.16v14a1.16,1.16,0,0,0,2.32,0v-14A1.16,1.16,0,0,0,36.61,23Z"/><path class="cls-1" d="M22.65,27.67a1.16,1.16,0,0,0-1.16,1.16v9.31a1.16,1.16,0,1,0,2.32,0V28.83A1.16,1.16,0,0,0,22.65,27.67Z"/><path class="cls-1" d="M32,27.67a1.16,1.16,0,0,0-1.17,1.16v9.31a1.17,1.17,0,0,0,2.33,0V28.83A1.16,1.16,0,0,0,32,27.67Z"/><path class="cls-1" d="M41.26,18.36a1.16,1.16,0,0,0-1.16,1.17V38.14a1.17,1.17,0,0,0,2.33,0V19.53A1.17,1.17,0,0,0,41.26,18.36Z"/><path class="cls-1" d="M27.3,25.34a1.16,1.16,0,0,0-1.16,1.17V38.14a1.17,1.17,0,0,0,2.33,0V26.51A1.17,1.17,0,0,0,27.3,25.34Z"/></g></g></svg>