<svg xmlns="http://www.w3.org/2000/svg" viewBox="0 0 74.08 58.41"><defs><style>.cls-1{fill:#57b782;}.cls-2{fill:#3c9564;}</style></defs><title>Cloud secure</title><g id="Lag_2" data-name="Lag 2"><g id="Icons"><path class="cls-1" d="M62.11,44.31h-9.4v-2h9.4a10,10,0,1,0-3-19.47l-1.6.52.31-1.66A9.56,9.56,0,0,0,58,19.8,10,10,0,0,0,41.5,12.26l-1.11,1-.49-1.39a14.66,14.66,0,0,0-27.82,9.27l.38,1.2-1.26.1A10,10,0,0,0,12,42.31h9.4v2H12A12,12,0,0,1,9.85,20.57a16.51,16.51,0,0,1-.46-3.9,16.67,16.67,0,0,1,31.9-6.76A12,12,0,0,1,60,19.8c0,.26,0,.51,0,.77a12.14,12.14,0,0,1,2.16-.2,12,12,0,0,1,0,23.94Z"/><path class="cls-1" d="M40.67,15.2a14.29,14.29,0,0,0-.74-3.37l1.89-.66A16.58,16.58,0,0,1,42.66,15Z"/><path class="cls-1" d="M58.27,26l-1.71-1A9.9,9.9,0,0,0,57.8,21.7l2,.38A11.8,11.8,0,0,1,58.27,26Z"/><path class="cls-1" d="M14.9,22.81a9.84,9.84,0,0,0-3.7-.41l-.15-2a11.82,11.82,0,0,1,4.43.49Z"/><path class="cls-2" d="M48.58,58.41H25.5a2,2,0,0,1-2-2V38a2,2,0,0,1,2-2H48.58a2,2,0,0,1,2,2V56.41A2,2,0,0,1,48.58,58.41ZM25.5,38V56.41H48.58V38Z"/><path class="cls-2" d="M45.88,38H28.21V29.21a8.84,8.84,0,1,1,17.67,0ZM30.21,36H43.88V29.21a6.84,6.84,0,1,0-13.67,0Z"/></g></g></svg>