<svg xmlns="http://www.w3.org/2000/svg" viewBox="0 0 47.47 63.29"><defs><style>.cls-1{fill:#57b782;}.cls-2{fill:#3c9564;}.cls-3{fill:none;}</style></defs><title>Statistics</title><g id="Lag_2" data-name="Lag 2"><g id="Icons"><path class="cls-1" d="M47.46,11.72a3.07,3.07,0,0,0-1-2.1L37.72,1A2.81,2.81,0,0,0,35.6,0H3.39A3.42,3.42,0,0,0,0,3.44V59.86a3.41,3.41,0,0,0,3.39,3.43H44.06a3.42,3.42,0,0,0,3.41-3.43v-48S47.46,11.77,47.46,11.72Zm-3.82-1.17H36.92V3.91Zm.42,50.1H3.39a.77.77,0,0,1-.75-.79V3.44a.79.79,0,0,1,.75-.8l30.89,0v9.25a1.32,1.32,0,0,0,1.32,1.32h9.23V59.86A.79.79,0,0,1,44.06,60.65Z"/><path class="cls-2" d="M9,39.36a3.63,3.63,0,0,0,3.62-3.63,3.57,3.57,0,0,0-.33-1.49l5.61-6.08a3.64,3.64,0,0,0,3.67-.3l5.31,3.88a3.91,3.91,0,0,0-.12.91,3.63,3.63,0,0,0,7.25,0,3.58,3.58,0,0,0-.67-2.08L37.79,24a3.26,3.26,0,0,0,.9.12,3.61,3.61,0,1,0-3-1.66l-4.46,6.64a3.84,3.84,0,0,0-.76-.08h0a3.59,3.59,0,0,0-1.95.57l-5.41-4a3.61,3.61,0,0,0-3.54-4.37h0a3.62,3.62,0,0,0-3.61,3.62,3.81,3.81,0,0,0,.24,1.31l-5.7,6.19a3.62,3.62,0,1,0-1.4,7Zm21.38-5.73a1,1,0,0,1-1-1,1,1,0,0,1,.16-.54s0,0,0,0h0l.1-.12a1,1,0,0,1,.69-.28h0a1,1,0,1,1,0,2Zm8.28-14.1a1,1,0,1,1-1,1A1,1,0,0,1,38.69,19.53ZM18.81,24.21a1,1,0,0,1,.7-.29h0a1,1,0,0,1,1,1,1,1,0,0,1-.16.54v0a1,1,0,1,1-1.51-1.25ZM9,34.75a1,1,0,1,1-1,1A1,1,0,0,1,9,34.75Z"/><path class="cls-2" d="M6.72,13.22H17.14a1.32,1.32,0,1,0,0-2.63H6.72a1.32,1.32,0,0,0,0,2.63Z"/><path class="cls-2" d="M42,56.38H5.48V43.46H42Zm-34.56-2H40V45.46H7.48Z"/><rect class="cls-2" x="9.63" y="44.18" width="2" height="11.2"/><rect class="cls-2" x="14.05" y="44.18" width="2" height="11.2"/><rect class="cls-2" x="24.83" y="44.18" width="2" height="11.2"/><rect class="cls-2" x="32.16" y="44.18" width="2" height="11.2"/><rect class="cls-2" x="6.2" y="48.78" width="35.45" height="2"/><line class="cls-3" x1="8.04" y1="35.73" x2="19.47" y2="24.28"/></g></g></svg>