<?xml version="1.0" standalone="no"?>
<!DOCTYPE svg PUBLIC "-//W3C//DTD SVG 20010904//EN"
 "http://www.w3.org/TR/2001/REC-SVG-20010904/DTD/svg10.dtd">
<svg version="1.0" xmlns="http://www.w3.org/2000/svg"
 width="15" height="15" viewBox="0 0 512.000000 512.000000"
 preserveAspectRatio="xMidYMid meet">

<g transform="translate(0.000000,512.000000) scale(0.100000,-0.100000)"
fill="#808080" stroke="none">
<path d="M1310 3963 c-161 -12 -374 -70 -514 -140 -398 -199 -674 -556 -767
-994 -32 -148 -32 -390 0 -538 53 -250 157 -459 320 -648 167 -193 380 -335
622 -417 222 -74 136 -70 1577 -73 l1292 -4 0 195 0 195 -1307 3 -1308 3 -90
28 c-422 131 -705 473 -744 898 -45 485 260 925 744 1076 l90 28 1479 3 c1453
2 1481 2 1559 -18 110 -27 198 -79 288 -169 121 -121 179 -261 181 -436 1
-117 -15 -192 -62 -290 -66 -137 -158 -229 -295 -295 -142 -68 -79 -65 -1360
-65 -1158 0 -1160 0 -1205 21 -95 44 -142 122 -142 234 0 112 47 190 142 234
45 21 53 21 1038 24 l992 3 0 189 0 190 -992 0 c-1111 0 -1068 2 -1218 -71
-255 -126 -395 -419 -335 -704 50 -239 251 -440 490 -490 104 -22 2336 -22
2470 0 438 71 779 412 850 850 93 570 -313 1104 -895 1175 -77 9 -2776 12
-2900 3z"/>
</g>
</svg>
