
<svg version="1.1" id="Layer_1" xmlns="http://www.w3.org/2000/svg" xmlns:xlink="http://www.w3.org/1999/xlink" x="0px" y="0px"
	 viewBox="0 0 26 26" style="enable-background:new 0 0 26 26;" xml:space="preserve" height="40" width="27">
<style type="text/css">
	.st0{fill:none;stroke:#000000;stroke-width:2;stroke-miterlimit:10;}
</style>
<path class="st0" d="M1.7,24.9L13,13.6l11.3,11.3c0.2,0.2,0.4,0.2,0.6,0c0.1-0.1,0.1-0.2,0.1-0.3s0-0.2-0.1-0.3L13.6,13l0.2-0.2
	L24.9,1.7c0.2-0.2,0.2-0.4,0-0.6c-0.2-0.2-0.4-0.2-0.6,0L13,12.4L1.7,1.1C1.6,1,1.5,1,1.4,1C1.3,1,1.2,1,1.1,1.1
	C1,1.3,1,1.6,1.1,1.7L12.4,13l-0.2,0.2L1.1,24.3c-0.2,0.2-0.2,0.4,0,0.6C1.3,25,1.6,25,1.7,24.9z"/>
</svg>
