<?xml version="1.0" encoding="UTF-8"?>
<svg width="1440px" height="266px" viewBox="0 0 1440 266" version="1.1" xmlns="http://www.w3.org/2000/svg" xmlns:xlink="http://www.w3.org/1999/xlink">
    <!-- Generator: Sketch 53.2 (72643) - https://sketchapp.com -->
    <title>landscape-far</title>
    <desc>Created with Sketch.</desc>
    <defs>
        <rect id="path-1" x="0" y="0" width="1440" height="266"></rect>
    </defs>
    <g id="Page-1" stroke="none" stroke-width="1" fill="none" fill-rule="evenodd">
        <g id="screen1-copy" transform="translate(0.000000, -734.000000)">
            <g id="Illustration" transform="translate(0.000000, 500.000000)">
                <g id="landscape-far" transform="translate(-0.000000, 234.000000)">
                    <mask id="mask-2" fill="white">
                        <use xlink:href="#path-1"></use>
                    </mask>
                    <g id="Rectangle"></g>
                    <path d="M79.7168614,41.0372121 L89.9654005,11 L99.8027381,42.0620083 L105.965401,24 L113.618112,48.1639146 C118.465726,49.1579141 123.287935,50.1356918 128.084741,51.0972477 L135.965401,28 L139.629521,39.5696879 L145.965401,21 L157.307855,56.8145099 C174.889226,60.1676106 192.11398,63.2929938 208.982117,66.1906594 L219.965401,34 L231.34535,69.9329005 C235.606471,70.6266501 239.843952,71.3053041 244.057792,71.9688625 L254.965401,40 L262.373112,63.3903121 L267.965401,47 L274.563237,67.8330801 L279.965401,52 L288.360776,78.5089243 C315.105716,82.1825973 340.817046,85.1962586 365.494764,87.5499084 L377.965401,51 L386.182987,76.9475442 L391.965401,60 L401.585199,90.3751157 C403.663809,90.4724509 405.762061,90.5574437 407.879146,90.6306993 L416.965401,64 L425.509917,90.9798455 C430.55546,91.0118173 435.687496,90.9913298 440.896464,90.9255541 L444.965401,79 L448.700932,90.7951731 C449.67998,90.7749865 450.661507,90.7533666 451.645453,90.730359 L454.965401,81 L457.994336,90.5640528 C541.19331,88.1587661 640.423339,76.7163096 720,83 C805.739652,89.7703447 887.1859,92.7653519 964.338743,91.9850215 L970.034599,74 L976.120153,91.8360121 C981.844595,91.749023 987.54513,91.6410123 993.221758,91.5119799 L1000.0346,70 L1006.19726,88.0620083 L1016.0346,57 L1027.45369,90.4679475 C1065.9279,88.9904578 1103.26545,86.5134612 1139.46633,83.0369578 L1141.48751,41.5418667 C1140.8288,41.2618222 1140.258,40.8156889 1139.82711,40.2561778 L1114.90213,62.7520889 C1111.37627,61.7089778 1119.27622,50.9260889 1124.25769,45.0797333 C1127.53751,41.2292444 1134.57302,39.1629333 1138.99618,38.2006222 C1138.97902,38.0476 1138.96991,37.8921333 1138.96991,37.7344889 C1138.96991,35.6695556 1140.48311,33.9572444 1142.4628,33.6488 L1135.34947,0.376355556 C1138.01573,-2.15555556 1143.40404,10.0774667 1145.97636,17.3147111 C1147.7124,22.1965778 1145.85644,29.5553778 1144.46449,33.8284444 C1146.08,34.3911556 1147.24004,35.9278222 1147.24004,37.7345333 C1147.24004,38.0750667 1147.19858,38.4058222 1147.12098,38.7223556 L1179.2556,49.1216 C1180.1152,52.6966222 1166.82689,51.2465333 1159.27311,49.8555111 C1154.35249,48.9503111 1149.1064,43.9897778 1146.04622,40.6407111 C1145.69209,40.9991556 1145.27302,41.2933333 1144.80796,41.5038222 L1146.64884,82.3325874 C1172.06436,79.788241 1196.91494,76.74711 1221.20055,73.2091944 L1232.0346,39 L1238.37048,57.5696879 L1242.0346,46 L1249.80346,68.7695741 C1254.67232,67.9665481 1259.51761,67.1427975 1264.33933,66.2983223 L1272.0346,42 L1278.19726,60.0620083 L1288.0346,29 L1298.56928,59.8758498 C1309.97681,57.589619 1321.24603,55.1817586 1332.37693,52.6522686 L1343.0346,19 L1349.25799,37.24 L1355.0346,19 L1360.62689,35.3903121 L1368.0346,12 L1378.05927,41.3810794 C1383.11591,40.0314207 1388.14193,38.6548288 1393.13731,37.2513037 L1403.0346,6 L1411.84629,31.8259871 C1421.34511,28.9844516 1430.72968,26.0424559 1440,23 L1440,368 L-4.54747351e-13,368 L-4.54747351e-13,23 C27.262716,29.453277 53.8350032,35.465681 79.7168614,41.0372121 Z M381.544149,89 C381.714784,89.014544 381.885367,89.0290552 382.055899,89.0435336 L382.070753,89 L381.544149,89 Z" fill="#060F16" mask="url(#mask-2)"></path>
                </g>
            </g>
        </g>
    </g>
</svg>