<?xml version="1.0" encoding="UTF-8"?>
<svg width="1439px" height="376px" viewBox="0 0 1439 376" version="1.1" xmlns="http://www.w3.org/2000/svg" xmlns:xlink="http://www.w3.org/1999/xlink">
    <!-- Generator: Sketch 53.2 (72643) - https://sketchapp.com -->
    <title>Group 2</title>
    <desc>Created with Sketch.</desc>
    <defs>
        <rect id="path-1" x="0" y="0" width="1439" height="376"></rect>
    </defs>
    <g id="Page-1" stroke="none" stroke-width="1" fill="none" fill-rule="evenodd">
        <g id="screen1-copy" transform="translate(-1.000000, -624.000000)">
            <g id="Group-2" transform="translate(1.000000, 624.000000)">
                <mask id="mask-2" fill="white">
                    <use xlink:href="#path-1"></use>
                </mask>
                <g id="Rectangle"></g>
                <g id="landscape-close" mask="url(#mask-2)">
                    <g transform="translate(-77.000000, 0.000000)">
                        <polygon id="tree3" fill="#0D1821" points="0 233 16.1594612 185.548992 26.46558 169.320312 26.46558 155.285872 57.2045435 65.0232845 73.4785156 49.9658203 64.7032591 43.0038863 79.3482512 0 93.2316254 43.9205618 93.2316254 60.8496094 104.040764 78.1156673 124.277757 142.136134 118.5 155.285872 138.51618 187.179906 153 233"></polygon>
                        <polygon id="tree2" fill="#0D1821" transform="translate(638.032558, 240.960281) scale(-1, 1) translate(-638.032558, -240.960281) " points="623.768375 262.003886 628.937691 246.82459 633.390279 239.693848 633.390279 233.749909 638.413367 219 652.296741 262.920562"></polygon>
                        <polygon id="tree1" fill="#0D1821" points="1348 296 1373.94389 219.817775 1383.47367 191.834306 1391.99473 166.812873 1402.87972 152 1399.81234 143.857072 1402.87972 134.849955 1414.0332 120.647461 1410.05119 113.791469 1427.34825 63 1450.96965 137.727169 1450.96965 154 1462.42523 173.967306 1501 296"></polygon>
                        <path d="M76,237.88276 L76,195 C79.2399263,195.680829 82.4750557,196.356408 85.705388,197.026736 L93.055961,175.442347 L110.608398,159 L101.433456,150.842482 L131.348251,63 L160.515778,155.272537 L152.477051,159.51123 L164.025195,166.374707 L170.944732,188.264915 L160.515778,195 L176.898894,207.101123 L179.476161,215.254403 C325.121942,241.596751 460.421604,256.615054 585.375146,260.309312 L593.693412,233.994173 L600.638184,219 L601.780705,208.409724 L606.651749,193 L629.860137,261.149637 C687.534437,261.610967 742.914391,259.561088 796,255 C979.036342,239.273611 1189.34864,221.695661 1426.93688,202.266149 L1466.30109,86.6761974 L1477.22854,66.6015625 L1477.22854,54.5886086 L1489.34825,19 L1499.17825,50.097567 L1501,64.6748047 L1509.22766,81.8892398 L1563,252 L1516,252 L1516,519 L76,519 L76,296 L52,296 L69.8242336,243.660517 L76,237.88276 Z" id="front" fill="#030B11"></path>
                    </g>
                </g>
            </g>
        </g>
    </g>
</svg>