<?xml version="1.0" encoding="UTF-8"?>
<svg width="260px" height="80px" viewBox="0 0 260 80" version="1.1" xmlns="http://www.w3.org/2000/svg" xmlns:xlink="http://www.w3.org/1999/xlink">
    <!-- Generator: Sketch 53.2 (72643) - https://sketchapp.com -->
    <title>Combined Shape</title>
    <desc>Created with Sketch.</desc>
    <g id="Designmanual" stroke="none" stroke-width="1" fill="none" fill-rule="evenodd">
        <g id="Frontpage" transform="translate(-64.000000, -940.000000)" fill="#FFFFFF">
            <g id="Group-4" transform="translate(64.000000, 940.000000)">
                <g id="Group-2-Copy-4">
                    <path d="M15,1.70530257e-13 L64.7997184,1.70530257e-13 C73.0839896,1.69008461e-13 79.7997184,6.71572875 79.7997184,15 L79.7997184,65 C79.7997184,73.2842712 73.0839896,80 64.7997184,80 L15,80 C6.71572875,80 -8.42505977e-14,73.2842712 -8.52651283e-14,65 L-8.52651283e-14,15 C-8.62796589e-14,6.71572875 6.71572875,1.70275696e-13 15,1.687539e-13 Z M26.2365062,59.1692572 C27.7432891,57.6588976 27.7432891,55.2093719 26.2365062,53.6990122 C25.4830852,52.9438619 24.4978606,52.5662573 23.5126949,52.5662573 C22.5178019,52.5662573 21.5325773,52.9438619 20.7792153,53.6990122 C19.9002242,54.5800898 18.1519693,58.4140479 16.1912472,63.7681159 C21.5325772,61.7929893 25.357515,60.0502757 26.2365062,59.1692572 Z M41.9901374,24.3922202 C36.2430918,24.9343991 26.6421626,26.2801255 23.8313955,28.5456944 C20.8757805,30.9177492 18.2872077,34.5193533 17.0412334,36.4170089 L24.0342532,37.3851897 C26.5842116,37.7434118 28.042712,37.9467511 28.8926982,38.101634 C30.6505625,35.991007 34.2533649,32.1376664 41.5361393,24.8375455 C41.6617095,24.7213685 41.8162256,24.5664857 41.9901374,24.3922202 Z M26.5455385,47.2315717 C27.9943705,49.7004208 30.0613849,51.7626507 32.6886312,53.3795552 L36.0595709,50.9784266 C33.3067546,49.0323738 30.8824252,46.6022897 28.9506492,43.8526302 L26.5455385,47.2315717 Z M29.7812987,41.6258263 C31.9352101,45.0337824 34.8714884,47.9770898 38.2714331,50.136114 C38.7157628,50.4265564 38.9958491,50.5814985 39.1600336,50.6686016 C40.3287793,49.9231426 44.6559388,46.0116545 53.6580222,36.9978938 C59.2312149,31.4115308 65.0941622,22.7559923 63.2686197,16.7435684 C63.2492831,16.6660974 63.1817228,16.5983177 63.1044353,16.5693029 C57.1062494,14.7491183 48.4712082,20.6259827 42.8980745,26.2123456 C33.895991,35.2357977 29.9937657,39.5732877 29.2596814,40.7447486 C29.3369689,40.8996907 29.5011534,41.1804418 29.7812987,41.6258263 Z M55.0199573,38.3630618 C47.7950748,45.6050351 43.9605277,49.2163305 41.8452305,50.9978092 C41.9997467,51.8304305 42.2122727,53.3020841 42.5793149,55.9742726 L43.5452029,62.9838919 C45.4383058,61.7349009 49.0314398,59.1401835 51.3978772,56.1775527 C53.6773589,53.3310989 55.0199573,43.5524966 55.5608523,37.8111917 C55.3483262,38.0338543 55.1648052,38.217811 55.0199573,38.3630618 Z M98.0545559,39.8894964 C98.0545559,37.7637127 98.4320726,35.8337538 99.1871175,34.0995618 C99.9421623,32.3653698 100.96422,30.8829376 102.253321,29.6522207 C103.542422,28.4215038 105.070904,27.4705095 106.838814,26.7992094 C108.606724,26.1279093 110.4851,25.7922642 112.473999,25.7922642 C114.462897,25.7922642 116.341273,26.1279093 118.109183,26.7992094 C119.877093,27.4705095 121.405576,28.4215038 122.694676,29.6522207 C123.983777,30.8829376 125.005835,32.3653698 125.76088,34.0995618 C126.515925,35.8337538 126.893441,37.7637127 126.893441,39.8894964 C126.893441,42.0152802 126.515925,43.9545626 125.76088,45.7074018 C125.005835,47.460241 123.983777,48.9613202 122.694676,50.2106843 C121.405576,51.4600484 119.877093,52.4390131 118.109183,53.1476077 C116.341273,53.8562023 114.462897,54.2104942 112.473999,54.2104942 C110.4851,54.2104942 108.606724,53.8562023 106.838814,53.1476077 C105.070904,52.4390131 103.542422,51.4600484 102.253321,50.2106843 C100.96422,48.9613202 99.9421623,47.460241 99.1871175,45.7074018 C98.4320726,43.9545626 98.0545559,42.0152802 98.0545559,39.8894964 Z M104.794679,39.8894964 C104.794679,40.9337411 104.95121,41.9779701 105.264277,43.0222147 C105.577345,44.0664593 106.046939,44.9988067 106.673073,45.8192846 C107.299208,46.6397625 108.091073,47.3110526 109.04869,47.8331749 C110.006308,48.3552972 111.148066,48.6163545 112.473999,48.6163545 C113.799931,48.6163545 114.941689,48.3552972 115.899307,47.8331749 C116.856925,47.3110526 117.648789,46.6397625 118.274924,45.8192846 C118.901059,44.9988067 119.370653,44.0664593 119.68372,43.0222147 C119.996787,41.9779701 120.153319,40.9337411 120.153319,39.8894964 C120.153319,38.8452518 119.996787,37.8103463 119.68372,36.7847489 C119.370653,35.7591515 118.901059,34.8361276 118.274924,34.0156497 C117.648789,33.1951718 116.856925,32.5332052 115.899307,32.0297301 C114.941689,31.526255 113.799931,31.2745212 112.473999,31.2745212 C111.148066,31.2745212 110.006308,31.526255 109.04869,32.0297301 C108.091073,32.5332052 107.299208,33.1951718 106.673073,34.0156497 C106.046939,34.8361276 105.577345,35.7591515 105.264277,36.7847489 C104.95121,37.8103463 104.794679,38.8452518 104.794679,39.8894964 Z M139.655477,26.5754438 L139.655477,30.3235174 L139.821218,30.3235174 C140.152701,29.8013951 140.585464,29.2699572 141.11952,28.7291876 C141.653576,28.1884181 142.307325,27.7035975 143.080785,27.2747113 C143.854246,26.8458251 144.72898,26.4915331 145.705013,26.2118247 C146.681047,25.9321163 147.776766,25.7922642 148.992204,25.7922642 C150.870609,25.7922642 152.601661,26.1558797 154.185414,26.8831215 C155.769166,27.6103633 157.13191,28.6079749 158.273685,29.8759863 C159.41546,31.1439976 160.299402,32.6357533 160.925536,34.3512981 C161.551671,36.0668428 161.864734,37.9128905 161.864734,39.8894964 C161.864734,41.8661024 161.560879,43.7214735 160.95316,45.4556655 C160.345441,47.1898575 159.479914,48.7002601 158.356555,49.9869187 C157.233196,51.2735773 155.870452,52.2991593 154.268284,53.0636956 C152.666116,53.8282318 150.852194,54.2104942 148.826464,54.2104942 C146.948059,54.2104942 145.226215,53.8189084 143.660878,53.0357249 C142.095541,52.2525414 140.889329,51.1896655 140.042205,49.8470652 L139.931712,49.8470652 L139.931712,66.8532501 L133.302083,66.8532501 L133.302083,26.5754438 L139.655477,26.5754438 Z M155.124611,39.8894964 C155.124611,38.8452518 154.96808,37.8103463 154.655012,36.7847489 C154.341945,35.7591515 153.872351,34.8361276 153.246216,34.0156497 C152.620081,33.1951718 151.828217,32.5332052 150.870599,32.0297301 C149.912981,31.526255 148.789639,31.2745212 147.500538,31.2745212 C146.2851,31.2745212 145.198588,31.5355784 144.24097,32.0577008 C143.283352,32.5798231 142.463865,33.2511132 141.782483,34.0715911 C141.101101,34.892069 140.585468,35.8244163 140.23557,36.868661 C139.885671,37.9129056 139.710724,38.9571346 139.710724,40.0013792 C139.710724,41.0456239 139.885671,42.0805294 140.23557,43.1061268 C140.585468,44.1317242 141.101101,45.054748 141.782483,45.875226 C142.463865,46.6957039 143.283352,47.3576705 144.24097,47.8611456 C145.198588,48.3646207 146.2851,48.6163545 147.500538,48.6163545 C148.789639,48.6163545 149.912981,48.3552972 150.870599,47.8331749 C151.828217,47.3110526 152.620081,46.6397625 153.246216,45.8192846 C153.872351,44.9988067 154.341945,44.0664593 154.655012,43.0222147 C154.96808,41.9779701 155.124611,40.9337411 155.124611,39.8894964 Z M164.461338,31.945818 L164.461338,26.5754438 L169.102079,26.5754438 L169.102079,18.7995895 L175.621214,18.7995895 L175.621214,26.5754438 L182.250842,26.5754438 L182.250842,31.945818 L175.621214,31.945818 L175.621214,44.4207496 C175.621214,45.6141721 175.832991,46.6024602 176.256553,47.3856437 C176.680115,48.1688272 177.62851,48.5604131 179.101769,48.5604131 C179.543746,48.5604131 180.022548,48.5137957 180.538188,48.4205596 C181.053829,48.3273234 181.514215,48.1874713 181.919361,48.0009991 L182.140349,53.2594905 C181.551045,53.4832572 180.851258,53.6604032 180.040966,53.7909337 C179.230674,53.9214643 178.457225,53.9867286 177.720596,53.9867286 C175.952686,53.9867286 174.516281,53.7349949 173.411337,53.2315198 C172.306394,52.7280447 171.43166,52.0381077 170.787109,51.1616881 C170.142559,50.2852684 169.700588,49.2783334 169.461183,48.1408526 C169.221779,47.0033718 169.102079,45.7819968 169.102079,44.476691 L169.102079,31.945818 L164.461338,31.945818 Z M183.079546,26.5754438 L190.427385,26.5754438 L197.83047,46.0989916 L197.940964,46.0989916 L204.515346,26.5754438 L211.421209,26.5754438 L198.880161,59.1892786 C198.401353,60.4199955 197.88572,61.5108419 197.333248,62.4618504 C196.780776,63.4128589 196.11782,64.2146776 195.344359,64.8673305 C194.570899,65.5199834 193.659334,66.0141274 192.609638,66.3497775 C191.559941,66.6854276 190.298483,66.8532501 188.825224,66.8532501 C188.272753,66.8532501 187.711081,66.8252797 187.140194,66.769338 C186.569306,66.7133963 185.989219,66.6108381 185.399916,66.4616603 L185.952385,60.643755 C186.394363,60.7929328 186.827126,60.895491 187.250688,60.9514326 C187.674249,61.0073743 188.070181,61.0353447 188.438496,61.0353447 C189.138294,61.0353447 189.727588,60.9514335 190.206397,60.7836084 C190.685206,60.6157834 191.090346,60.3547262 191.421829,60.0004289 C191.753312,59.6461316 192.047959,59.2079284 192.30578,58.685806 C192.5636,58.1636837 192.839831,57.5483345 193.134483,56.8397399 L194.460409,53.4273147 L183.079546,26.5754438 Z M223.369698,18.01641 C223.038215,18.01641 222.743567,17.8858813 222.485747,17.6248202 C222.227927,17.363759 222.099019,17.0094671 222.099019,16.5619336 C222.099019,16.1516947 222.227927,15.8160496 222.485747,15.5549885 C222.743567,15.2939273 223.038215,15.1633987 223.369698,15.1633987 C223.701181,15.1633987 223.995828,15.2939273 224.253648,15.5549885 C224.511469,15.8160496 224.640377,16.1516947 224.640377,16.5619336 C224.640377,17.0094671 224.502261,17.363759 224.226025,17.6248202 C223.949789,17.8858813 223.664349,18.01641 223.369698,18.01641 Z M222.761982,53.4273147 L222.761982,27.6942718 L223.977414,27.6942718 L223.977414,53.4273147 L222.761982,53.4273147 Z M259.611669,40.5048518 C259.611669,42.5187522 259.289399,44.3647999 258.644848,46.0430502 C258.000298,47.7213005 257.088733,49.1664388 255.910126,50.3785085 C254.73152,51.5905782 253.322738,52.5322489 251.683738,53.2035491 C250.044738,53.8748492 248.249231,54.2104942 246.297164,54.2104942 C244.345097,54.2104942 242.558798,53.8748492 240.938214,53.2035491 C239.31763,52.5322489 237.918056,51.5905782 236.739449,50.3785085 C235.560843,49.1664388 234.649278,47.7213005 234.004727,46.0430502 C233.360177,44.3647999 233.037907,42.5187522 233.037907,40.5048518 C233.037907,38.4909514 233.360177,36.6542272 234.004727,34.9946241 C234.649278,33.3350211 235.560843,31.9085297 236.739449,30.7151072 C237.918056,29.5216848 239.31763,28.5893375 240.938214,27.9180373 C242.558798,27.2467372 244.345097,26.9110922 246.297164,26.9110922 C248.249231,26.9110922 250.044738,27.2467372 251.683738,27.9180373 C253.322738,28.5893375 254.73152,29.5216848 255.910126,30.7151072 C257.088733,31.9085297 258.000298,33.3350211 258.644848,34.9946241 C259.289399,36.6542272 259.611669,38.4909514 259.611669,40.5048518 Z M258.396237,40.5048518 C258.396237,38.789307 258.120005,37.1670227 257.567533,35.6379502 C257.015062,34.1088777 256.213989,32.7756211 255.164293,31.6381403 C254.114596,30.5006595 252.84393,29.6056061 251.352256,28.9529532 C249.860582,28.3003003 248.175569,27.9739787 246.297164,27.9739787 C244.41876,27.9739787 242.742954,28.3003003 241.269696,28.9529532 C239.796438,29.6056061 238.534979,30.5006595 237.485283,31.6381403 C236.435586,32.7756211 235.634514,34.1088777 235.082042,35.6379502 C234.52957,37.1670227 234.253339,38.789307 234.253339,40.5048518 C234.253339,42.257691 234.52957,43.8986223 235.082042,45.4276948 C235.634514,46.9567673 236.435586,48.290024 237.485283,49.4275047 C238.534979,50.5649855 239.796438,51.4693624 241.269696,52.1406625 C242.742954,52.8119626 244.41876,53.1476077 246.297164,53.1476077 C248.175569,53.1476077 249.860582,52.8119626 251.352256,52.1406625 C252.84393,51.4693624 254.114596,50.5649855 255.164293,49.4275047 C256.213989,48.290024 257.015062,46.9567673 257.567533,45.4276948 C258.120005,43.8986223 258.396237,42.257691 258.396237,40.5048518 Z" id="Combined-Shape"></path>
                </g>
            </g>
        </g>
    </g>
</svg>