<?xml version="1.0" encoding="UTF-8"?>
<svg width="331px" height="202px" viewBox="0 0 331 202" version="1.1" xmlns="http://www.w3.org/2000/svg" xmlns:xlink="http://www.w3.org/1999/xlink">
    <!-- Generator: Sketch 53.2 (72643) - https://sketchapp.com -->
    <title>Cloud</title>
    <desc>Created with Sketch.</desc>
    <g id="Page-1" stroke="none" stroke-width="1" fill="none" fill-rule="evenodd" opacity="0.550404">
        <g id="screen1" transform="translate(-554.000000, -699.000000)" fill="#060F16">
            <g id="Illustration" transform="translate(0.000000, 500.000000)">
                <g id="Clouds" transform="translate(554.000000, 128.000000)">
                    <path d="M104.237341,109.608314 C108.368297,94.2803974 122.36681,83 139,83 C148.257482,83 156.698829,86.4942907 163.07705,92.2358819 C170.982871,79.4944455 185.071191,71 201.167375,71 C225.941568,71 246.024859,91.0832902 246.024859,115.857483 L246.004989,116.289649 C265.08486,118.981992 279.780152,135.336404 279.780152,155.161388 C279.780152,157.53416 279.535092,159.8407 279.12942,162.097566 C282.449314,161.219988 285.918231,160.711655 289.511333,160.711655 C312.018726,160.711655 330.260758,178.958655 330.260758,201.462736 C330.260758,223.970128 312.018726,242.21216 289.511333,242.21216 C279.929175,242.21216 271.136836,238.883987 264.177477,233.351934 C259.542872,250.029228 244.282949,262.285516 226.125363,262.285516 C209.648422,262.285516 195.535974,252.199992 189.599903,237.865665 C186.192251,238.600844 182.66207,239.006517 179.037507,239.006517 C174.959253,239.006517 171.016775,238.465068 167.218352,237.546094 C158.816785,246.775566 146.742636,252.602353 133.277608,252.602353 C130.520689,252.602353 127.83828,252.31921 125.213825,251.852272 C117.784217,264.482772 104.089032,272.987 88.3721067,272.987 C64.7586347,272.987 45.617499,253.842553 45.617499,230.229081 C45.617499,228.447432 45.7598984,226.702211 45.9718418,224.980171 C44.6521632,225.109324 43.3192381,225.183835 41.9680991,225.183835 C18.7901045,225.183835 -2.84217094e-14,206.393731 -2.84217094e-14,183.219048 C-2.84217094e-14,160.037741 18.7901045,141.249293 41.9680991,141.249293 C42.4482833,141.249293 42.9168768,141.30559 43.3954052,141.322148 C48.3942883,121.371323 66.3896052,106.579993 87.8869551,106.579993 C93.6536883,106.579993 99.1614223,107.655917 104.237341,109.608314 Z" id="Cloud"></path>
                </g>
            </g>
        </g>
    </g>
</svg>