<?xml version="1.0" encoding="UTF-8"?>
<svg width="346px" height="325px" viewBox="0 0 346 325" version="1.1" xmlns="http://www.w3.org/2000/svg" xmlns:xlink="http://www.w3.org/1999/xlink">
    <!-- Generator: Sketch 53.2 (72643) - https://sketchapp.com -->
    <title>Spaceman</title>
    <desc>Created with Sketch.</desc>
    <g id="Page-2" stroke="none" stroke-width="1" fill="none" fill-rule="evenodd">
        <g id="screen2-copy" transform="translate(-837.000000, -1500.000000)">
            <g id="Spaceman" transform="translate(837.000000, 1500.000000)">
                <path d="M35.1844542,160.375412 C23.1468728,151.247766 12.7470063,136.230169 13.2548165,115.921535 C13.8041355,93.9471534 26.552759,90.4199749 41.3148338,86.3348521 C57.0149019,81.9909726 76.5537347,76.5845729 89.0101787,45.9731059 C98.7173317,22.1168082 109.713956,9.0867867 121.694395,7.24476181 C133.046271,5.49977073 140.674206,14.5346952 140.993339,14.919596 L137.958877,17.4387011 C137.893648,17.3616131 131.384298,9.72181898 122.255574,11.1487548 C111.903685,12.7670629 101.670394,25.323236 92.662962,47.4593402 C79.4755301,79.8680887 58.8995138,85.5612772 42.3665723,90.1358815 C28.0309072,94.1024075 17.6730886,96.9681389 17.1970839,116.019646 C16.5722941,140.997224 33.8028008,157.366286 48.7470834,163.793157 C63.402421,170.096042 77.920294,168.618972 86.635007,159.937681 L89.4182597,162.731176 C79.5375239,172.574177 63.3560604,174.369302 47.189691,167.416292 C43.229634,165.712809 39.1186355,163.358123 35.1844542,160.375412" id="Fill-3" fill="#B3B4B5"></path>
                <path d="M97.9626244,288.234687 C97.551309,287.908546 97.1475406,287.588335 96.7491629,287.274053 C102.845042,282.614813 110.849252,275.855331 119.555878,268.213381 C148.600789,242.717751 185.472014,207.388285 185.472014,207.388285 L126.127762,164.655141 L119.793611,156.656861 C106.70483,178.879756 92.3222656,216.114319 82.6771063,243.070846 C78.1682693,255.67338 74.6928422,266.032816 72.8718413,271.556195 L72.842192,271.645682 L59.0477599,293.618446 L105.659022,324.275734 C105.659022,324.275734 123.200576,308.28187 97.9626244,288.234687" id="Fill-4" fill="#DEDEDF"></path>
                <path d="M90.496413,228.069961 C90.496413,228.069961 108.827714,239.739353 132.08348,257.555297 L138.426256,251.548366 C138.426256,251.548366 119.818948,236.938311 93.7195522,219.413468 L90.496413,228.069961" id="Fill-5" fill="#9649CB"></path>
                <path d="M168.125067,174.09006 L100.005186,122.436276 L88.471102,144.137345 C80.1224221,169.166673 65.048761,182.298041 50.7599956,189.158331 L55.9027868,232.889306 C127.555237,238.140451 168.125067,174.09006 168.125067,174.09006" id="Fill-6" fill="#FFFFFF"></path>
                <path d="M25.8153022,196.142608 C25.7026352,196.139912 25.6357897,196.161475 25.6357897,196.161475 L2.36439015,195.667681 L2.84217094e-14,251.407128 C2.84217094e-14,251.407128 22.3032179,258.108389 26.8427823,227.17725 C37.0275572,230.408475 46.7196162,232.215999 55.9027868,232.889306 L50.7599956,189.158331 C41.4059377,193.648839 32.3882637,195.453668 25.8153022,196.142608" id="Fill-7" fill="#6D6E6E"></path>
                <path d="M119.506822,167.476129 L74.523033,133.366055 C66.138774,127.008185 64.4956684,115.056856 70.8535383,106.672057 L142.790621,11.804272 C149.280025,3.24589129 161.477712,1.56936294 170.036093,8.05822846 L208.830205,49.6781796 L119.506822,167.476129" id="Fill-8" fill="#DEDEDF"></path>
                <polyline id="Fill-9" fill="#B3B4B5" points="160.293361 72.3948693 120.009242 41.8475523 123.18656 37.6567705 163.471218 68.2040875 160.293361 72.3948693"></polyline>
                <polyline id="Fill-10" fill="#B3B4B5" points="124.10299 120.121481 83.8183315 89.5747027 86.9961883 85.3839209 127.280847 115.930699 124.10299 120.121481"></polyline>
                <path d="M67.2546627,178.095939 C67.2546627,178.095939 84.9665648,205.739789 85.8414862,231.065071 L95.2543034,228.748119 C95.2543034,228.748119 91.6737564,194.549636 72.6351866,172.67175 L67.2546627,178.095939" id="Fill-11" fill="#9649CB"></path>
                <path d="M261.723326,13.2064104 C225.402499,-14.3355543 195.158143,9.74877281 195.158143,9.74877281 L192.260606,7.5520355 C190.932321,6.54450126 189.038545,6.80487527 188.03155,8.13316012 L162.968798,41.1855662 C161.304669,43.3801472 160.588236,46.149923 160.980684,48.8765727 L161.493346,67.0493853 C161.889567,69.8089186 163.28901,72.3253284 165.423753,74.1182973 L182.550757,88.5040965 C222.653747,123.243813 237.900452,119.410978 237.900452,119.410978 C273.568997,112.350152 304.108766,45.3466988 261.723326,13.2064104" id="Fill-12" fill="#FFFFFF"></path>
                <path d="M272.827227,61.680182 C270.105429,68.4024677 265.419775,75.73391 259.034412,84.1542871 C249.031306,97.3465707 206.215683,95.8053506 180.995521,46.4798379 L179.605243,48.3121594 C176.236014,52.7552291 175.618771,58.7233466 178.055397,63.7389156 C203.103593,115.303753 247.080388,117.095104 257.236053,103.701745 C270.267152,86.5175991 276.231496,73.8649313 272.827227,61.680182" id="Fill-13" fill="#2F2E2E"></path>
                <path d="M259.034412,84.1548262 C265.419775,75.73391 270.105429,68.4024677 272.827227,61.680182 C270.407312,53.0172203 263.253765,44.5898352 250.526705,34.9392852 C219.899065,11.7147853 191.497812,32.6288027 191.497812,32.6288027 L180.995521,46.4798379 C206.215683,95.8053506 249.031306,97.3465707 259.034412,84.1548262" id="Fill-14" fill="#464648"></path>
                <path d="M229.464441,44.6313441 C227.931846,44.6313441 226.40033,44.4027756 224.938354,43.941326 C223.777183,43.575293 222.658599,43.0674828 221.468317,42.8108823 C219.966989,42.4868972 218.412292,42.5742276 216.876463,42.5354141 C213.478662,42.4497009 204.6529,41.90146 205.268525,36.7705285 C205.76771,32.6056224 211.374646,32.0412091 215.417182,32.0412091 C216.369191,32.0412091 217.233331,32.0724756 217.924967,32.0956559 C219.94866,32.1625014 221.972893,32.2293469 223.997126,32.2961924 C228.509197,32.4449776 233.462773,32.7705798 236.724186,35.8929117 C238.156513,37.2643227 239.140867,39.467529 238.224976,41.2270751 C237.693985,42.246469 236.643864,42.8847358 235.593204,43.350498 C233.669778,44.2011609 231.56684,44.6313441 229.464441,44.6313441" id="Fill-15" fill="#C7C7C8"></path>
                <path d="M202.910065,26.9431614 C202.910065,26.9431614 238.217968,9.64796548 270.178205,52.6307024 C276.302654,61.3809944 273.184635,74.1905336 273.184635,74.1905336 C273.184635,74.1905336 281.507439,48.8501579 254.487301,28.4439507 C225.442929,9.2043054 206.790878,24.0855161 202.910065,26.9431614" id="Fill-16" fill="#9649CB"></path>
                <path d="M202.312768,27.2380363 C202.312768,27.2380363 236.430929,12.0048086 268.391165,54.9875455 C274.515615,63.7378375 273.360374,73.3463395 273.360374,73.3463395 C273.360374,73.3463395 279.719861,51.207001 252.699723,30.8007938 C223.65589,11.5611485 206.193581,24.380391 202.312768,27.2380363" id="Fill-17" fill="#9649CB"></path>
                <path d="M202.910065,26.9431614 C202.910065,26.9431614 237.324179,10.826387 269.284955,53.8091239 C275.409404,62.559416 273.449322,72.688127 273.449322,72.688127 C273.449322,72.688127 280.61365,50.0285794 253.593512,29.6223723 C224.549679,10.3827269 206.790878,24.0855161 202.910065,26.9431614" id="Fill-18" fill="#9649CB"></path>
                <path d="M201.512778,34.9198784 C198.559177,38.8147071 193.006688,39.5785787 189.11132,36.6244388 C185.215952,33.6708378 184.45262,28.1183484 187.406221,24.2229806 C190.360361,20.3276128 195.912311,19.5648194 199.807679,22.5178812 C203.703586,25.4720212 204.466918,31.0245106 201.512778,34.9198784" id="Fill-19" fill="#6D6E6E"></path>
                <path d="M201.47073,27.4283303 C201.036235,26.0024726 200.172095,24.6935945 198.893405,23.7237957 C195.664336,21.2753096 191.06116,21.9081855 188.612135,25.1372546 C187.642875,26.4159444 187.163636,27.9091867 187.130213,29.3997336 C187.079001,31.6735589 188.074137,33.9398371 190.025594,35.4190634 C193.255202,37.8675495 197.858378,37.2346735 200.306864,34.0056044 C201.78609,32.0546861 202.133795,29.6045827 201.47073,27.4283303" id="Fill-20" fill="#FFFFFF"></path>
                <path d="M194.454109,36.9101494 C192.909115,36.9101494 191.351184,36.4244413 190.025594,35.4190634 C188.119958,33.974338 187.125901,31.779757 187.128057,29.5598394 C187.128057,29.5064708 187.128596,29.4531022 187.130213,29.3997336 C187.56417,30.8261304 188.428849,32.1344694 189.707539,33.1042683 C191.033667,34.1096462 192.59106,34.5958934 194.136054,34.5958934 C196.353815,34.5953543 198.5457,33.594289 199.988809,31.6908093 C200.958068,30.4121195 201.436768,28.9188772 201.47073,27.4283303 C201.683126,28.1253564 201.791481,28.8504145 201.792559,29.578168 C201.794715,31.1226226 201.312242,32.6794759 200.306864,34.0056044 C198.863756,35.909084 196.67187,36.9101494 194.454109,36.9101494" id="Fill-21" fill="#D5D5D5"></path>
                <path d="M237.900452,119.410978 C237.900452,119.410978 258.351402,163.895043 308.0009,126.158061 L324.441659,141.190213 C324.441659,141.190213 281.693421,210.75428 216.315823,157.666551 L182.688222,205.277261 L185.472014,207.387746 L176.090463,219.761172 L89.1330881,153.822935 L165.823748,68.489259 L210.307814,106.515186 L237.900452,119.410978" id="Fill-22" fill="#FFFFFF"></path>
                <path d="M164.272286,59.5443603 C164.272286,59.5443603 98.6165244,58.0117654 71.5182198,148.81653 L95.2925778,166.844331 C95.2925778,166.844331 117.789324,113.949592 148.764668,101.561072 C151.846569,100.328204 154.582383,98.3632692 156.80877,95.9013062 L174.721208,76.0950913 L164.272286,59.5443603" id="Fill-23" fill="#C8C9CB"></path>
                <path d="M164.272286,59.5443603 C164.272286,59.5443603 95.0812598,55.3309373 67.9829552,146.135702 L91.7578523,164.163503 C91.7578523,164.163503 114.913889,109.717841 146.587337,98.3654255 C148.591624,97.6468364 150.461142,96.5994105 152.086997,95.2253041 L174.721208,76.0950913 L164.272286,59.5443603" id="Fill-24" fill="#FFFFFF"></path>
                <path d="M237.900452,119.410978 C237.900452,119.410978 203.961264,116.139861 179.34972,80.0519139 L176.679674,83.5726234 C176.679674,83.5726234 196.464865,120.217975 240.559178,123.661058 L237.900452,119.410978" id="Fill-25" fill="#C8C9CB"></path>
                <path d="M146.81914,89.3202586 C143.35719,93.8856986 136.848918,94.7805659 132.283478,91.3186157 C127.717499,87.8561264 126.822632,81.3483932 130.285121,76.7824141 C133.747071,72.216974 140.254804,71.3221068 144.820783,74.784596 C149.386762,78.2465462 150.28163,84.7542794 146.81914,89.3202586" id="Fill-26" fill="#DEDEDF"></path>
                <path d="M133.209072,90.0976071 C129.317478,87.1467016 128.555224,81.600142 131.50559,77.7085477 C134.457035,73.8169534 140.003594,73.0546991 143.895189,76.0050655 C147.786783,78.9559711 148.549037,84.5025306 145.598132,88.3941249 C142.647226,92.2857192 137.100667,93.0479735 133.209072,90.0976071 Z" id="Fill-27" fill="#9649CB"></path>
                <path d="M266.398199,141.020404 L263.255382,177.611848 C263.255382,177.611848 254.391884,177.998905 245.505745,174.391943 C245.505745,174.391943 247.601675,167.414135 252.976808,158.720446 C257.340633,151.662855 262.577763,143.671044 265.068836,140.811781 C265.553466,141.020404 266.398199,141.020404 266.398199,141.020404" id="Fill-28" fill="#C8C9CB"></path>
                <polyline id="Fill-29" fill="#C8C9CB" points="317.075177 150.848849 301.121743 130.993039 305.427887 128.058306 321.752206 145.071565 317.075177 150.848849"></polyline>
                <path d="M264.969646,177.885699 C250.769289,177.885699 234.413165,172.517035 216.315823,157.666551 C226.654774,166.061592 236.420686,171.388208 245.547793,174.409194 C252.851203,177.362795 260.128738,177.624247 262.474799,177.624247 C262.978836,177.624247 263.255382,177.611848 263.255382,177.611848 C263.800928,177.627481 264.344317,177.635028 264.883394,177.635028 C289.49386,177.631255 307.634867,161.644398 317.075177,150.84831 L317.075177,150.848849 L317.083263,150.839685 C318.971109,148.679605 320.512869,146.725991 321.686978,145.152426 L321.752206,145.071565 L321.748971,145.068869 C323.521994,142.685612 324.441659,141.190213 324.441659,141.190213 C324.441659,141.190213 302.083995,177.885699 264.969646,177.885699 M324.441659,141.190213 L321.654094,138.641459 L324.441659,141.190213" id="Fill-30" fill="#202028"></path>
                <path d="M264.883394,177.635028 C264.344317,177.635028 263.800928,177.627481 263.255382,177.611848 L263.84082,170.801154 C264.252674,170.810318 264.670458,170.81517 265.086626,170.81517 C279.702072,170.81517 296.68029,165.066996 314.106482,147.154018 L317.075177,150.848849 C307.634867,161.644398 289.49386,177.631255 264.883394,177.635028 M245.547793,174.409194 C236.420686,171.388208 226.654774,166.061592 216.315823,157.666551 L220.32224,152.3836 C220.32224,152.3836 231.160915,163.123624 247.927816,168.207117 C246.23242,171.972028 245.505745,174.391943 245.505745,174.391943 C245.519761,174.397873 245.533777,174.403264 245.547793,174.409194 M317.083263,150.839685 L321.686978,145.152426 C320.512869,146.725991 318.971109,148.679605 317.083263,150.839685 M321.748971,145.068869 L318.820707,142.016617 C319.764091,140.929839 320.710171,139.803708 321.654094,138.641459 L324.441659,141.190213 C324.441659,141.190213 323.521994,142.685612 321.748971,145.068869" id="Fill-31" fill="#D5D5D5"></path>
                <path d="M262.474799,177.624247 C260.128738,177.624247 252.851203,177.362795 245.547793,174.409194 C245.533777,174.403264 245.519761,174.397873 245.505745,174.391943 C245.505745,174.391943 246.23242,171.972028 247.927816,168.207117 C252.776811,169.677718 258.116904,170.673393 263.84082,170.801154 L263.255382,177.611848 C263.255382,177.611848 262.978836,177.624247 262.474799,177.624247" id="Fill-32" fill="#A9AAAC"></path>
                <path d="M317.075177,150.848849 L317.075177,150.848849 L314.106482,147.154018 C315.676812,145.540022 317.244986,143.832767 318.820707,142.016617 L321.748971,145.068869 L321.752206,145.071565 L321.686978,145.152426 L317.083263,150.839685 L317.075177,150.848849" id="Fill-33" fill="#A9AAAC"></path>
                <path d="M118.043768,120.772146 L90.9492373,98.7406229 C90.9492373,98.7406229 96.2462044,90.8463845 101.246679,86.5822883 L120.328914,118.071372 L118.043768,120.772146" id="Fill-34" fill="#C8C9CB"></path>
                <polyline id="Fill-35" fill="#C8C9CB" points="70.4255115 138.399413 95.068322 157.085966 98.5874143 150.376079 73.0966362 131.046947 70.4255115 138.399413"></polyline>
                <polyline id="Fill-36" fill="#C8C9CB" points="105.773845 140.913128 185.59708 201.441192 182.688222 205.277261 102.865526 144.748658 105.773845 140.913128"></polyline>
                <path d="M345.524947,128.187145 L344.735738,126.269111 C344.28507,125.174246 343.115274,124.558081 341.957337,124.806596 L336.236656,125.969923 L342.914738,118.86651 C344.003672,117.912884 344.033322,116.228269 342.97781,115.237446 L341.781598,114.115089 C341.468934,113.821292 341.094815,113.62399 340.699133,113.525339 C340.050084,113.364155 339.343894,113.468736 338.755761,113.857949 L329.61949,119.898303 L338.082994,108.736182 C338.900773,107.658568 338.689455,106.122199 337.611841,105.304959 L336.01833,104.096888 C335.046914,103.359971 333.681972,103.449996 332.815676,104.307667 L324.35918,114.053095 L326.427618,103.68719 C326.853488,102.658632 326.531659,101.471585 325.644878,100.798817 C324.47023,99.908802 322.781303,100.249498 322.044385,101.525493 L315.829371,115.834204 L315.107547,110.65799 C314.940433,109.460701 313.924813,108.564217 312.715664,108.547505 L310.800864,108.521629 C309.455329,108.502762 308.346987,109.573368 308.318955,110.918903 L308.0009,126.158061 L324.441659,141.190213 L344.272133,131.348291 C345.472656,130.803823 346.025749,129.406537 345.524947,128.187145" id="Fill-37" fill="#6D6E6E"></path>
                <path d="M67.9829552,146.135702 C67.9829552,146.135702 53.8413577,157.279494 57.2774322,163.626583 C60.7135067,169.973671 67.2255525,181.384845 78.0690792,183.072155 C82.6124171,183.779424 87.5870163,171.665833 87.5870163,171.665833 C87.5870163,171.665833 89.1282365,176.415637 92.4284636,178.776793 C95.7281518,181.138487 102.545854,177.764407 95.2925778,166.844331 L67.9829552,146.135702" id="Fill-38" fill="#6D6E6E"></path>
                <polyline id="Fill-39" fill="#C8C9CB" points="123.515396 156.574382 120.732144 154.463897 157.028713 106.597665 159.811966 108.70815 123.515396 156.574382"></polyline>
                <polyline id="Fill-40" fill="#C8C9CB" points="200.009833 180.612888 138.476929 133.953109 140.263968 131.596266 201.796872 178.256045 200.009833 180.612888"></polyline>
                <polyline id="Fill-41" fill="#C8C9CB" points="147.564683 175.622655 145.349618 173.943432 163.880916 149.504931 166.095982 151.184155 147.564683 175.622655"></polyline>
                <polyline id="Fill-42" fill="#C8C9CB" points="192.85952 145.728699 185.265547 139.970283 191.023964 132.37631 198.618476 138.134727 192.85952 145.728699"></polyline>
                <polyline id="Fill-43" fill="#C8C9CB" points="198.587209 166.374256 190.993237 160.61584 204.601148 142.671057 212.195121 148.429473 198.587209 166.374256"></polyline>
                <polyline id="Fill-44" fill="#C8C9CB" points="185.011103 156.07951 177.416591 150.321093 183.175547 142.72712 190.768981 148.485537 185.011103 156.07951"></polyline>
                <path d="M173.547099,139.179457 L161.431891,129.992513 C160.416271,129.222172 160.217351,127.774752 160.987153,126.75967 L167.844208,117.71666 C168.614009,116.701039 170.06143,116.50212 171.07705,117.272461 L183.192798,126.459405 C184.208418,127.229206 184.407337,128.676627 183.637536,129.692247 L176.779942,138.734719 C176.010141,139.750339 174.56272,139.949259 173.547099,139.179457" id="Fill-45" fill="#C8C9CB"></path>
                <path d="M72.842192,271.645682 L59.0477599,293.618446 L105.659022,324.275734 C105.659022,324.275734 123.200576,308.28187 97.9626244,288.234687 C97.551309,287.908546 97.1475406,287.588335 96.7491629,287.274053 C102.845042,282.614813 106.922078,279.283859 115.628705,271.64083 L81.1601446,247.334943 C76.6513076,259.937476 74.6928422,266.032816 72.8718413,271.556195 L72.842192,271.645682" id="Fill-46" fill="#6D6E6E"></path>
            </g>
        </g>
    </g>
</svg>