<svg xmlns="http://www.w3.org/2000/svg" viewBox="0 0 54.59 54.59"><defs><style>.cls-1{fill:#3c9564;}.cls-2{fill:#57b782;}</style></defs><title>Startup</title><g id="Lag_2" data-name="Lag 2"><g id="Icons"><path class="cls-1" d="M28.42,36.37a.87.87,0,0,0,.59-.24.83.83,0,0,0,.25-.59.86.86,0,0,0-.25-.6.87.87,0,0,0-.59-.24.84.84,0,0,0-.84.84.83.83,0,0,0,.25.59A.85.85,0,0,0,28.42,36.37Z"/><path class="cls-2" d="M54.59.89a.87.87,0,0,0-.25-.65A.87.87,0,0,0,53.7,0a50.47,50.47,0,0,0-32,14.88,40,40,0,0,0-5.91-.55,11.82,11.82,0,0,0-8,2.57c-2.23,1.85-4.11,4.7-6.26,8.9a.84.84,0,0,0,.09.9.86.86,0,0,0,.66.31.75.75,0,0,0,.21,0c2-.51,3.61-1.13,5.09-1.59a13.55,13.55,0,0,1,4.21-.8,9.78,9.78,0,0,1,2.26.27c-.36.61-.7,1.24-1,1.87a.83.83,0,0,0,.15,1l13.69,13.7a.86.86,0,0,0,.6.24.92.92,0,0,0,.39-.09c.62-.33,1.24-.67,1.85-1A9.92,9.92,0,0,1,30,42.75,13.65,13.65,0,0,1,29.16,47c-.47,1.47-1.08,3.09-1.59,5.09a.84.84,0,0,0,.28.86.87.87,0,0,0,.53.18.85.85,0,0,0,.38-.09c4.2-2.14,7-4,8.89-6.26a11.8,11.8,0,0,0,2.58-8,39.21,39.21,0,0,0-.55-5.86A50.44,50.44,0,0,0,54.59.89Zm-42.79,22a15.12,15.12,0,0,0-4.72.87c-1,.32-2,.68-3.14,1A22.31,22.31,0,0,1,8.87,18.2,10.07,10.07,0,0,1,15.81,16a32.56,32.56,0,0,1,4.5.37,49.13,49.13,0,0,0-5.34,7A12,12,0,0,0,11.8,22.93ZM36.36,45.69a22.25,22.25,0,0,1-6.64,4.92c.35-1.11.71-2.13,1-3.13a15.19,15.19,0,0,0,.88-4.73,12.42,12.42,0,0,0-.43-3.12,48.9,48.9,0,0,0,7-5.33,34.79,34.79,0,0,1,.35,4.45A10.13,10.13,0,0,1,36.36,45.69ZM30,38.39l-.08,0a.83.83,0,0,0-.39.27c-.64.39-1.29.76-1.95,1.12L14.79,27c.4-.73.81-1.45,1.24-2.15l0-.08a49.12,49.12,0,0,1,36.77-23A49.11,49.11,0,0,1,30,38.39Z"/><path class="cls-1" d="M43.58,16.68a5.68,5.68,0,1,0-5.68,5.69h0a5.68,5.68,0,0,0,4-1.67l-.6-.59.6.59A5.67,5.67,0,0,0,43.58,16.68Zm-2.85,2.84a4,4,0,0,1-2.83,1.17,4,4,0,0,1-2.83-6.83,4,4,0,0,1,5.66,5.66Z"/><path class="cls-1" d="M19.05,25.33a.83.83,0,0,0-.59.25.87.87,0,0,0-.24.59.85.85,0,0,0,.24.59.83.83,0,0,0,.59.25.84.84,0,0,0,.84-.84.87.87,0,0,0-.24-.59A.86.86,0,0,0,19.05,25.33Z"/><path class="cls-1" d="M21.39,27.68a.82.82,0,0,0-.59.24.87.87,0,0,0-.24.59.85.85,0,0,0,.24.59.83.83,0,0,0,1.19,0,.85.85,0,0,0,.24-.59.87.87,0,0,0-.24-.59A.83.83,0,0,0,21.39,27.68Z"/><path class="cls-1" d="M26.08,34a.84.84,0,1,0,0-1.67.89.89,0,0,0-.6.24.86.86,0,0,0,0,1.19A.89.89,0,0,0,26.08,34Z"/><path class="cls-1" d="M23.14,31.45a.89.89,0,0,0,.6.24.87.87,0,0,0,.59-.24.89.89,0,0,0,.24-.6.82.82,0,0,0-.83-.83.89.89,0,0,0-.6.24.87.87,0,0,0-.24.59A.89.89,0,0,0,23.14,31.45Z"/><path class="cls-2" d="M4.56,45.25,16.15,33.66A.84.84,0,1,0,15,32.48L3.38,44.06a.84.84,0,0,0,0,1.19.82.82,0,0,0,.59.24A.84.84,0,0,0,4.56,45.25Z"/><path class="cls-2" d="M19.13,35.46a.84.84,0,0,0-1.19,0L.24,53.16a.85.85,0,0,0,0,1.18.83.83,0,0,0,.6.25.81.81,0,0,0,.59-.25l17.7-17.7A.83.83,0,0,0,19.13,35.46Z"/><path class="cls-2" d="M20.93,38.44l-4.8,4.8a.84.84,0,0,0,0,1.19.86.86,0,0,0,1.19,0l4.79-4.8a.84.84,0,1,0-1.18-1.19Z"/></g></g></svg>