<svg xmlns="http://www.w3.org/2000/svg" viewBox="0 0 63.59 63.59"><defs><style>.cls-1{fill:#57b782;}.cls-2{fill:#3c9564;}</style></defs><title>Magic basket</title><g id="Lag_2" data-name="Lag 2"><g id="Icons"><polygon class="cls-1" points="29.21 63.59 1.78 63.59 1.78 17.08 41.34 17.08 41.34 29.21 39.34 29.21 39.34 19.08 3.78 19.08 3.78 61.59 29.21 61.59 29.21 63.59"/><path class="cls-1" d="M63.59,63.59H31V31h32.6Zm-30.6-2h28.6V33H33Z"/><path class="cls-1" d="M47.3,52.46a8.24,8.24,0,0,1-8-8.3V38.94h2v5.22a6.29,6.29,0,0,0,6,6.3,6.28,6.28,0,0,0,5.94-6.3V38.94h2v5.22A8.24,8.24,0,0,1,47.3,52.46Z"/><rect class="cls-1" x="37.55" y="37.94" width="5.56" height="2"/><rect class="cls-1" x="51.46" y="37.94" width="5.56" height="2"/><path class="cls-1" d="M31.6,25h-2V15a8.41,8.41,0,0,0-8-8.36,8.42,8.42,0,0,0-8,8.36V25h-2V15A10.34,10.34,0,0,1,21.57,4.64,10.33,10.33,0,0,1,31.6,15Z"/><rect class="cls-1" x="9.74" y="24.04" width="5.56" height="2"/><rect class="cls-1" x="27.82" y="24.04" width="5.56" height="2"/><rect class="cls-2" x="49.5" y="24.04" width="3.93" height="2" transform="translate(-2.63 43.72) rotate(-45)"/><rect class="cls-2" x="56.45" y="17.08" width="3.93" height="2" transform="translate(4.32 46.6) rotate(-45)"/><rect class="cls-2" x="57.42" y="23.07" width="2" height="3.93" transform="translate(-0.59 48.64) rotate(-45)"/><rect class="cls-2" x="50.46" y="16.11" width="2" height="3.93" transform="translate(2.29 41.69) rotate(-45.01)"/><rect class="cls-2" x="3.17" width="2" height="2.78"/><rect class="cls-2" x="3.17" y="5.56" width="2" height="2.78"/><rect class="cls-2" y="3.17" width="2.78" height="2"/><rect class="cls-2" x="5.56" y="3.17" width="2.78" height="2"/><rect class="cls-2" x="34.77" y="5.95" width="4.17" height="2"/><rect class="cls-2" x="44.51" y="5.95" width="4.17" height="2"/><rect class="cls-2" x="40.73" y="9.74" width="2" height="4.17"/><rect class="cls-2" x="40.73" width="2" height="4.17"/></g></g></svg>