<svg xmlns="http://www.w3.org/2000/svg" viewBox="0 0 43.77 51.51"><defs><style>.cls-1{fill:#57b782;}.cls-2{fill:#3c9564;}</style></defs><title>Stopwatch01</title><g id="Lag_2" data-name="Lag 2"><g id="Description"><path class="cls-1" d="M21.88,51.51a21.87,21.87,0,0,0,15-37.83l-.31-.29L38,11.3a1,1,0,0,0,.16-.75,1,1,0,0,0-.42-.63l-4.5-3a1,1,0,0,0-1.38.27L30.28,9.42l-.38-.15a21.53,21.53,0,0,0-5.54-1.38l-.44,0V4.4H27V1a1,1,0,0,0-1-1H17.79a1,1,0,0,0-1,1V4.4h3.06V7.84l-.45,0a21.88,21.88,0,0,0,2.48,43.62Zm0-40A18.15,18.15,0,1,1,3.73,29.63,18.18,18.18,0,0,1,21.88,11.48Z"/><path class="cls-2" d="M29.34,20l-9.43,8.17a2.48,2.48,0,0,0-.27.28,2.45,2.45,0,0,0-.56,1.78,2.45,2.45,0,0,0,2.43,2.22,2.44,2.44,0,0,0,1.88-.88l8-9.58a1.44,1.44,0,0,0-.09-1.93A1.5,1.5,0,0,0,29.34,20Z"/></g></g></svg>