<svg xmlns="http://www.w3.org/2000/svg" viewBox="0 0 54.43 64.66"><defs><style>.cls-1{fill:#57b782;}.cls-2{fill:#3c9564;}</style></defs><title>MakeShift</title><g id="Lag_2" data-name="Lag 2"><g id="Icons"><path class="cls-1" d="M47.15,64.66H4a4,4,0,0,1-4-4V10.78a4,4,0,0,1,4-4H9.43V9.43H4a1.35,1.35,0,0,0-1.35,1.35V60.62A1.35,1.35,0,0,0,4,62H47.15a1.34,1.34,0,0,0,1.34-1.34V45.11h2.7V60.62A4,4,0,0,1,47.15,64.66Z"/><path class="cls-1" d="M51.19,20.91h-2.7V10.78a1.34,1.34,0,0,0-1.34-1.35H41.76V6.74h5.39a4,4,0,0,1,4,4Z"/><polygon class="cls-1" points="45.8 59.27 5.39 59.27 5.39 12.12 9.43 12.12 9.43 14.82 8.08 14.82 8.08 56.58 43.11 56.58 43.11 51.49 45.8 51.49 45.8 59.27"/><polygon class="cls-1" points="45.8 26.29 43.11 26.29 43.11 14.82 41.76 14.82 41.76 12.12 45.8 12.12 45.8 26.29"/><path class="cls-1" d="M40.41,16.16H10.78V10.78a5.39,5.39,0,0,1,5.39-5.39H19a6.74,6.74,0,0,1,13.2,0H35a5.4,5.4,0,0,1,5.39,5.39ZM13.47,13.47H37.72V10.78A2.7,2.7,0,0,0,35,8.08H29.64V6.74a4,4,0,1,0-8.09,0V8.08H16.17a2.7,2.7,0,0,0-2.7,2.7Z"/><rect class="cls-1" x="24.25" y="5.39" width="2.69" height="2.69"/><rect class="cls-2" x="39.33" y="28.66" width="13.86" height="1"/><path class="cls-2" d="M53.56,30H39V28.28H53.56ZM39.7,29.28H52.81V29H39.7Z"/><polygon class="cls-2" points="53.9 29.16 47.89 35.17 47.18 34.46 52.48 29.16 47.18 23.85 47.89 23.15 53.9 29.16"/><path class="cls-2" d="M54.43,29.16,47.89,35.7l-1.24-1.24,5.3-5.3-5.3-5.31,1.24-1.23Zm-6.54,5.48,5.48-5.48-5.48-5.48-.18.17L53,29.16l-5.3,5.3Z"/><rect class="cls-2" x="39.76" y="41.74" width="13.86" height="1"/><path class="cls-2" d="M54,43.11H39.38V41.36H54Zm-13.87-.75H53.25v-.25H40.13Z"/><polygon class="cls-2" points="45.77 47.54 45.06 48.25 39.05 42.24 45.06 36.23 45.77 36.93 40.47 42.24 45.77 47.54"/><path class="cls-2" d="M46.3,47.54l-1.24,1.24-6.54-6.54,6.54-6.54,1.24,1.23L41,42.24Zm-1.24.18.18-.18-5.31-5.3,5.31-5.31-.18-.17-5.48,5.48Z"/></g></g></svg>