<svg xmlns="http://www.w3.org/2000/svg" viewBox="0 0 82.82 72.28"><defs><style>.cls-1{fill:#57b782;}.cls-2{fill:#3c9564;}</style></defs><title>DesktopResponsive</title><g id="Lag_2" data-name="Lag 2"><g id="Description"><path class="cls-1" d="M80.82,61.73H2a2,2,0,0,1-2-2V2A2,2,0,0,1,2,0H80.82a2,2,0,0,1,2,2V59.73A2,2,0,0,1,80.82,61.73ZM2,2V59.73H80.82V2Z"/><rect class="cls-1" x="49.19" y="64.25" width="2" height="7.03"/><rect class="cls-1" x="33.38" y="64.25" width="2" height="7.03"/><rect class="cls-1" x="27.35" y="70.28" width="29.87" height="2"/><rect class="cls-1" x="1" y="49.19" width="80.82" height="2"/><rect class="cls-1" x="39.65" y="54.46" width="5.27" height="2"/><rect class="cls-2" x="47.8" y="25.56" width="1.03" height="13.55" transform="translate(-8.71 43.64) rotate(-45)"/><path class="cls-2" d="M52.75,38.2,42.46,27.91l1.43-1.44L54.18,36.76ZM43.87,27.91l8.88,8.87,0,0-8.88-8.88Z"/><rect class="cls-2" x="35.74" y="13.49" width="1.03" height="13.55" transform="translate(-3.71 31.57) rotate(-45)"/><path class="cls-2" d="M40.68,26.13,30.39,15.84l1.44-1.44L42.12,24.7ZM31.81,15.84l8.87,8.88,0,0-8.87-8.88Z"/><polygon class="cls-2" points="31.98 23.72 30.95 23.72 30.95 14.96 39.71 14.96 39.71 15.99 31.98 15.99 31.98 23.72"/><path class="cls-2" d="M32.48,24.22h-2V14.46h9.76v2H32.48Zm-1-1h0V15.49l7.73,0H31.45Z"/><polygon class="cls-2" points="53.63 37.64 44.87 37.64 44.87 36.61 52.6 36.61 52.6 28.88 53.63 28.88 53.63 37.64"/><path class="cls-2" d="M54.13,38.14H44.36v-2H52.1V28.38h2Zm-8.77-1h7.77l0-7.76v7.73Z"/></g></g></svg>