<svg xmlns="http://www.w3.org/2000/svg" viewBox="0 0 57.88 57.88"><defs><style>.cls-1{fill:#3c9564;}.cls-2{fill:#57b782;}</style></defs><title>Shift</title><g id="Lag_2" data-name="Lag 2"><g id="Icons"><path class="cls-1" d="M56.47,52.8H28.23a23.86,23.86,0,0,1-5.61-47l.47,1.94A21.86,21.86,0,0,0,28.23,50.8H56.47Z"/><path class="cls-2" d="M40.87,49.18,39.8,47.49A21.86,21.86,0,0,0,28.23,7.08H26.89v-2h1.34a23.86,23.86,0,0,1,12.64,44.1Z"/><rect class="cls-2" y="50.8" width="14.79" height="2"/><polygon class="cls-1" points="51.8 57.88 50.38 56.47 55.05 51.8 50.38 47.13 51.8 45.71 57.88 51.8 51.8 57.88"/><polygon class="cls-2" points="31.56 12.17 25.48 6.08 31.56 0 32.98 1.41 28.3 6.08 32.98 10.76 31.56 12.17"/></g></g></svg>