<svg xmlns="http://www.w3.org/2000/svg" viewBox="0 0 79.44 72.5"><defs><style>.cls-1{fill:#3c9564;}.cls-2{fill:#57b782;}</style></defs><title>AddMoreStores</title><g id="Lag_2" data-name="Lag 2"><g id="Icons"><path class="cls-1" d="M71.13,23.07h-5.8V14.35H57V8.63h8.32V0h5.8V8.63h8.31v5.72H71.13Zm-3.8-2h1.8V12.35h8.31V10.63H69.13V2h-1.8v8.63H59v1.72h8.32Z"/><path class="cls-2" d="M70.86,70.5H66.23V41.08a1,1,0,0,0-2,0V70.5H30.17V41.08a1,1,0,0,0-2,0V70.5H7.63V41.08a1,1,0,0,0-2,0V70.5H1a1,1,0,0,0,0,2H70.86a1,1,0,1,0,0-2Z"/><path class="cls-2" d="M22.41,46.84a1,1,0,1,0,0,2h2.25a1,1,0,0,0,0-2Z"/><path class="cls-2" d="M59.17,50.51a1,1,0,0,0-1.41,0L44.24,64a1,1,0,0,0,1.41,1.42L59.17,51.92A1,1,0,0,0,59.17,50.51Z"/><path class="cls-2" d="M57.76,57.26,51,64a1,1,0,0,0,0,1.41,1,1,0,0,0,1.41,0l6.76-6.76a1,1,0,0,0-1.41-1.41Z"/><path class="cls-2" d="M70.71,25.18a.4.4,0,0,0,0-.11l-.19-.77H57.08L56,16.65H54.91V9.11L54,2.64h8.63v-2H7.76a1,1,0,0,0-1,.77L1.15,25.07a.4.4,0,0,0,0,.11s0,.08,0,.12v4.51a7.76,7.76,0,0,0,14.52,3.81,7.76,7.76,0,0,0,13.52,0,7.77,7.77,0,0,0,13.53,0,7.76,7.76,0,0,0,13.52,0,7.76,7.76,0,0,0,14.52-3.81h0V25.3A.5.5,0,0,0,70.71,25.18ZM52,2.64l3.1,21.66H43.65l-1-21.66Zm-20.71,0h9.36l1,21.66H30.22Zm-2,0-1,21.66H16.8L19.9,2.64Zm-20.7,0h9.33L14.78,24.3H3.39ZM63,35.57A5.77,5.77,0,0,1,57.22,30v-.2a1,1,0,0,0-2,0,1.34,1.34,0,0,0,0,.2A5.76,5.76,0,0,1,43.7,30v-.21a1,1,0,0,0-2,0V30a5.76,5.76,0,0,1-11.52,0,1.48,1.48,0,0,0,0-.21,1,1,0,0,0-2,0V30a5.76,5.76,0,0,1-11.52,0c0-.07,0-.14,0-.21a1,1,0,0,0-2,0V30a5.76,5.76,0,0,1-11.52-.21V26.3H68.74v3.51A5.76,5.76,0,0,1,63,35.57Z"/></g></g></svg>