<svg xmlns="http://www.w3.org/2000/svg" viewBox="0 0 60 49.69"><defs><style>.cls-1{fill:#57b782;}.cls-2{fill:#3c9564;}</style></defs><title>Megaphone</title><g id="Lag_2" data-name="Lag 2"><g id="Icons"><path class="cls-1" d="M54.84,45.82h-1c-11.33,0-19.79-11.52-20.14-12l1.62-1.17c.08.1,7.7,10.47,17.52,11.15V2C43,2.71,35.4,13.08,35.32,13.19L33.7,12c.35-.49,8.81-12,20.14-12h1Z"/><path class="cls-1" d="M35.51,35.51H13.89a10,10,0,0,1-10-10V21.62a10,10,0,0,1,10-10H35.51ZM13.89,13.6a8,8,0,0,0-8,8v3.87a8,8,0,0,0,8,8H33.51V13.6Z"/><path class="cls-2" d="M12,21,10.6,19.63c1.69-1.68,3.09-2.87,5.87-2.87H30.64v2H16.47C14.52,18.76,13.57,19.49,12,21Z"/><path class="cls-1" d="M25.49,42H22.91V40h2.58a1.58,1.58,0,0,0,1.58-1.58V34.51h2v3.87A3.59,3.59,0,0,1,25.49,42Z"/><path class="cls-1" d="M22.91,49.69H16.47a2.3,2.3,0,0,1-2.29-2.29V46.32l-3.87-8.74V34.51h2v2.65l3.87,8.74v1.5a.29.29,0,0,0,.29.29h6.44a.29.29,0,0,0,.29-.29V46.32l-3.87-9V34.51h2v2.37l3.87,9V47.4A2.3,2.3,0,0,1,22.91,49.69Z"/><path class="cls-1" d="M52.65,31.14v-2A5.51,5.51,0,0,0,58,23.5a5.51,5.51,0,0,0-5.35-5.65v-2A7.51,7.51,0,0,1,60,23.5,7.51,7.51,0,0,1,52.65,31.14Z"/><path class="cls-1" d="M4.87,29.07H2.29A2.3,2.3,0,0,1,0,26.78V20.33A2.3,2.3,0,0,1,2.29,18H4.87v2H2.29a.29.29,0,0,0-.29.29v6.45a.29.29,0,0,0,.29.29H4.87Z"/></g></g></svg>