<svg xmlns="http://www.w3.org/2000/svg" viewBox="0 0 73.5 61.07"><defs><style>.cls-1{fill:#3c9564;}.cls-2{fill:#57b782;}</style></defs><title>Add groups</title><g id="Lag_2" data-name="Lag 2"><g id="Icons"><path class="cls-1" d="M55.4,61.07A18.1,18.1,0,1,1,73.5,43,18.12,18.12,0,0,1,55.4,61.07Zm0-34.2A16.1,16.1,0,1,0,71.5,43,16.12,16.12,0,0,0,55.4,26.87Z"/><rect class="cls-1" x="54.4" y="33.64" width="2" height="18.65"/><rect class="cls-1" x="46.08" y="41.97" width="18.65" height="2"/><path class="cls-2" d="M20.65,50.74h-2V33.64c0-6.3,11.89-10.32,18.1-10.32a25.5,25.5,0,0,1,6.48,1l-.53,1.93a23.24,23.24,0,0,0-6-.92c-6.06,0-16.1,3.89-16.1,8.32Z"/><path class="cls-2" d="M36.75,20.65A8.58,8.58,0,0,1,28,11.88V8.77A8.58,8.58,0,0,1,36.75,0a8.58,8.58,0,0,1,8.77,8.77v3.11A8.58,8.58,0,0,1,36.75,20.65ZM36.75,2A6.55,6.55,0,0,0,30,8.77v3.11a6.55,6.55,0,0,0,6.77,6.77,6.55,6.55,0,0,0,6.77-6.77V8.77A6.55,6.55,0,0,0,36.75,2Z"/><path class="cls-2" d="M2,49.18H0V36.75c0-6,10.88-10.33,16.54-10.33H18.1v2H16.54C11.2,28.42,2,32.54,2,36.75Z"/><path class="cls-2" d="M15,23.76A8.58,8.58,0,0,1,6.22,15V11.88A8.58,8.58,0,0,1,15,3.11a8.58,8.58,0,0,1,8.77,8.77V15A8.58,8.58,0,0,1,15,23.76ZM15,5.11a6.55,6.55,0,0,0-6.77,6.77V15A6.55,6.55,0,0,0,15,21.76,6.55,6.55,0,0,0,21.76,15V11.88A6.55,6.55,0,0,0,15,5.11Z"/></g></g></svg>