<svg xmlns="http://www.w3.org/2000/svg" viewBox="0 0 41.25 58.42"><defs><style>.cls-1{fill:#57b782;}.cls-2{fill:#3c9564;}</style></defs><title>GetWorkingHours_1</title><g id="Lag_2" data-name="Lag 2"><g id="Icons"><polygon class="cls-1" points="41.25 58.42 0 58.42 0 6.72 6.72 0 41.25 0 41.25 52.39 39.25 52.39 39.25 2 7.55 2 2 7.54 2 56.42 39.25 56.42 39.25 51.28 41.25 51.28 41.25 58.42"/><polygon class="cls-1" points="10.59 10.59 3.45 10.59 3.45 8.59 8.59 8.59 8.59 3.45 10.59 3.45 10.59 10.59"/><path class="cls-2" d="M28.54,22.82h0l-.14-.14.73-1.07a.55.55,0,0,0-.15-.78l-2.37-1.61a.56.56,0,0,0-.42-.08.54.54,0,0,0-.35.23L25,20.55l-.17-.07a11.87,11.87,0,0,0-2.93-.73l-.21,0V18h1.61V16.15a.56.56,0,0,0-.55-.56H18.46a.56.56,0,0,0-.56.56V18h1.62v1.75l-.21,0A11.57,11.57,0,1,0,32.2,31.25,11.43,11.43,0,0,0,28.54,22.82Zm-7.92,18a9.54,9.54,0,1,1,9.54-9.54A9.55,9.55,0,0,1,20.62,40.79Z"/><path class="cls-2" d="M25.6,26.17A.83.83,0,0,0,25,26a.82.82,0,0,0-.51.17l-5,4.31-.14.15a1.32,1.32,0,0,0,2,1.69l4.21-5.05A.8.8,0,0,0,25.6,26.17Z"/></g></g></svg>