<svg xmlns="http://www.w3.org/2000/svg" viewBox="0 0 59.88 67.54"><defs><style>.cls-1{fill:#57b782;}.cls-2{fill:#3c9564;}</style></defs><title>CreateAbsence</title><g id="Lag_2" data-name="Lag 2"><g id="Icons"><path class="cls-1" d="M48.74,58.25a26.83,26.83,0,0,1-2.19,1.8v.76h2.19Z"/><path class="cls-1" d="M13.34,60.05a25.37,25.37,0,0,1-2.2-1.8v2.56h2.2Z"/><polygon class="cls-1" points="10.85 59.72 9.4 58.34 49.69 15.67 51.23 16.97 10.85 59.72"/><polyline class="cls-1" points="49.69 15.67 50.01 18.18 10.85 59.72 9.4 58.34"/><path class="cls-2" d="M13.34,51.26V34.89c0-4.56,10.35-8.56,16.6-8.56a24.09,24.09,0,0,1,6.08.92l1.68-1.78a27.87,27.87,0,0,0-7.76-1.33c-6.45,0-18.8,4.19-18.8,10.75V53.58Z"/><path class="cls-2" d="M43.55,28,42,29.63c2.64,1.48,4.53,3.32,4.53,5.26V57.51a26.67,26.67,0,0,0,2.19-2.06V34.89C48.74,32.13,46.56,29.8,43.55,28Z"/><path class="cls-1" d="M29.94,21.51a9,9,0,0,1-9.14-9.15V9.14A8.94,8.94,0,0,1,29.94,0a9,9,0,0,1,9.15,9.14v3.22A9,9,0,0,1,29.94,21.51Zm0-19.32a6.73,6.73,0,0,0-7,7v3.22a6.72,6.72,0,0,0,7,7,6.72,6.72,0,0,0,7-6.95V9.14A6.72,6.72,0,0,0,29.94,2.19Z"/><path class="cls-2" d="M29.94,0A8.94,8.94,0,0,0,20.8,9.14v3.22a9,9,0,0,0,9.14,9.15,9,9,0,0,0,9.15-9.15V9.14A9,9,0,0,0,29.94,0Zm7,12.36a6.72,6.72,0,0,1-6.95,7,6.72,6.72,0,0,1-7-6.95V9.14a6.73,6.73,0,0,1,7-7,6.72,6.72,0,0,1,7,7Z"/><path class="cls-1" d="M41.09,9.81V12A27.95,27.95,0,1,1,18.8,12V9.81a29.94,29.94,0,1,0,22.29,0Z"/></g></g></svg>