<svg xmlns="http://www.w3.org/2000/svg" viewBox="0 0 39.07 51.4"><defs><style>.cls-1{fill:#3c9564;}.cls-2{fill:#57b782;}</style></defs><title>Logud</title><g id="Lag_2" data-name="Lag 2"><g id="Description"><path class="cls-1" d="M20.58,41.83V35.56l.34-.11a4.15,4.15,0,0,0,2.85-3.89,4,4,0,0,0-4-4.13,4.22,4.22,0,0,0-4.2,4.13,5,5,0,0,0,2.65,3.91l.28.14v6.22a1,1,0,1,0,2.08,0ZM17.8,31.56a2,2,0,1,1,2,2A2.05,2.05,0,0,1,17.8,31.56Z"/><path class="cls-2" d="M22.93,0H16.76C10.92,0,6.17,4.48,6.17,10v8.28l-.4.09a7.4,7.4,0,0,0-5.77,7V43.9a7.7,7.7,0,0,0,7.52,7.5H32.17c3.81,0,6.9-3.36,6.9-7.5V25.39a7.41,7.41,0,0,0-5.22-6.89H14.66l.06-4.9v-1c0-2,0-3.36.59-3.94a2,2,0,0,1,1.45-.42h6.17a2,2,0,0,1,1.4.35c.4.41.4,1.42.36,3l0,2.77h8.25V10A9.76,9.76,0,0,0,22.93,0Zm8.94,20.58c2.42,0,5.12,2,5.12,4.81V43.9c0,2.61-1.84,5.42-4.82,5.42H7.52A5.73,5.73,0,0,1,2.08,43.9V25.39c0-2.83,2.7-4.81,5.13-4.81Zm-1-8.25H26.75l0-.63c.05-1.87.09-3.48-.95-4.55a3.83,3.83,0,0,0-2.89-1H16.76a4,4,0,0,0-2.93,1.07c-1.23,1.24-1.21,3.29-1.19,5.47v.87l-.07,4.92H8.25V10c0-4.35,3.82-7.9,8.51-7.9h6.17a7.64,7.64,0,0,1,7.9,7.9Z"/></g></g></svg>