<svg xmlns="http://www.w3.org/2000/svg" viewBox="0 0 92.93 40.06"><defs><style>.cls-1{fill:#3c9564;}.cls-2{fill:#57b782;}</style></defs><title>Send</title><g id="Lag_2" data-name="Lag 2"><g id="Description"><path class="cls-1" d="M23.8,29.85H1.2a1.2,1.2,0,1,0,0,2.4H23.8a1.2,1.2,0,0,0,0-2.4Z"/><path class="cls-1" d="M23.8,18.41H5.94a1.2,1.2,0,0,0,0,2.4H23.8a1.2,1.2,0,0,0,0-2.4Z"/><path class="cls-2" d="M89.11,0h-55a3.82,3.82,0,0,0-3.82,3.82V36.24a3.82,3.82,0,0,0,3.82,3.82h55a3.82,3.82,0,0,0,3.82-3.82V3.82A3.82,3.82,0,0,0,89.11,0Zm1.42,36.24a1.41,1.41,0,0,1-.86,1.31,1.33,1.33,0,0,1-.56.11h-55a1.33,1.33,0,0,1-.56-.11,1.41,1.41,0,0,1-.86-1.31V3.82a1.41,1.41,0,0,1,.86-1.31,1.33,1.33,0,0,1,.56-.11h55a1.33,1.33,0,0,1,.56.11,1.41,1.41,0,0,1,.86,1.31Z"/><path class="cls-2" d="M85.85,4.39,62.89,23a2.09,2.09,0,0,1-2.54,0L37.71,4.66a1.17,1.17,0,0,0-.88-.26,1.19,1.19,0,0,0-.81.43,1.23,1.23,0,0,0-.26.65,1.21,1.21,0,0,0,.44,1L53.31,20.38l-17,13.13a1.18,1.18,0,0,0-.47,1,1.16,1.16,0,0,0,.25.65,1.24,1.24,0,0,0,1,.5.9.9,0,0,0,.28,0,.93.93,0,0,0,.4-.19L55.25,22l3.61,2.92a4.56,4.56,0,0,0,5.52,0L67.93,22,84.75,35l.7.49a1.26,1.26,0,0,0,1.68-.25,1.25,1.25,0,0,0,.25-.67,1.22,1.22,0,0,0-.47-1l-17-13.1L87.36,6.25a1.12,1.12,0,0,0,.31-.37,1.8,1.8,0,0,0,.08-.21,1.38,1.38,0,0,0,0-.45,1.17,1.17,0,0,0-.26-.65A1.21,1.21,0,0,0,85.85,4.39Z"/><path class="cls-1" d="M23.8,7.53H10.68a1.2,1.2,0,0,0,0,2.4H23.8a1.2,1.2,0,0,0,0-2.4Z"/></g></g></svg>