<svg xmlns="http://www.w3.org/2000/svg" viewBox="0 0 53.86 64.5"><defs><style>.cls-1{fill:#3c9564;}.cls-2{fill:#57b782;}</style></defs><title>Basket 02</title><g id="Lag_2" data-name="Lag 2"><g id="Description"><path class="cls-1" d="M51.53,53.86H2.33a1,1,0,1,1,0-2h49.2a1,1,0,0,1,0,2Z"/><path class="cls-2" d="M40.89,20.62a1,1,0,0,1-1-1V5.49L36.57,3V19.62a1,1,0,0,1-2,0V1a1,1,0,0,1,.56-.89,1,1,0,0,1,1,.09l5.32,4a1,1,0,0,1,.4.8V19.62A1,1,0,0,1,40.89,20.62Z"/><path class="cls-2" d="M18.29,20.62a1,1,0,0,1-1-1V3L14,5.49V19.62a1,1,0,0,1-2,0V5a1,1,0,0,1,.4-.8l5.32-4a1,1,0,0,1,1-.09,1,1,0,0,1,.56.89V19.62A1,1,0,0,1,18.29,20.62Z"/><path class="cls-2" d="M52.86,64.5H1a1,1,0,0,1-1-1.13L1.33,53.14V19.62a1,1,0,0,1,1-1H13a1,1,0,1,1,0,2H3.33V53.21a.49.49,0,0,1,0,.12L2.14,62.5H51.72l-1.18-9.17s0-.08,0-.12V20.62H40.89a1,1,0,0,1,0-2H51.53a1,1,0,0,1,1,1V53.14l1.32,10.23a1,1,0,0,1-1,1.13Z"/><path class="cls-2" d="M35.57,20.62H18.29a1,1,0,0,1,0-2H35.57a1,1,0,0,1,0,2Z"/><path class="cls-2" d="M35.57,7.32H18.29a1,1,0,0,1-1-1V1a1,1,0,0,1,1-1H35.57a1,1,0,0,1,1,1V6.32A1,1,0,0,1,35.57,7.32Zm-16.28-2H34.57V2H19.29Z"/></g></g></svg>