<svg xmlns="http://www.w3.org/2000/svg" viewBox="0 0 62.66 40.06"><defs><style>.cls-1{fill:#57b782;}.cls-2{fill:#3c9564;}</style></defs><title>Mail</title><g id="Lag_2" data-name="Lag 2"><g id="Description"><path class="cls-1" d="M58.84,0h-55A3.82,3.82,0,0,0,0,3.82V36.24a3.82,3.82,0,0,0,3.82,3.82h55a3.82,3.82,0,0,0,3.82-3.82V3.82A3.82,3.82,0,0,0,58.84,0Zm1.42,36.24a1.41,1.41,0,0,1-.62,1.18,1.19,1.19,0,0,1-.25.13,1.26,1.26,0,0,1-.55.11h-55a1.33,1.33,0,0,1-.56-.11,1.41,1.41,0,0,1-.86-1.31V3.82a1.41,1.41,0,0,1,.86-1.31,1.33,1.33,0,0,1,.56-.11h55a1.26,1.26,0,0,1,.55.11,1.19,1.19,0,0,1,.25.13,1.41,1.41,0,0,1,.62,1.18Z"/><path class="cls-2" d="M55.58,4.39,32.62,23a2.09,2.09,0,0,1-2.54,0L7.44,4.66a1.17,1.17,0,0,0-.88-.26,1.19,1.19,0,0,0-.81.43,1.23,1.23,0,0,0-.26.65,1.21,1.21,0,0,0,.44,1L23,20.38,6,33.51a1.19,1.19,0,0,0-.46,1,1.16,1.16,0,0,0,.25.65,1.24,1.24,0,0,0,1,.5,1,1,0,0,0,.28,0,.93.93,0,0,0,.4-.19L25,22l3.61,2.92a4.56,4.56,0,0,0,5.52,0L37.66,22,54.48,35l.7.49a1.26,1.26,0,0,0,1.68-.25,1.16,1.16,0,0,0,.24-.67,1.18,1.18,0,0,0-.46-1l-17-13.1L57.09,6.25a1.09,1.09,0,0,0,.3-.37,1,1,0,0,0,.09-.21,1.38,1.38,0,0,0,.05-.45,1.17,1.17,0,0,0-.26-.65A1.21,1.21,0,0,0,55.58,4.39Z"/></g></g></svg>