<svg xmlns="http://www.w3.org/2000/svg" viewBox="0 0 57.5 64.44"><defs><style>.cls-1{fill:#57b782;}.cls-2{fill:#3c9564;}</style></defs><title>Datasecure</title><g id="Lag_2" data-name="Lag 2"><g id="Icons"><path class="cls-1" d="M21.12,24.2C13.27,24.2,0,23.11,0,19V6.55H2V19c.35,1.08,7.24,3.16,19.12,3.16S39.88,20.12,40.24,19V6.55h2V19C42.24,23.11,29,24.2,21.12,24.2Z"/><path class="cls-1" d="M21.12,36.69C13.27,36.69,0,35.6,0,31.52V20.42H2v11.1c.35,1.09,7.24,3.17,19.12,3.17A86,86,0,0,0,31.4,34.1l.25,2A86,86,0,0,1,21.12,36.69Z"/><rect class="cls-1" x="40.24" y="20.42" width="2" height="2.78"/><path class="cls-1" d="M21.12,49.17C13.27,49.17,0,48.09,0,44V32.91H2V44c.35,1.09,7.24,3.16,19.12,3.16,1.63,0,3.25,0,4.8-.12l.11,2C24.44,49.13,22.79,49.17,21.12,49.17Z"/><path class="cls-1" d="M21.12,11.71C13.27,11.71,0,10.63,0,6.55V5.16C0,1.09,13.27,0,21.12,0S42.24,1.09,42.24,5.16V6.55C42.24,10.63,29,11.71,21.12,11.71ZM2,5.18V6.55c.35,1.09,7.24,3.16,19.12,3.16S39.88,7.64,40.24,6.52V5.16C39.88,4.08,33,2,21.12,2S2.39,4.06,2,5.18Z"/><rect class="cls-1" x="5.16" y="15.26" width="2.77" height="2"/><rect class="cls-1" x="5.16" y="27.75" width="2.77" height="2"/><rect class="cls-1" x="5.16" y="40.24" width="2.77" height="2"/><path class="cls-2" d="M55.5,64.44H29.75a2,2,0,0,1-2-2V43.63a2,2,0,0,1,2-2H55.5a2,2,0,0,1,2,2V62.44A2,2,0,0,1,55.5,64.44ZM29.75,43.63V62.44H55.5V43.63Z"/><path class="cls-2" d="M52,43.63H33.3V32.91c0-4.37,4.18-7.93,9.33-7.93S52,28.54,52,32.91Zm-16.65-2H50V32.91C50,29.64,46.66,27,42.63,27s-7.33,2.66-7.33,5.93Z"/></g></g></svg>