<svg xmlns="http://www.w3.org/2000/svg" viewBox="0 0 38.87 51.2"><defs><style>.cls-1{fill:#57b782;}.cls-2{fill:#3c9564;}</style></defs><title>Logind</title><g id="Lag_2" data-name="Lag 2"><g id="Description"><path class="cls-1" d="M22.83,0H16.66C10.87,0,6.17,4.43,6.17,9.88v8.36l-.48.1a7.32,7.32,0,0,0-5.69,7V43.8a7.61,7.61,0,0,0,7.42,7.4H32.07c3.75,0,6.8-3.32,6.8-7.4V25.29a7.32,7.32,0,0,0-5.69-6.95l-.47-.1V9.88A9.67,9.67,0,0,0,22.83,0ZM8.05,9.88c0-4.41,3.86-8,8.61-8h6.17a7.74,7.74,0,0,1,8,8V18.5H26.54V13c0-.47,0-.91,0-1.34.05-1.88.09-3.47-.92-4.51a3.74,3.74,0,0,0-2.82-1H16.66a3.88,3.88,0,0,0-2.86,1c-1.2,1.21-1.18,3.24-1.16,5.4v.87l-.07,5H8.05Zm6.47,2.64c0-2,0-3.42.62-4a2,2,0,0,1,1.52-.45h6.17a2.09,2.09,0,0,1,1.47.38c.41.42.43,1.31.39,3.11,0,.46,0,.93,0,1.43V18.5H14.45l.07-5ZM37,25.29V43.8c0,2.65-1.88,5.52-4.92,5.52H7.42A5.82,5.82,0,0,1,1.88,43.8V25.29a5.15,5.15,0,0,1,5.23-4.91H31.77A5.15,5.15,0,0,1,37,25.29Z"/><path class="cls-2" d="M23.57,31.46a3.92,3.92,0,0,0-3.9-4,4.11,4.11,0,0,0-4.1,4,4.92,4.92,0,0,0,2.6,3.83l.33.16v6.28a.94.94,0,1,0,1.88,0V35.39l.4-.14A4.05,4.05,0,0,0,23.57,31.46ZM19.74,33.6a2.15,2.15,0,1,1,2.14-2.14A2.14,2.14,0,0,1,19.74,33.6Z"/></g></g></svg>