<svg xmlns="http://www.w3.org/2000/svg" viewBox="0 0 69.13 61.98"><defs><style>.cls-1{fill:#57b782;}.cls-2{fill:#3c9564;}</style></defs><title>Print</title><g id="Lag_2" data-name="Lag 2"><g id="Icons"><path class="cls-1" d="M60.32,17.88H53.63v2.38h6.69a6.46,6.46,0,0,1,6.42,6.49V44.1H56v-6H58.4V35.76H10.73v2.38h2.38v6H2.38V26.75A6.46,6.46,0,0,1,8.8,20.26h6.69V17.88H8.8A8.85,8.85,0,0,0,0,26.75V46.48H16.69V62H52.44V46.48H69.13V26.75A8.85,8.85,0,0,0,60.32,17.88ZM15.49,44.1v-6h1.2v6ZM50.06,59.59h-31V38.14h31ZM52.44,44.1v-6h1.19v6Z"/><rect class="cls-2" x="23.84" y="53.63" width="15.49" height="2.38"/><rect class="cls-2" x="23.84" y="47.67" width="21.45" height="2.38"/><rect class="cls-2" x="23.84" y="41.72" width="21.45" height="2.38"/><path class="cls-1" d="M52.44,9.3,43.13,0H16.69V20.26H52.44Zm-8.34-5,4,4h-4Zm-25,13.54V2.38H41.72v8.35h8.34v7.15Z"/><circle class="cls-2" cx="54.83" cy="25.03" r="2.38"/><path class="cls-1" d="M47.18,23.34a2.39,2.39,0,1,0,1.69-.69A2.38,2.38,0,0,0,47.18,23.34ZM50.06,25a1.2,1.2,0,1,1-1.19-1.19A1.19,1.19,0,0,1,50.06,25Z"/></g></g></svg>