<svg xmlns="http://www.w3.org/2000/svg" viewBox="0 0 64 63.86"><defs><style>.cls-1{fill:#57b782;}.cls-2{fill:#3c9564;}</style></defs><title>Payment 03</title><g id="Lag_2" data-name="Lag 2"><g id="Icons"><path class="cls-1" d="M59,42H57V40h2a3,3,0,0,0,3-3V5a3,3,0,0,0-3-3H5A3,3,0,0,0,2,5V37a3,3,0,0,0,3,3H24v2H5a5,5,0,0,1-5-5V5A5,5,0,0,1,5,0H59a5,5,0,0,1,5,5V37A5,5,0,0,1,59,42Z"/><path class="cls-1" d="M13,30H7a1,1,0,0,1,0-2h6a1,1,0,0,1,0,2Z"/><path class="cls-1" d="M23,30H17a1,1,0,0,1,0-2h6a1,1,0,0,1,0,2Z"/><rect class="cls-1" x="1" y="8" width="62" height="2"/><rect class="cls-1" x="1" y="16" width="62" height="2"/><path class="cls-2" d="M40.5,63.86a1,1,0,0,1-.64-.23l-8.08-6.79A16.14,16.14,0,0,1,26,44.44V33.16a1,1,0,0,1,.86-1,54.73,54.73,0,0,0,13.23-3.7,1,1,0,0,1,.82,0,54.73,54.73,0,0,0,13.23,3.7,1,1,0,0,1,.86,1V44.44a16.14,16.14,0,0,1-5.78,12.4l-8.08,6.79A1,1,0,0,1,40.5,63.86ZM28,34V44.44a14.17,14.17,0,0,0,5.06,10.87l7.44,6.24,7.44-6.24A14.2,14.2,0,0,0,53,44.44V34a56.37,56.37,0,0,1-12.5-3.55A56.37,56.37,0,0,1,28,34Z"/></g></g></svg>