<svg xmlns="http://www.w3.org/2000/svg" viewBox="0 0 61.21 69.32"><defs><style>.cls-1{fill:#3c9564;}.cls-2{fill:#57b782;}</style></defs><title>Mobilepay</title><g id="Lag_2" data-name="Lag 2"><g id="Icons"><path class="cls-1" d="M40.1,24.07l-8.57,1.17a4.55,4.55,0,0,1,4.17-3.73C37.6,21.37,39.63,22.55,40.1,24.07Z"/><path class="cls-1" d="M38.79,35.45a4.64,4.64,0,1,1,4.63,4.64A4.65,4.65,0,0,1,38.79,35.45Z"/><path class="cls-1" d="M61.2,44.92c-.07-1.71-.17-3.41-.26-5.12-.21-3.89-.41-7.77-.64-11.66,0-1-.35-1.41-1.36-1.52a78.15,78.15,0,0,0-8-.73c-3.84-.05-7.7.11-11.53.36a62.11,62.11,0,0,0-12.6,2.23c-.92.26-1.18.64-1.13,1.56q.45,8.22.89,16.44c.06,1.23.27,1.38,1.45,1a66.17,66.17,0,0,1,9-1.88h0a60.74,60.74,0,0,1,10.17-.83v0c1.87,0,3.62,0,5.37,0a34.36,34.36,0,0,1,7.76.91C61,45.89,61.24,45.76,61.2,44.92ZM43.36,41.78a6.34,6.34,0,1,1,6.4-6.29A6.39,6.39,0,0,1,43.36,41.78Z"/><path class="cls-1" d="M31.38,17.88a1.74,1.74,0,0,1-.2.13,73.57,73.57,0,0,0-13,9.33c-.86.77-.9,1.17-.33,2.17L23.74,39.8c.11.19.23.37.43.68,0-.37,0-.58,0-.79-.18-3.19-.37-6.38-.53-9.57a3.2,3.2,0,0,1,2.5-3.52,26.28,26.28,0,0,1,2.61-.67,1.16,1.16,0,0,0,1.11-1.11,6.31,6.31,0,0,1,11.87-1.43.92.92,0,0,0,1.06.62c2.54-.08,5.09-.1,7.63-.13,1.4,0,2.81,0,4.21,0,0,.06,0,0,0,0q-3.47-6-6.94-12a1.22,1.22,0,0,0-1.56-.6c-1.64.57-3.29,1.09-4.89,1.75-.71.29-1.41.61-2.11.93C38.12,14.36,34.75,16,31.38,17.88Z"/><path class="cls-2" d="M47.65,46.21c-1.43,0-3.09,0-4.79.15.23.62.47,1.23.71,1.85L45,52,22.77,60.52c-5.54-14.46-11-28.81-16.55-43.21L28.46,8.79c1,2.56,1.92,5,2.89,7.5,1.46-.81,2.89-1.55,4.1-2.16Q33.31,8.55,31.18,3A4.52,4.52,0,0,0,28.32.2L27.83,0H26.08l-.92.38L3.25,8.76C.36,9.87-.67,12.21.44,15.1Q10.17,40.57,19.93,66c1.1,2.9,3.42,4,6.32,2.85q11-4.19,22-8.4a4.47,4.47,0,0,0,2.64-6.06ZM41,59.51c-2.82,1.11-5.65,2.18-8.48,3.25a.87.87,0,0,1-1.21-.52.86.86,0,0,1,.55-1.19q4.28-1.65,8.55-3.26c.64-.24,1.26.23,1.24,1.11C41.49,59,41.27,59.39,41,59.51Z"/></g></g></svg>