<svg xmlns="http://www.w3.org/2000/svg" viewBox="0 0 63.6 48.87"><defs><style>.cls-1{fill:#3c9564;}.cls-2{fill:#57b782;}</style></defs><title>Admin</title><g id="Lag_2" data-name="Lag 2"><g id="Icons"><rect class="cls-1" x="25.1" y="36.16" width="4.02" height="2"/><rect class="cls-1" x="14.39" y="36.16" width="4.02" height="2"/><rect class="cls-1" x="7.7" y="46.87" width="24.1" height="2"/><rect class="cls-1" x="31.8" y="46.87" width="24.1" height="2"/><rect class="cls-1" x="34.48" y="36.16" width="4.02" height="2"/><rect class="cls-1" x="45.19" y="36.16" width="4.02" height="2"/><path class="cls-2" d="M54.56,43.51H9a1,1,0,0,1-1-1V39.83c0-13.1-2.8-23-7.69-27.29A1,1,0,0,1,0,11.79a1.08,1.08,0,0,1,1-1.08c.29,0,7.18-.36,11.38,1.46,2.26,1,5.15,3.6,5.88,6.13a3.72,3.72,0,0,1-.42,3.24,6.29,6.29,0,0,0-1.13,3.56,6,6,0,0,0,2,4.8,5.52,5.52,0,0,0,4.78.92c2.13-.44,3.73-2.32,4.29-5S25.86,20.55,23.26,19a1,1,0,0,1-.49-.86,1,1,0,0,1,.43-.84c3.05-2.1,6.55-12.7,7.64-16.61a1,1,0,0,1,1.92,0c1.09,3.91,4.59,14.51,7.64,16.61a1,1,0,0,1,.43.82,1,1,0,0,1-.5.88c-2.59,1.51-5,4.18-4.45,6.75.34,1.63,1.32,4.44,4.16,5a5.58,5.58,0,0,0,4.83-.94,6,6,0,0,0,2-4.78,6.26,6.26,0,0,0-1.1-3.56,3.76,3.76,0,0,1-.42-3.23c.74-2.53,3.63-5.16,5.9-6.14h0c4.21-1.82,11.11-1.47,11.4-1.46a1,1,0,0,1,1,1,1.16,1.16,0,0,1-.35.83c-4.88,4.24-7.69,14.19-7.69,27.29v2.68A1,1,0,0,1,54.56,43.51ZM10,41.51H53.56V39.83c0-12.24,2.45-21.93,6.77-27.14C58,12.72,54.45,13,52,14h0c-1.81.78-4.22,3-4.77,4.85a1.77,1.77,0,0,0,.15,1.55,8.27,8.27,0,0,1,1.45,4.69,7.94,7.94,0,0,1-2.74,6.34,7.63,7.63,0,0,1-6.5,1.34c-2.89-.6-5-3-5.71-6.58-.68-3.32,1.69-6.31,4.29-8.16C35.52,15.09,33.1,8.48,31.8,4.45c-1.3,4-3.72,10.64-6.41,13.59,2.6,1.85,5,4.84,4.28,8.16-.72,3.51-2.9,6-5.83,6.58a7.62,7.62,0,0,1-6.45-1.32,8,8,0,0,1-2.73-6.36,8.29,8.29,0,0,1,1.48-4.69,1.73,1.73,0,0,0,.15-1.56C15.75,17,13.35,14.79,11.54,14c-2.41-1-6-1.29-8.28-1.32C7.59,17.9,10,27.59,10,39.83Z"/></g></g></svg>