<svg xmlns="http://www.w3.org/2000/svg" viewBox="0 0 71.59 61.57"><defs><style>.cls-1{fill:#57b782;}.cls-2{fill:#3c9564;}</style></defs><title>Communication 02</title><g id="Lag_2" data-name="Lag 2"><g id="Icons"><path class="cls-1" d="M60,42.85h-.15c-4.12-.62-6.9-3.44-6.9-7a6.85,6.85,0,0,1,2.23-5.29,7.87,7.87,0,0,1,5.71-1.81,29.67,29.67,0,0,0,1.14-8,11.1,11.1,0,0,0-20.82-5.38,1,1,0,0,1-1.75-1A13.1,13.1,0,0,1,64,20.67c0,2-.41,7.24-1.63,9.55l-.32.61-.68-.08A6.19,6.19,0,0,0,56.51,32,4.91,4.91,0,0,0,55,35.8c0,2.6,2,4.59,5.2,5.07a1,1,0,0,1-.15,2Z"/><path class="cls-1" d="M70.59,21.67a1,1,0,0,1-1-1,18.67,18.67,0,0,0-36.43-5.75,1,1,0,0,1-1.91-.61,20.67,20.67,0,0,1,40.34,6.36A1,1,0,0,1,70.59,21.67Z"/><path class="cls-1" d="M61.52,61c-6.16,0-8.88-4.58-10.87-7.92l-.3-.51a23.1,23.1,0,0,0-3.59-3.95,1,1,0,0,1,0-1.42,1,1,0,0,1,1.41,0,23.36,23.36,0,0,1,3.93,4.37l.31.52C54.21,55.16,56.49,59,61.52,59c4.81,0,6.56-4.83,6.56-8.08a1,1,0,1,1,2,0C70.08,55.94,67.14,61,61.52,61Z"/><path class="cls-2" d="M11.6,61.57a2.36,2.36,0,0,1-.9-.17,2.47,2.47,0,0,1-1.62-2.34V50.41H5.54A5.54,5.54,0,0,1,0,44.88V23.7a5.55,5.55,0,0,1,5.54-5.55H38.82a5.55,5.55,0,0,1,5.54,5.55V44.88a5.54,5.54,0,0,1-5.54,5.53H22.63L13.47,60.72A2.5,2.5,0,0,1,11.6,61.57ZM5.54,20.15A3.56,3.56,0,0,0,2,23.7V44.88a3.54,3.54,0,0,0,3.54,3.53h5.54V59.06a.51.51,0,0,0,.89.33l9.76-11H38.82a3.54,3.54,0,0,0,3.54-3.53V23.7a3.56,3.56,0,0,0-3.54-3.55Z"/><path class="cls-2" d="M32.77,32.26H11.59a1,1,0,0,1,0-2H32.77a1,1,0,1,1,0,2Z"/><path class="cls-2" d="M23.69,38.31H11.59a1,1,0,0,1,0-2h12.1a1,1,0,0,1,0,2Z"/></g></g></svg>