<svg xmlns="http://www.w3.org/2000/svg" viewBox="0 0 89.59 67.43"><defs><style>.cls-1{fill:#57b782;}.cls-2{fill:#3c9564;}</style></defs><title>TabletResponsive</title><g id="Lag_2" data-name="Lag 2"><g id="Icons"><path class="cls-1" d="M83.35,0H6.24A6.17,6.17,0,0,0,0,6.08V61.35a6.17,6.17,0,0,0,6.24,6.08H83.35a6.17,6.17,0,0,0,6.24-6.08V6.08A6.17,6.17,0,0,0,83.35,0ZM15.09,64.8H6.24a3.54,3.54,0,0,1-3.61-3.45V6.08A3.54,3.54,0,0,1,6.24,2.63h8.85ZM87,61.35a3.54,3.54,0,0,1-3.61,3.45H17.09V2.63H83.35A3.54,3.54,0,0,1,87,6.08Z"/><circle class="cls-1" cx="8.86" cy="33.71" r="2.43"/><rect class="cls-2" x="42.83" y="21" width="1" height="13.86" transform="translate(-7.06 38.82) rotate(-45)"/><path class="cls-2" d="M47.88,33.71,37.55,23.38l1.24-1.23L49.12,32.48ZM38.61,23.38l9.27,9.27.18-.17-9.27-9.27Z"/><polygon class="cls-2" points="48.73 33.33 40.23 33.33 40.23 32.33 47.73 32.33 47.73 24.83 48.73 24.83 48.73 33.33"/><path class="cls-2" d="M49.11,33.71H39.86V32h7.5v-7.5h1.75ZM40.61,33h7.75V25.21h-.25v7.5h-7.5Z"/><rect class="cls-2" x="55.64" y="33.8" width="1" height="13.86" transform="translate(-12.36 51.62) rotate(-45)"/><path class="cls-2" d="M60.68,46.52,50.35,36.18,51.59,35,61.92,45.28ZM51.41,36.18l9.27,9.28.18-.18L51.59,36Z"/><polygon class="cls-2" points="51.73 43.83 50.73 43.83 50.73 35.33 59.23 35.33 59.23 36.33 51.73 36.33 51.73 43.83"/><path class="cls-2" d="M52.11,44.21H50.36V35h9.25v1.75h-7.5Zm-1-.75h.25V36h7.5v-.25H51.11Z"/></g></g></svg>