<svg xmlns="http://www.w3.org/2000/svg" viewBox="0 0 74.08 56.04"><defs><style>.cls-1{fill:#57b782;}.cls-2{fill:#3c9564;}</style></defs><title>Cloud syncronize</title><g id="Lag_2" data-name="Lag 2"><g id="Icons"><path class="cls-1" d="M62.11,44.31h-9.4v-2h9.4a10,10,0,0,0,0-19.94,10.09,10.09,0,0,0-3,.47l-1.6.52.31-1.66A9.56,9.56,0,0,0,58,19.8,10,10,0,0,0,41.5,12.26l-1.11,1-.49-1.39a14.66,14.66,0,0,0-27.82,9.27l.38,1.2-1.26.1A10,10,0,0,0,12,42.31h9.4v2H12A12,12,0,0,1,9.85,20.57a17,17,0,0,1-.46-3.9,16.67,16.67,0,0,1,31.9-6.76A12,12,0,0,1,60,19.8c0,.26,0,.51,0,.77a12.14,12.14,0,0,1,2.16-.2,12,12,0,0,1,0,23.94Z"/><path class="cls-1" d="M40.67,15.2a14.4,14.4,0,0,0-.74-3.37l1.89-.66A16.58,16.58,0,0,1,42.66,15Z"/><path class="cls-1" d="M58.27,26l-1.71-1A9.9,9.9,0,0,0,57.8,21.7l2,.38A11.8,11.8,0,0,1,58.27,26Z"/><path class="cls-1" d="M14.9,22.81a10,10,0,0,0-3.7-.41l-.15-2a11.92,11.92,0,0,1,4.44.49Z"/><path class="cls-2" d="M36.29,55.32A12.3,12.3,0,0,1,24.63,39.05a1.45,1.45,0,1,1,2.74.93A9.42,9.42,0,0,0,43,49.67a1.45,1.45,0,0,1,2,2A12.27,12.27,0,0,1,36.29,55.32Z"/><path class="cls-2" d="M46.36,48.55a1.49,1.49,0,0,1-.54-.11,1.46,1.46,0,0,1-.8-1.89,9.42,9.42,0,0,0-15.39-10.2,1.44,1.44,0,0,1-2.05,0,1.46,1.46,0,0,1,0-2.05A12.32,12.32,0,0,1,47.71,47.64,1.45,1.45,0,0,1,46.36,48.55Z"/><path class="cls-2" d="M42.28,56a1.47,1.47,0,0,1-1.15-.57l-2.49-3.25a1.45,1.45,0,0,1,.93-2.31l4.2-.64a1.45,1.45,0,0,1,1.54,2l-1.7,3.89a1.42,1.42,0,0,1-1.15.85Z"/><path class="cls-2" d="M28.59,36.75a1.45,1.45,0,0,1-1.34-2l1.6-3.92A1.47,1.47,0,0,1,30,29.94a1.44,1.44,0,0,1,1.33.53l2.57,3.19a1.46,1.46,0,0,1,.23,1.42A1.42,1.42,0,0,1,33,36l-4.17.74Z"/></g></g></svg>