<svg xmlns="http://www.w3.org/2000/svg" viewBox="0 0 61.5 56.33"><defs><style>.cls-1{fill:#57b782;}.cls-2{fill:#3c9564;}</style></defs><title>Add user</title><g id="Lag_2" data-name="Lag 2"><g id="Icons"><path class="cls-1" d="M23,27.87A11.1,11.1,0,0,1,11.64,16.52V11.35A11.1,11.1,0,0,1,23,0,11.1,11.1,0,0,1,34.34,11.35v5.17A11.1,11.1,0,0,1,23,27.87ZM23,2a9,9,0,0,0-9.35,9.35v5.17A9,9,0,0,0,23,25.87a9,9,0,0,0,9.35-9.35V11.35A9,9,0,0,0,23,2Z"/><path class="cls-1" d="M2,52.74H0V42.39c0-9,16.22-12.64,23-12.64a37.05,37.05,0,0,1,8,1l-.45,1.95a35.44,35.44,0,0,0-7.53-1c-7.12,0-21,3.76-21,10.64Z"/><path class="cls-2" d="M46.27,56.33A15.23,15.23,0,1,1,61.5,41.1,15.26,15.26,0,0,1,46.27,56.33Zm0-28.46A13.23,13.23,0,1,0,59.5,41.1,13.25,13.25,0,0,0,46.27,27.87Z"/><rect class="cls-2" x="45.27" y="33.34" width="2" height="15.52"/><rect class="cls-2" x="38.51" y="40.1" width="15.52" height="2"/></g></g></svg>