<svg xmlns="http://www.w3.org/2000/svg" viewBox="0 0 42.81 51.88"><defs><style>.cls-1{fill:#57b782;}.cls-2{fill:#3c9564;}</style></defs><title>Stopwatch</title><g id="Lag_2" data-name="Lag 2"><g id="Icons"><polygon class="cls-1" points="28.07 6.53 22.54 6.53 22.54 4.53 26.07 4.53 26.07 2 16.74 2 16.74 4.53 20.27 4.53 20.27 6.53 14.74 6.53 14.74 0 28.07 0 28.07 6.53"/><path class="cls-1" d="M21.41,51.88A21.41,21.41,0,0,1,18.14,9.32V7.8h2v3.3l-.89.1a19.41,19.41,0,1,0,4.31,0l-.89-.1V7.8h2V9.32a21.41,21.41,0,0,1-3.26,42.56Z"/><rect class="cls-1" x="36.84" y="8.23" width="2" height="4.81" transform="translate(3.56 29.87) rotate(-45)"/><rect class="cls-1" x="33.17" y="11.9" width="4.81" height="2" transform="translate(1.3 28.93) rotate(-45)"/><rect class="cls-1" x="2.56" y="9.64" width="4.81" height="2" transform="translate(-6.07 6.63) rotate(-45)"/><rect class="cls-1" x="6.24" y="10.5" width="2" height="4.81" transform="translate(-7 8.9) rotate(-45)"/><path class="cls-2" d="M21.3,31.3a1,1,0,0,1-1-1V16a1,1,0,1,1,2,0V30.3A1,1,0,0,1,21.3,31.3Z"/><path class="cls-2" d="M21.25,31.14a1,1,0,0,1-.92-.6,1,1,0,0,1,.52-1.31L29,25.61a1,1,0,1,1,.81,1.83l-8.2,3.62A1.14,1.14,0,0,1,21.25,31.14Z"/></g></g></svg>