<svg xmlns="http://www.w3.org/2000/svg" viewBox="0 0 64 64"><defs><style>.cls-1{fill:#3c9564;}.cls-2{fill:#57b782;}</style></defs><title>Payment 02</title><g id="Lag_2" data-name="Lag 2"><g id="Icons"><g id="lock"><path class="cls-1" d="M50,64H32a4,4,0,0,1-4-4V41a1,1,0,0,1,1-1H53a1,1,0,0,1,1,1V60A4,4,0,0,1,50,64ZM30,42V60a2,2,0,0,0,2,2H50a2,2,0,0,0,2-2V42Z"/><path class="cls-1" d="M41,58a3,3,0,0,1-3-3V52.63a4,4,0,1,1,6,0V55A3,3,0,0,1,41,58Zm0-10a2,2,0,0,0-1.33,3.48,1,1,0,0,1,.33.74V55a1,1,0,0,0,2,0V52.22a1,1,0,0,1,.33-.74A2,2,0,0,0,41,48Z"/><path class="cls-1" d="M49,42a1,1,0,0,1-1-1V36a7,7,0,0,0-14,0v5a1,1,0,0,1-2,0V36a9,9,0,0,1,18,0v5A1,1,0,0,1,49,42Z"/></g><path class="cls-2" d="M59,42H58V40h1a3,3,0,0,0,3-3V5a3,3,0,0,0-3-3H5A3,3,0,0,0,2,5V37a3,3,0,0,0,3,3H24v2H5a5,5,0,0,1-5-5V5A5,5,0,0,1,5,0H59a5,5,0,0,1,5,5V37A5,5,0,0,1,59,42Z"/><path class="cls-2" d="M13,30H7a1,1,0,0,1,0-2h6a1,1,0,0,1,0,2Z"/><path class="cls-2" d="M23,30H17a1,1,0,0,1,0-2h6a1,1,0,0,1,0,2Z"/><rect class="cls-2" x="1" y="8" width="62" height="2"/><rect class="cls-2" x="1" y="16" width="62" height="2"/></g></g></svg>