<svg xmlns="http://www.w3.org/2000/svg" viewBox="0 0 57.37 54.09"><defs><style>.cls-1{fill:#3c9564;}.cls-2{fill:#57b782;}</style></defs><title>Check boxes</title><g id="Lag_2" data-name="Lag 2"><g id="Icons"><path class="cls-1" d="M51.52,21.61H36.06a2.3,2.3,0,0,1-2.29-2.29V2.58A2.29,2.29,0,0,1,36.06.29H51.52A2.28,2.28,0,0,1,53.8,2.58V3.86h-2V2.58a.29.29,0,0,0-.28-.29H36.06a.29.29,0,0,0-.29.29V19.32a.29.29,0,0,0,.29.29H51.52a.29.29,0,0,0,.28-.29V14.17h2v5.15A2.29,2.29,0,0,1,51.52,21.61Z"/><path class="cls-2" d="M20.61,21.61H5.15a2.3,2.3,0,0,1-2.29-2.29V2.58A2.29,2.29,0,0,1,5.15.29H20.61a2.28,2.28,0,0,1,2.28,2.29V19.32A2.29,2.29,0,0,1,20.61,21.61ZM5.15,2.29a.29.29,0,0,0-.29.29V19.32a.29.29,0,0,0,.29.29H20.61a.29.29,0,0,0,.28-.29V2.58a.29.29,0,0,0-.28-.29Z"/><path class="cls-2" d="M20.61,52.52H5.15a2.3,2.3,0,0,1-2.29-2.29V33.48A2.29,2.29,0,0,1,5.15,31.2H20.61a2.28,2.28,0,0,1,2.28,2.28V50.23A2.29,2.29,0,0,1,20.61,52.52ZM5.15,33.2a.29.29,0,0,0-.29.28V50.23a.29.29,0,0,0,.29.29H20.61a.29.29,0,0,0,.28-.29V33.48a.29.29,0,0,0-.28-.28Z"/><rect class="cls-2" x="27.33" width="2" height="54.09"/><rect class="cls-2" y="26.05" width="56.67" height="2"/><path class="cls-1" d="M46.36,16.45a1,1,0,0,1-.7-.29L41.79,12.3l1.42-1.42L46.36,14,56,4.44l1.41,1.42-10.3,10.3A1,1,0,0,1,46.36,16.45Z"/></g></g></svg>