<svg xmlns="http://www.w3.org/2000/svg" viewBox="0 0 58.49 58.49"><defs><style>.cls-1{fill:#57b782;}.cls-2{fill:#3c9564;}</style></defs><title>Mobile communication</title><g id="Lag_2" data-name="Lag 2"><g id="Icons"><path class="cls-1" d="M37.84,58.49H18.19A3.46,3.46,0,0,1,14.74,55V23.1a3.46,3.46,0,0,1,3.45-3.45h3.69v2H18.19a1.45,1.45,0,0,0-1.45,1.45V55a1.46,1.46,0,0,0,1.45,1.46H37.84A1.47,1.47,0,0,0,39.3,55V36.61h2V55A3.46,3.46,0,0,1,37.84,58.49Z"/><rect class="cls-1" x="15.74" y="49.12" width="24.56" height="2"/><rect class="cls-1" x="15.74" y="25.79" width="18.42" height="2"/><rect class="cls-1" x="25.56" y="52.8" width="3.68" height="2"/><path class="cls-2" d="M25.57,23.24a2.11,2.11,0,0,1-.78-.14A2.21,2.21,0,0,1,23.33,21V16.74H23.1a3.46,3.46,0,0,1-3.45-3.46V3.46A3.46,3.46,0,0,1,23.1,0H42.75a3.46,3.46,0,0,1,3.46,3.46v7.36h-2V3.46A1.46,1.46,0,0,0,42.75,2H23.1a1.45,1.45,0,0,0-1.45,1.46v9.82a1.46,1.46,0,0,0,1.45,1.46h2.23V21a.23.23,0,0,0,.4.15l5.51-6.42h2.92v2h-2l-4.91,5.72A2.19,2.19,0,0,1,25.57,23.24Z"/><path class="cls-2" d="M37.85,35.45a2.06,2.06,0,0,1-.77-.14,2.2,2.2,0,0,1-1.47-2.09V15.74a3.46,3.46,0,0,1,3.46-3.46H55a3.46,3.46,0,0,1,3.46,3.46v11A3.46,3.46,0,0,1,55,30.24H43.22l-3.67,4.41A2.19,2.19,0,0,1,37.85,35.45Zm1.22-21.17a1.46,1.46,0,0,0-1.46,1.46V33.22a.2.2,0,0,0,.15.21.19.19,0,0,0,.25-.06l4.27-5.13H55a1.46,1.46,0,0,0,1.46-1.45v-11A1.46,1.46,0,0,0,55,14.28Z"/><path class="cls-2" d="M9.58,39.92A2.21,2.21,0,0,1,7.78,39L4.17,33.93H3.46A3.46,3.46,0,0,1,0,30.47V15.74a3.46,3.46,0,0,1,3.46-3.46H18.19v2H3.46A1.46,1.46,0,0,0,2,15.74V30.47a1.46,1.46,0,0,0,1.46,1.46H5.2l4.21,5.89a.2.2,0,0,0,.26.09.21.21,0,0,0,.15-.22V31.93h3.46v2H11.82v3.76a2.23,2.23,0,0,1-2.24,2.23Z"/></g></g></svg>