<svg xmlns="http://www.w3.org/2000/svg" viewBox="0 0 44.33 70.18"><defs><style>.cls-1{fill:#57b782;}.cls-2{fill:#3c9564;}</style></defs><title>Store03</title><g id="Lag_2" data-name="Lag 2"><g id="Description"><path class="cls-1" d="M10,42.41a2.16,2.16,0,1,0,2.16,2.16A2.17,2.17,0,0,0,10,42.41Z"/><path class="cls-1" d="M20.64,42.41a2.16,2.16,0,1,0,2.16,2.16A2.16,2.16,0,0,0,20.64,42.41Z"/><path class="cls-1" d="M31.26,42.41a2.16,2.16,0,1,0,2.17,2.16A2.16,2.16,0,0,0,31.26,42.41Z"/><path class="cls-1" d="M10,50.86A2.17,2.17,0,1,0,12.18,53,2.17,2.17,0,0,0,10,50.86Z"/><path class="cls-1" d="M20.64,50.86A2.17,2.17,0,1,0,22.8,53,2.17,2.17,0,0,0,20.64,50.86Z"/><path class="cls-1" d="M31.26,50.86A2.17,2.17,0,1,0,33.43,53,2.17,2.17,0,0,0,31.26,50.86Z"/><path class="cls-1" d="M10,59.32a2.17,2.17,0,1,0,2.16,2.16A2.17,2.17,0,0,0,10,59.32Z"/><path class="cls-1" d="M20.64,59.32a2.17,2.17,0,1,0,2.16,2.16A2.16,2.16,0,0,0,20.64,59.32Z"/><path class="cls-1" d="M31.26,59.32a2.17,2.17,0,1,0,2.17,2.16A2.16,2.16,0,0,0,31.26,59.32Z"/><path class="cls-2" d="M34.12,26.21h-27a.83.83,0,0,0-.83.83V37.21a.83.83,0,0,0,.83.83h27a.84.84,0,0,0,.84-.83V27A.84.84,0,0,0,34.12,26.21Zm-.83,10.16H8V27.88H33.29Z"/><path class="cls-1" d="M9.1.83V8.32H3.91A3.92,3.92,0,0,0,0,12.23v54a3.92,3.92,0,0,0,3.91,3.91H36.29a3.92,3.92,0,0,0,3.91-3.91V42.08h3.3a.84.84,0,0,0,.83-.84V19.74a.83.83,0,0,0-.83-.83H40.2V12.23a3.92,3.92,0,0,0-3.91-3.91H32.18V.83A.84.84,0,0,0,30.76.24l-3,2.94-3-2.94a.83.83,0,0,0-1.17,0l-3,2.94-3-2.94a.83.83,0,0,0-1.17,0l-3,2.94-3-2.94A.84.84,0,0,0,9.61.07.83.83,0,0,0,9.1.83ZM40.2,20.58h2.46V40.41H40.2ZM10.77,2.83l2.15,2.11a.83.83,0,0,0,1.17,0l3-2.94,3,2.94a.83.83,0,0,0,1.17,0l3-2.94,3,2.94a.83.83,0,0,0,1.17,0l2.15-2.12V20.24H10.77ZM34.12,21.91a.84.84,0,0,0,.84-.83.85.85,0,0,0-.84-.84H32.18V10h4.11a2.24,2.24,0,0,1,2.24,2.24v54a2.24,2.24,0,0,1-2.24,2.24H3.91a2.24,2.24,0,0,1-2.24-2.24v-54A2.24,2.24,0,0,1,3.91,10H9.1V20.24H7.16a.84.84,0,0,0-.83.84.83.83,0,0,0,.83.83Z"/></g></g></svg>