<svg xmlns="http://www.w3.org/2000/svg" viewBox="0 0 73.36 73.36"><defs><style>.cls-1{fill:#57b782;}.cls-2{fill:#3c9564;}</style></defs><title>Store01</title><g id="Lag_2" data-name="Lag 2"><g id="Description"><path class="cls-1" d="M72.36,73.36H1a1,1,0,0,1,0-2H72.36a1,1,0,0,1,0,2Z"/><path class="cls-1" d="M6.75,73.36a1,1,0,0,1-1-1V41.28a1,1,0,0,1,2,0V72.36A1,1,0,0,1,6.75,73.36Z"/><path class="cls-1" d="M29.77,73.36a1,1,0,0,1-1-1V41.28a1,1,0,0,1,2,0V72.36A1,1,0,0,1,29.77,73.36Z"/><path class="cls-1" d="M66.61,73.36a1,1,0,0,1-1-1V41.28a1,1,0,0,1,2,0V72.36A1,1,0,0,1,66.61,73.36Z"/><path class="cls-2" d="M25.17,49.19h-2.3a1,1,0,0,1,0-2h2.3a1,1,0,0,1,0,2Z"/><path class="cls-2" d="M45.89,66.45a1,1,0,0,1-.71-.29,1,1,0,0,1,0-1.41L59,50.94a1,1,0,0,1,1.42,0,1,1,0,0,1,0,1.41L46.6,66.16A1,1,0,0,1,45.89,66.45Z"/><path class="cls-2" d="M52.79,66.44a1,1,0,0,1-.7-.29,1,1,0,0,1,0-1.41L59,57.83a1,1,0,0,1,1.42,0,1,1,0,0,1,0,1.41L53.5,66.15A1,1,0,0,1,52.79,66.44Z"/><path class="cls-1" d="M64.31,37.68a7.94,7.94,0,0,1-6.91-4,7.91,7.91,0,0,1-13.81,0,7.91,7.91,0,0,1-13.81,0,7.91,7.91,0,0,1-13.81,0A7.91,7.91,0,0,1,1.15,29.77v-4.6a1,1,0,0,1,1-1H71.21a1,1,0,0,1,1,1v4.6h0A7.92,7.92,0,0,1,64.31,37.68ZM58.4,30a5.91,5.91,0,0,0,11.82-.2V26.17H3.15v3.6A5.91,5.91,0,0,0,15,30a1.48,1.48,0,0,1,0-.21,1,1,0,0,1,2,0V30a5.91,5.91,0,0,0,11.81,0c0-.07,0-.14,0-.22a1,1,0,0,1,2,0V30a5.91,5.91,0,0,0,11.81,0v-.22a1,1,0,1,1,2,0V30A5.91,5.91,0,0,0,56.4,30v-.21a1,1,0,0,1,2,0Z"/><path class="cls-1" d="M57.4,26.17a1,1,0,0,1-1-.86L53,1.14a1,1,0,1,1,2-.28L58.39,25a1,1,0,0,1-.85,1.13Z"/><path class="cls-1" d="M43.58,26.17a1,1,0,0,1-1-1L41.44,1.05a1,1,0,1,1,2-.1l1.15,24.17a1,1,0,0,1-.95,1.05Z"/><path class="cls-1" d="M16,26.17h-.14A1,1,0,0,1,15,25L18.43.86A1,1,0,0,1,19.56,0a1,1,0,0,1,.85,1.13L17,25.31A1,1,0,0,1,16,26.17Z"/><path class="cls-1" d="M29.78,26.17h-.05a1,1,0,0,1-.95-1.05L29.93,1a1,1,0,1,1,2,.1L30.77,25.22A1,1,0,0,1,29.78,26.17Z"/><path class="cls-1" d="M71.21,26.17a1,1,0,0,1-1-.77L64.66,2H8.7L3.12,25.4a1,1,0,0,1-1.94-.46L6.93.77a1,1,0,0,1,1-.77H65.45a1,1,0,0,1,1,.77l5.75,24.17a1,1,0,0,1-.74,1.2A.91.91,0,0,1,71.21,26.17Z"/></g></g></svg>