<svg xmlns="http://www.w3.org/2000/svg" viewBox="0 0 49.25 57.96"><defs><style>.cls-1{fill:#57b782;}</style></defs><title>Bugs</title><g id="Lag_2" data-name="Lag 2"><g id="Icons"><path class="cls-1" d="M24.63,55.47c-8.1,0-14.68-6.3-14.68-14v-10a8.12,8.12,0,0,1,0-.86,9.41,9.41,0,0,1,9.44-8.23H29.82a9.4,9.4,0,0,1,9.44,8.23,8.11,8.11,0,0,1,.05.86v10C39.31,49.17,32.72,55.47,24.63,55.47Zm-5.2-31.09A7.38,7.38,0,0,0,12,30.8c0,.22,0,.44,0,.67v10c0,6.64,5.69,12,12.68,12s12.68-5.41,12.68-12v-10c0-.23,0-.45,0-.67a7.38,7.38,0,0,0-7.45-6.42Z"/><path class="cls-1" d="M32.09,20.65a1,1,0,0,1-1-1V17.17c0-3.12-3.34-5.22-6.46-5.22s-6.46,2.1-6.46,5.22v2.48a1,1,0,0,1-2,0V17.17c0-4.46,4.39-7.22,8.46-7.22s8.46,2.76,8.46,7.22v2.48A1,1,0,0,1,32.09,20.65Z"/><path class="cls-1" d="M19.65,13.19a1,1,0,0,1-.91-.59l-5-11.19A1,1,0,1,1,15.59.6l5,11.19a1,1,0,0,1-.51,1.32A1,1,0,0,1,19.65,13.19Z"/><path class="cls-1" d="M29.6,13.19a1,1,0,0,1-.91-1.4L33.66.6a1,1,0,0,1,1.83.81l-5,11.19A1,1,0,0,1,29.6,13.19Z"/><path class="cls-1" d="M11,29.36a1,1,0,0,1-.6-.2l-5-3.73A1,1,0,0,1,5,24.9L2.53,16.2A1,1,0,0,1,3.21,15a1,1,0,0,1,1.24.69L6.84,24l4.71,3.53a1,1,0,0,1,.2,1.4A1,1,0,0,1,11,29.36Z"/><path class="cls-1" d="M4.73,58H4.57a1,1,0,0,1-.83-1.16L5,49.33a1,1,0,0,1,.38-.63l5-3.73a1,1,0,0,1,1.4.2,1,1,0,0,1-.2,1.4L6.9,50.06,5.72,57.12A1,1,0,0,1,4.73,58Z"/><path class="cls-1" d="M1,46.77a.84.84,0,0,1-.27,0A1,1,0,0,1,0,45.49l2.49-8.7a1,1,0,0,1,.64-.68l7.46-2.48a1,1,0,1,1,.64,1.89l-7,2.32L2,46A1,1,0,0,1,1,46.77Z"/><path class="cls-1" d="M38.31,29.36a1,1,0,0,1-.6-1.8L42.41,24l2.4-8.38a1,1,0,1,1,1.92.55l-2.49,8.7a1,1,0,0,1-.36.53l-5,3.73A1,1,0,0,1,38.31,29.36Z"/><path class="cls-1" d="M44.52,58a1,1,0,0,1-1-.84l-1.18-7.06-4.65-3.49a1,1,0,0,1-.2-1.4,1,1,0,0,1,1.4-.2l5,3.73a1,1,0,0,1,.39.63l1.24,7.46A1,1,0,0,1,44.69,58Z"/><path class="cls-1" d="M48.25,46.77a1,1,0,0,1-1-.73L45,37.84l-7-2.32a1,1,0,1,1,.63-1.89l7.46,2.48a1,1,0,0,1,.65.68l2.49,8.7a1,1,0,0,1-.69,1.24A.9.9,0,0,1,48.25,46.77Z"/><path class="cls-1" d="M24.63,55.47a1,1,0,0,1-1-1V28.36a1,1,0,0,1,2,0V54.47A1,1,0,0,1,24.63,55.47Z"/></g></g></svg>