<svg xmlns="http://www.w3.org/2000/svg" viewBox="0 0 55.84 55.84"><defs><style>.cls-1{fill:#3c9564;}.cls-2{fill:#57b782;}</style></defs><title>Dashboard</title><g id="Lag_2" data-name="Lag 2"><g id="Icons"><path class="cls-1" d="M15.05,23.26a1.17,1.17,0,0,0-1.17,1.17v4.65a1.17,1.17,0,0,0,2.33,0V24.43A1.17,1.17,0,0,0,15.05,23.26Z"/><path class="cls-1" d="M33.66,14a1.16,1.16,0,0,0-1.16,1.16v14a1.16,1.16,0,0,0,2.32,0v-14A1.16,1.16,0,0,0,33.66,14Z"/><path class="cls-1" d="M19.7,18.61a1.16,1.16,0,0,0-1.16,1.17v9.3a1.16,1.16,0,0,0,2.32,0v-9.3A1.16,1.16,0,0,0,19.7,18.61Z"/><path class="cls-1" d="M29,18.61a1.17,1.17,0,0,0-1.17,1.17v9.3a1.17,1.17,0,0,0,2.33,0v-9.3A1.16,1.16,0,0,0,29,18.61Z"/><path class="cls-1" d="M38.31,9.31a1.16,1.16,0,0,0-1.16,1.16V29.08a1.17,1.17,0,0,0,2.33,0V10.47A1.16,1.16,0,0,0,38.31,9.31Z"/><path class="cls-1" d="M24.35,16.29a1.16,1.16,0,0,0-1.16,1.16V29.08a1.17,1.17,0,0,0,2.33,0V17.45A1.16,1.16,0,0,0,24.35,16.29Z"/><path class="cls-2" d="M39.54,52.39c-1.22-2.61-2.73-5.86-7.39-5.86H29.08V43a1.17,1.17,0,0,0-2.33,0v3.49H23.68c-4.55,0-6.12,3.2-7.37,5.78l-.46.92a1.19,1.19,0,0,0-.13.53,2.17,2.17,0,0,0,2.19,2.08h20a2.1,2.1,0,0,0,2.19-2,1.17,1.17,0,0,0-.12-.52ZM18.31,53.51l.09-.18c1.17-2.4,2.18-4.47,5.28-4.47h8.47c3.18,0,4.15,2.09,5.29,4.51l.06.14Z"/><path class="cls-2" d="M50.94,0h-46A5,5,0,0,0,0,5.08V34.83a4.65,4.65,0,0,0,4.89,4.72H50.94a4.65,4.65,0,0,0,4.9-4.72V5.08A5,5,0,0,0,50.94,0Zm2.57,34.83a2.35,2.35,0,0,1-2.57,2.39h-46a2.35,2.35,0,0,1-2.56-2.39V5.08A2.66,2.66,0,0,1,4.89,2.33H50.94a2.66,2.66,0,0,1,2.57,2.75Z"/></g></g></svg>