<svg xmlns="http://www.w3.org/2000/svg" viewBox="0 0 32.35 59.56"><defs><style>.cls-1{fill:#3c9564;}.cls-2{fill:#57b782;}</style></defs><title>Mobile dashboard</title><g id="Lag_2" data-name="Lag 2"><g id="Icons"><path class="cls-1" d="M13.59,32.31a1.24,1.24,0,0,0-1.24,1.24v9.91a1.24,1.24,0,0,0,2.48,0V33.55A1.23,1.23,0,0,0,13.59,32.31Z"/><path class="cls-1" d="M8.63,37.26A1.24,1.24,0,0,0,7.4,38.5v5a1.24,1.24,0,1,0,2.47,0v-5A1.24,1.24,0,0,0,8.63,37.26Z"/><path class="cls-1" d="M23.5,29.83a1.24,1.24,0,0,0-1.24,1.24V43.46a1.24,1.24,0,0,0,2.48,0V31.07A1.23,1.23,0,0,0,23.5,29.83Z"/><path class="cls-1" d="M18.55,24.87a1.24,1.24,0,0,0-1.24,1.24V43.46a1.24,1.24,0,0,0,2.48,0V26.11A1.25,1.25,0,0,0,18.55,24.87Z"/><path class="cls-2" d="M32.33,50.64V21.55a1.24,1.24,0,0,0,0-.47V9a.9.9,0,0,0,0-.23.86.86,0,0,0,0-.23V6.27A6.27,6.27,0,0,0,26.06,0H6.39A6.28,6.28,0,0,0,.12,6.27V28.06a1.28,1.28,0,0,0-.1.78,1.33,1.33,0,0,0,.1.28V53.29a6.29,6.29,0,0,0,6.27,6.27H26.06a6.28,6.28,0,0,0,6.27-6.27v-2.2a.86.86,0,0,0,0-.23A.82.82,0,0,0,32.33,50.64ZM29.85,19.42,19,14.79a1.24,1.24,0,0,0-1.61.6L12.75,25l-10.15,2V10H29.85ZM2.6,29.58l11.23-2.25a1.25,1.25,0,0,0,.87-.68l4.44-9.12,10.71,4.59v27.5H2.6ZM6.39,2.48H26.06a3.79,3.79,0,0,1,3.79,3.79V7.5H2.6V6.27A3.79,3.79,0,0,1,6.39,2.48Zm19.67,54.6H6.39A3.79,3.79,0,0,1,2.6,53.29V52.1H29.85v1.19A3.79,3.79,0,0,1,26.06,57.08Z"/></g></g></svg>