<svg xmlns="http://www.w3.org/2000/svg" viewBox="0 0 64.39 60.21"><defs><style>.cls-1{fill:#57b782;}.cls-2{fill:#3c9564;}</style></defs><title>User search</title><g id="Lag_2" data-name="Lag 2"><g id="Icons"><path class="cls-1" d="M24.68,29.86A11.88,11.88,0,0,1,12.54,17.71V12.14A11.87,11.87,0,0,1,24.68,0,11.87,11.87,0,0,1,36.82,12.14v5.57A11.88,11.88,0,0,1,24.68,29.86ZM24.68,2A9.81,9.81,0,0,0,14.54,12.14v5.57A9.81,9.81,0,0,0,24.68,27.86,9.81,9.81,0,0,0,34.82,17.71V12.14A9.81,9.81,0,0,0,24.68,2Z"/><path class="cls-1" d="M2,56.71H0V45.57C0,35.93,17.42,32,24.68,32a39.83,39.83,0,0,1,8.58,1.08l-.45,2a38.13,38.13,0,0,0-8.13-1C17,34,2,38.11,2,45.57Z"/><path class="cls-2" d="M47,54.93A13.54,13.54,0,1,1,60.5,41.39,13.55,13.55,0,0,1,47,54.93Zm0-25.07A11.54,11.54,0,1,0,58.5,41.39,11.54,11.54,0,0,0,47,29.86Z"/><rect class="cls-2" x="58.5" y="49.41" width="2" height="11.82" transform="translate(-21.69 58.28) rotate(-45)"/></g></g></svg>