<svg xmlns="http://www.w3.org/2000/svg" viewBox="0 0 80.33 70.15"><defs><style>.cls-1{fill:#57b782;}</style></defs><title>Store02</title><g id="Lag_2" data-name="Lag 2"><g id="Description"><path class="cls-1" d="M63.74,37.76H41a1.09,1.09,0,0,0-1.08,1.08v18.6A1.08,1.08,0,0,0,41,58.52H63.74a1.08,1.08,0,0,0,1.08-1.08V38.84A1.08,1.08,0,0,0,63.74,37.76Zm-1.07,18.6H42.08V39.92H62.67Z"/><path class="cls-1" d="M80.32,69.07A1.08,1.08,0,0,0,79.24,68H71.63V32.15h7.62a1.09,1.09,0,0,0,1.08-1.08V10.28A1.08,1.08,0,0,0,79.25,9.2h-22V1.08A1.08,1.08,0,0,0,56.21,0H24.11A1.08,1.08,0,0,0,23,1.08V9.2h-22A1.08,1.08,0,0,0,0,10.28V31.07a1.08,1.08,0,0,0,1.08,1.08H8.67V68H1.08a1.08,1.08,0,0,0,0,2.16H79.24A1.08,1.08,0,0,0,80.32,69.07ZM71.64,11.36h6.53V30H71.64ZM57.29,14.81V11.36H60.8V30H54.27V15.89h1.94A1.08,1.08,0,0,0,57.29,14.81ZM25.19,2.16h30V13.73H25.19ZM52.11,15.89V30H45.58V15.89Zm-8.68,0V30H36.9V15.89Zm-8.69,0V30H28.21V15.89ZM19.53,11.36H23v3.45a1.08,1.08,0,0,0,1.08,1.08h1.95V30H19.53Zm-8.69,0h6.53V30H10.84ZM8.69,30H2.16V11.36H8.69ZM33.5,68H19.75V39.92H33.5Zm36,0H35.66V38.84a1.09,1.09,0,0,0-1.08-1.08H18.67a1.08,1.08,0,0,0-1.08,1.08V68H10.83V32.15H69.48Zm0-38H63V11.36h6.52Z"/></g></g></svg>