<?xml version="1.0" standalone="no"?>
<!DOCTYPE svg PUBLIC "-//W3C//DTD SVG 20010904//EN"
 "http://www.w3.org/TR/2001/REC-SVG-20010904/DTD/svg10.dtd">
<svg version="1.0" xmlns="http://www.w3.org/2000/svg"
 width="20" height="20" viewBox="0 0 512.000000 512.000000"
 preserveAspectRatio="xMidYMid meet">

<g transform="translate(0.000000,512.000000) scale(0.100000,-0.100000)"
fill="#7E7E7E" stroke="none">
<path d="M293 4329 c-137 -43 -253 -172 -283 -315 -7 -33 -10 -515 -8 -1484
l3 -1435 29 -63 c56 -122 148 -206 263 -242 64 -20 88 -20 2263 -20 2174 0
2199 0 2263 20 122 38 224 137 273 265 18 48 19 100 19 1510 l0 1460 -32 67
c-59 126 -142 201 -262 239 -61 19 -111 19 -2264 18 -2156 0 -2203 -1 -2264
-20z m4510 -173 c49 -24 92 -67 120 -120 l22 -41 3 -939 c2 -755 0 -937 -10
-933 -7 2 -269 159 -583 347 -418 252 -578 343 -601 344 -27 0 -115 -67 -578
-438 -301 -240 -553 -439 -559 -441 -7 -2 -167 117 -357 266 -334 261 -346
269 -385 267 -34 -3 -172 -90 -868 -546 -456 -298 -831 -542 -833 -542 -2 0
-4 582 -4 1293 1 1384 -1 1325 51 1401 25 37 76 75 123 93 23 9 563 11 2226
10 2133 -2 2196 -3 2233 -21z m-438 -1891 l585 -350 -2 -395 c-3 -384 -4 -396
-25 -436 -27 -50 -75 -97 -122 -121 -33 -16 -76 -18 -478 -21 l-443 -3 -560
437 c-309 240 -559 441 -558 445 6 18 992 800 1005 797 7 -2 276 -160 598
-353z m-1624 -655 l861 -670 -1623 2 c-1540 3 -1626 4 -1660 21 -71 35 -134
117 -141 182 -3 27 27 48 842 582 465 304 848 553 852 553 4 0 395 -302 869
-670z"/>
<path d="M2443 3826 c-228 -55 -393 -264 -393 -496 0 -138 51 -261 150 -360
105 -105 213 -150 360 -150 148 0 256 45 360 150 200 202 201 516 0 719 -122
124 -309 177 -477 137z m263 -191 c68 -34 131 -97 163 -165 22 -46 26 -69 26
-145 0 -84 -2 -95 -34 -153 -38 -70 -90 -120 -160 -154 -66 -33 -216 -33 -282
0 -70 34 -122 84 -160 154 -32 58 -34 69 -34 153 0 77 4 98 26 145 44 92 124
160 217 187 69 19 173 10 238 -22z"/>
</g>
</svg>
