<?xml version="1.0" encoding="utf-8"?>
<!-- Generator: Adobe Illustrator 19.0.0, SVG Export Plug-In . SVG Version: 6.00 Build 0)  -->
<svg version="1.1" id="Capa_1" xmlns="http://www.w3.org/2000/svg" xmlns:xlink="http://www.w3.org/1999/xlink" x="0px" y="0px"
	 viewBox="-66 158.1 477.9 477.9" style="enable-background:new -66 158.1 477.9 477.9;" xml:space="preserve">
<style type="text/css">
	.st0{fill:#80CFFA;}
</style>
<g>
	<g>
		<path class="st0" d="M172.9,158.1C41,158.1-66,265.1-66,397.1S41,636,172.9,636s238.9-107,238.9-238.9
			C411.7,265.2,304.8,158.3,172.9,158.1z M273.6,404.7c-1.7,3.3-4.3,6-7.7,7.7v0.1l-136.5,68.3c-8.4,4.2-18.7,0.8-22.9-7.6
			c-1.2-2.4-1.8-5-1.8-7.7V328.8c0-9.4,7.6-17.1,17.1-17.1c2.7,0,5.3,0.6,7.6,1.8l136.5,68.3C274.3,386,277.8,396.2,273.6,404.7z"/>
	</g>
</g>
</svg>
