<?xml version="1.0" encoding="utf-8"?>
<!-- Generator: Adobe Illustrator 19.0.0, SVG Export Plug-In . SVG Version: 6.00 Build 0)  -->
<svg version="1.1" id="Capa_1" xmlns="http://www.w3.org/2000/svg" xmlns:xlink="http://www.w3.org/1999/xlink" x="0px" y="0px"
	 viewBox="-49 157 512 480" style="enable-background:new -49 157 512 480;" xml:space="preserve">
<style type="text/css">
	.st0{fill:#ECEFF1;}
	.st1{fill:#1976D2;}
	.st2{fill:#1565C0;}
	.st3{fill:#FAFAFA;}
</style>
<path class="st0" d="M447,622H223c-8.8,0-16-7.1-16-16s0-408.2,0-417s7.2-16,16-16h224c8.8,0,16,7.2,16,16v417
	C463,614.9,455.8,622,447,622z"/>
<g>
	<path class="st1" d="M383,317H223c-8.8,0-16-7.1-16-16c0-8.9,7.2-16,16-16h160c8.8,0,16,7.2,16,16S391.8,317,383,317z"/>
	<path class="st1" d="M383,241H223c-8.8,0-16-7.1-16-16s7.2-16,16-16h160c8.8,0,16,7.2,16,16S391.8,241,383,241z"/>
	<path class="st1" d="M383,381H223c-8.8,0-16-7.1-16-16c0-8.9,7.2-16,16-16h160c8.8,0,16,7.2,16,16S391.8,381,383,381z"/>
	<path class="st1" d="M383,445H223c-8.8,0-16-7.1-16-16s7.2-16,16-16h160c8.8,0,16,7.2,16,16S391.8,445,383,445z"/>
	<path class="st1" d="M383,509H223c-8.8,0-16-7.1-16-16s7.2-16,16-16h160c8.8,0,16,7.2,16,16S391.8,509,383,509z"/>
	<path class="st1" d="M383,587H223c-8.8,0-16-7.1-16-16s7.2-16,16-16h160c8.8,0,16,7.2,16,16C399,579.8,391.8,587,383,587z"/>
</g>
<path class="st2" d="M233.2,160.7c-3.6-3.1-8.5-4.4-13.2-3.4l-256,48c-7.6,1.4-13.1,8-13.1,15.7v352c0,7.7,5.5,14.3,13.1,15.7
	l256,48c1,0.2,2,0.3,2.9,0.3c3.7,0,7.3-1.3,10.2-3.7c3.7-3,5.8-7.6,5.8-12.3V173C239,168.2,236.9,163.8,233.2,160.7z"/>
<path class="st3" d="M158.9,478.8c-0.8,7.3-6.6,13.2-13.9,14.1c-0.7,0.1-1.3,0.1-2,0.1c-6.6,0-12.6-4.1-15-10.4l-33-88.1l-33,88.1
	c-2.6,6.8-9.3,11-16.7,10.3c-7.3-0.8-13.1-6.4-14.1-13.7l-16-112c-1.2-8.7,4.8-16.8,13.6-18.1c8.8-1.3,16.9,4.8,18.1,13.6l7.1,50
	l26-69.4c4.7-12.5,25.3-12.5,30,0l24.5,65.3l8.6-77.5c1-8.8,9.1-15.1,17.7-14.1c8.8,1,15.1,8.9,14.1,17.7L158.9,478.8z"/>
</svg>
