<?xml version="1.0" encoding="utf-8"?>
<!-- Generator: Adobe Illustrator 19.0.0, SVG Export Plug-In . SVG Version: 6.00 Build 0)  -->
<svg version="1.1" id="Layer_1" xmlns="http://www.w3.org/2000/svg" xmlns:xlink="http://www.w3.org/1999/xlink" x="0px" y="0px"
	 viewBox="-130.7 242.7 270.6 309.3" style="enable-background:new -130.7 242.7 270.6 309.3;" xml:space="preserve">
<style type="text/css">
	.st0{fill:#E2574C;}
	.st1{fill:#B53629;}
	.st2{fill:#FFFFFF;}
</style>
<g>
	<path class="st0" d="M-111.3,242.7H52.9l87,86.7v203.2c0,10.7-8.7,19.3-19.3,19.3h-231.9c-10.7,0-19.3-8.7-19.3-19.3V262.1
		C-130.7,251.4-122,242.7-111.3,242.7z"/>
	<path class="st1" d="M139.7,329.7H72.3c-10.7,0-19.3-8.7-19.3-19.3v-67.5L139.7,329.7z"/>
	<path class="st2" d="M96.4,381c4.7,0,7.1-4.1,7.1-8.1c0-4.1-2.4-8.1-7.1-8.1h-27c-5.3,0-8.2,4.4-8.2,9.2v66.3
		c0,5.9,3.4,9.2,7.9,9.2c4.5,0,7.9-3.3,7.9-9.2V422h16.3c5.1,0,7.6-4.1,7.6-8.3c0-4-2.5-8-7.6-8H77.1V381
		C77.1,381,96.4,381,96.4,381z M5.3,364.8h-19.7c-5.4,0-9.2,3.7-9.2,9.1v66.4c0,6.8,5.5,8.9,9.4,8.9H6.5c24.5,0,40.7-16.1,40.7-41
		C47.2,381.8,31.9,364.8,5.3,364.8z M6.3,432.8h-12v-51.7H5.1c16.4,0,23.5,11,23.5,26.2C28.6,421.6,21.6,432.8,6.3,432.8z
		 M-66,364.8h-19.5c-5.5,0-8.6,3.6-8.6,9.2v66.3c0,5.9,3.5,9.2,8.3,9.2c4.7,0,8.3-3.3,8.3-9.2v-19.3h12.3
		c15.1,0,27.6-10.7,27.6-27.9C-37.8,376.1-49.8,364.8-66,364.8z M-66.3,405.3h-11.3v-25h11.3c7,0,11.4,5.4,11.4,12.5
		C-55,399.9-59.4,405.3-66.3,405.3z"/>
</g>
</svg>
