<?xml version="1.0" standalone="no"?>
<!DOCTYPE svg PUBLIC "-//W3C//DTD SVG 20010904//EN"
 "http://www.w3.org/TR/2001/REC-SVG-20010904/DTD/svg10.dtd">
<svg version="1.0" xmlns="http://www.w3.org/2000/svg"
 width="20" height="20" viewBox="0 0 512.000000 512.000000"
 preserveAspectRatio="xMidYMid meet">

<g transform="translate(0.000000,512.000000) scale(0.100000,-0.100000)"
fill="#000000" stroke="none">
<path d="M777 4349 c-21 -11 -50 -39 -65 -63 -15 -24 -180 -350 -367 -725
l-340 -682 0 -1008 0 -1007 25 -37 c14 -21 43 -46 66 -57 40 -20 67 -20 2464
-20 2397 0 2424 0 2464 20 23 11 52 36 66 57 l25 37 0 1007 0 1008 -340 682
c-187 375 -352 701 -367 725 -16 26 -43 51 -67 64 -40 20 -46 20 -1783 20
-1726 -1 -1743 -1 -1781 -21z m3636 -836 l258 -518 -583 -5 c-528 -5 -586 -7
-615 -22 -46 -26 -70 -62 -94 -142 -102 -345 -320 -575 -624 -657 -114 -31
-335 -31 -450 0 -296 80 -500 289 -612 630 -35 109 -47 128 -98 165 -30 21
-38 21 -588 26 l-558 5 258 518 257 517 1596 0 1596 0 257 -517z m-3008 -938
c137 -314 326 -525 590 -657 166 -83 323 -118 535 -118 267 0 476 62 681 201
79 53 218 191 285 282 47 64 145 245 178 330 l15 37 540 0 541 0 0 -780 0
-780 -2210 0 -2210 0 0 780 0 780 512 -2 513 -3 30 -70z"/>
</g>
</svg>
