<svg width="20" height="10" viewBox="0 0 20 10" fill="#6d1331" xmlns="http://www.w3.org/2000/svg">
<path d="M0.229141 5.55301C0.229376 5.55324 0.22957 5.55352 0.229843 5.55375L4.31203 9.61625C4.61785 9.92059 5.1125 9.91946 5.41691 9.6136C5.72129 9.30778 5.72012 8.81313 5.4143 8.50875L2.67352 5.78125L19.2188 5.78125C19.6502 5.78125 20 5.43149 20 5C20 4.56852 19.6502 4.21875 19.2188 4.21875L2.67355 4.21875L5.41426 1.49125C5.72008 1.18688 5.72125 0.692228 5.41687 0.386408C5.11246 0.0805101 4.61777 0.0794554 4.31199 0.383752L0.229805 4.44625C0.22957 4.44649 0.229374 4.44676 0.229101 4.44699C-0.0768757 4.75238 -0.0758991 5.24863 0.229141 5.55301Z" fill="#6d1331"/>
</svg>
