<?xml version="1.0" standalone="no"?>
<!DOCTYPE svg PUBLIC "-//W3C//DTD SVG 20010904//EN"
 "http://www.w3.org/TR/2001/REC-SVG-20010904/DTD/svg10.dtd">
<svg version="1.0" xmlns="http://www.w3.org/2000/svg"
 width="20" height="20" viewBox="0 0 512.000000 512.000000"
 preserveAspectRatio="xMidYMid meet">

<g transform="translate(0.000000,512.000000) scale(0.100000,-0.100000)"
fill="#000000" stroke="none">
<path d="M2496 3854 c-1331 -695 -2431 -1274 -2444 -1287 -30 -27 -52 -76 -52
-117 0 -40 34 -105 64 -125 13 -9 406 -146 873 -306 466 -159 867 -296 891
-305 l42 -16 0 -684 c0 -745 -2 -717 56 -763 71 -56 158 -47 220 22 22 24 206
271 409 549 204 279 376 507 384 507 7 1 318 -103 690 -230 372 -128 691 -236
708 -241 64 -18 157 28 182 89 12 30 601 3980 601 4031 0 36 -35 90 -79 119
-78 53 111 146 -2545 -1243z m1989 -1006 c-131 -882 -241 -1606 -244 -1610 -8
-9 -1922 644 -1918 654 5 15 2390 2568 2395 2564 2 -3 -103 -726 -233 -1608z
m-346 1465 c-50 -52 -2116 -2268 -2149 -2306 -3 -4 -251 77 -551 179 -299 102
-617 211 -707 241 -90 31 -161 57 -159 60 6 6 3621 1893 3627 1893 2 0 -25
-30 -61 -67z m-1725 -2799 c104 -35 191 -66 194 -69 4 -3 -237 -338 -385 -534
l-33 -44 0 363 c0 341 1 362 18 355 9 -4 102 -36 206 -71z"/>
</g>
</svg>
