<?xml version="1.0" encoding="UTF-8"?>
<svg width="40px" height="46px" viewBox="0 0 40 46" version="1.1" xmlns="http://www.w3.org/2000/svg" xmlns:xlink="http://www.w3.org/1999/xlink">
    <!-- Generator: Sketch 46.2 (44496) - http://www.bohemiancoding.com/sketch -->
    <title>logo</title>
    <desc>Created with Sketch.</desc>
    <defs></defs>
    <g id="Page-1" stroke="none" stroke-width="1" fill="none" fill-rule="evenodd">
        <g id="logo" fill-rule="nonzero">
            <path d="M9.474942,39.9480916 L20,46 L40,34.5 L40,11.5 L20,0 L9.47494197,6.05190837 C9.55934147,6.11289005 9.63962396,6.1765232 9.71578947,6.24280783 C10.667841,7.07135052 11.1438596,8.47985197 11.1438596,10.4683544 L11.1438596,18.712313 C11.1438596,19.4580014 11.2660806,19.9896417 11.5105263,20.3072497 C11.754972,20.6248577 12.1602311,20.7836594 12.7263158,20.7836594 L14,20.7836594 L14,25.2163406 L12.7263158,25.2163406 C12.1602311,25.2163406 11.754972,25.3751423 11.5105263,25.6927503 C11.2660806,26.0103583 11.1438596,26.5419986 11.1438596,27.287687 L11.1438596,35.5316456 C11.1438596,37.520148 10.667841,38.9286495 9.71578947,39.7571922 C9.63962396,39.8234768 9.55934148,39.88711 9.474942,39.9480916 Z M3.76537773,36.6650922 L1.28785871e-14,34.5 L0,11.5 L3.76537778,9.33490778 C4.70031385,9.40421184 5.37793174,9.60941411 5.79824561,9.95051784 C6.32573363,10.3785982 6.58947368,11.1035622 6.58947368,12.1254315 L6.58947368,18.3808976 C6.58947368,19.3199126 6.73742542,20.0793987 7.03333333,20.6593786 C7.32924125,21.2393585 8.78172162,22.8688142 9.01330172,22.9792865 C8.40950333,23.7617942 7.98752557,24.2451084 7.74736842,24.429229 C7.3871327,24.7054099 7.1040946,25.0989618 6.89824561,25.6098964 C6.69239663,26.1208311 6.58947368,26.8043686 6.58947368,27.6605293 L6.58947368,33.8745685 C6.58947368,34.8964378 6.32573363,35.6214018 5.79824561,36.0494822 C5.37793173,36.3905859 4.70031382,36.5957882 3.76537773,36.6650922 Z" id="Combined-Shape" fill="#FFFFFF"></path>
            <path d="M9.474942,39.9480916 L20,46 L31.6174602,39.3199604 L11.1438596,13.1149466 L11.1438596,18.712313 C11.1438596,19.4580014 11.2660806,19.9896417 11.5105263,20.3072497 C11.754972,20.6248577 12.1602311,20.7836594 12.7263158,20.7836594 L14,20.7836594 L14,25.2163406 L12.7263158,25.2163406 C12.1602311,25.2163406 11.754972,25.3751423 11.5105263,25.6927503 C11.2660806,26.0103583 11.1438596,26.5419986 11.1438596,27.287687 L11.1438596,35.5316456 C11.1438596,37.520148 10.667841,38.9286495 9.71578947,39.7571922 C9.63962396,39.8234768 9.55934148,39.88711 9.474942,39.9480916 Z M3.76537773,36.6650922 L1.28785871e-14,34.5 L0,11.5 L3.76537777,9.33490778 C4.70031384,9.40421184 5.37793174,9.60941411 5.79824561,9.95051784 C6.32573363,10.3785982 6.58947368,11.1035622 6.58947368,12.1254315 L6.58947368,18.3808976 C6.58947368,19.3199126 6.73742542,20.0793987 7.03333333,20.6593786 C7.32924125,21.2393585 8.78172162,22.8688142 9.01330172,22.9792865 C8.40950333,23.7617942 7.98752557,24.2451084 7.74736842,24.429229 C7.3871327,24.7054099 7.1040946,25.0989618 6.89824561,25.6098964 C6.69239663,26.1208311 6.58947368,26.8043686 6.58947368,27.6605293 L6.58947368,33.8745685 C6.58947368,34.8964378 6.32573363,35.6214018 5.79824561,36.0494822 C5.37793173,36.3905859 4.70031382,36.5957882 3.76537773,36.6650922 Z" id="Combined-Shape" fill-opacity="0.550000012" fill="#E6E6E6"></path>
            <path d="M11.1438596,15.1071111 L36.2092388,9.32031234 L20,0 L9.47494197,6.05190837 C9.55934147,6.11289005 9.63962396,6.1765232 9.71578947,6.24280783 C10.667841,7.07135052 11.1438596,8.47985197 11.1438596,10.4683544 L11.1438596,15.1071111 Z M6.58947368,16.1585739 L3.4603497e-15,17.6798738 L0,11.5 L3.76537778,9.33490778 C4.70031385,9.40421184 5.37793174,9.60941411 5.79824561,9.95051784 C6.32573363,10.3785982 6.58947368,11.1035622 6.58947368,12.1254315 L6.58947368,16.1585739 Z" id="Combined-Shape" fill-opacity="0.140000001" fill="#D8D8D8"></path>
        </g>
    </g>
</svg>