<?xml version="1.0" encoding="UTF-8"?>
<svg width="1440px" height="229px" viewBox="0 0 1440 229" version="1.1" xmlns="http://www.w3.org/2000/svg" xmlns:xlink="http://www.w3.org/1999/xlink">
    <!-- Generator: Sketch 53.2 (72643) - https://sketchapp.com -->
    <title>Middleground</title>
    <desc>Created with Sketch.</desc>
    <defs>
        <rect id="path-1" x="0" y="0" width="1440" height="229"></rect>
    </defs>
    <g id="Page-2" stroke="none" stroke-width="1" fill="none" fill-rule="evenodd">
        <g id="screen2-copy" transform="translate(0.000000, -1921.000000)">
            <g id="Middleground" transform="translate(0.000000, 1921.000000)">
                <mask id="mask-2" fill="white">
                    <use xlink:href="#path-1"></use>
                </mask>
                <g id="Rectangle"></g>
                <path d="M1197.43937,45.0678182 L1205.37835,20 L1210.23602,34.237232 L1215.37835,18 L1223.87008,42.8882272 C1227.30109,42.6055247 1230.73831,42.3224008 1234.18173,42.0388556 L1243.37835,13 L1252.76446,40.5095453 C1254.69104,40.3510819 1256.61954,40.1924883 1258.54996,40.0337646 L1268.37835,9 L1274.16076,25.9475442 L1282.37835,0 L1295.01575,37.0386836 C1342.97054,33.1041624 1392.07987,29.0912679 1442.34375,25 L1442.34375,349 L1.13686838e-13,349 L1.13686838e-13,25 C41.7708447,33.7279126 82.735452,41.592971 122.893822,48.595175 L132.309151,21 L142.091105,51.8871311 C147.381719,52.7790083 152.658159,53.6557153 157.920424,54.5172522 L167.309151,27 L174.716862,50.3903121 L180.309151,34 L186.906987,54.8330801 L192.309151,39 L199.283109,61.0207105 C263.14213,70.6408676 324.853063,77.9620898 384.415907,82.984377 L391.378349,61 L399.292167,84.1944288 C400.510003,84.2898399 401.726931,84.3842787 402.94295,84.4777446 L410.378349,61 L415.970638,77.3903121 L423.378349,54 L434.535487,86.7002025 C537.110931,93.2390637 633.047019,92.6723295 722.34375,85 C786.905695,79.4528707 854.861222,73.6753763 926.210333,67.6675169 L935.309151,41 L939.794499,55.162768 L945.309151,39 L953.657077,65.3590986 C1031.02281,58.8597432 1112.28358,52.0959831 1197.43937,45.0678183 Z M1278.41008,38.4017777 C1280.03971,38.2679433 1281.67068,38.1340174 1283.303,38 L1278.273,38 L1278.41008,38.4017776 Z" fill="#E4E5E6" mask="url(#mask-2)"></path>
            </g>
        </g>
    </g>
</svg>