<?xml version="1.0" encoding="UTF-8"?>
<svg width="1440px" height="325px" viewBox="0 0 1440 325" version="1.1" xmlns="http://www.w3.org/2000/svg" xmlns:xlink="http://www.w3.org/1999/xlink">
    <!-- Generator: Sketch 53.2 (72643) - https://sketchapp.com -->
    <title>Group 8</title>
    <desc>Created with Sketch.</desc>
    <defs>
        <rect id="path-1" x="0.65625" y="0" width="1440" height="327"></rect>
    </defs>
    <g id="Page-2" stroke="none" stroke-width="1" fill="none" fill-rule="evenodd">
        <g id="screen2-copy" transform="translate(0.000000, -1825.000000)">
            <g id="Group-8" transform="translate(-0.656250, 1824.000000)">
                <mask id="mask-2" fill="white">
                    <use xlink:href="#path-1"></use>
                </mask>
                <g id="Rectangle"></g>
                <path d="M1407.46042,182.719553 C1418.46983,181.816916 1429.5351,180.910398 1440.65625,180 L1440.65625,326 C1208.81163,424.666667 969.592882,474 723,474 C476.407118,474 235.625868,424.666667 0.65625,326 L0.65625,234 L-14,234 L0.65625,190.963056 L0.65625,180 C2.00454951,180.281724 3.35200901,180.562549 4.69862848,180.842474 L24.6992187,162.130859 L14.1888044,151.225757 L27.055961,113.442347 L44.6083984,97 L35.4334558,88.842482 L65.3482512,1 L94.5157779,93.2725371 L86.4770508,97.5112305 L98.0251952,104.374707 L104.944732,126.264915 L94.5157779,133 L110.898894,145.101123 L129.727662,204.66662 C352.368719,243.075438 550.126165,254.853232 723,240 C890.144737,225.63901 1079.51833,209.734014 1291.12079,192.285012 L1311.77475,126.888894 L1325.05257,117.072961 L1316.60035,111.609738 L1322.20834,93.853303 L1331.56762,88.2859337 L1325.05257,84.8476803 L1348.69161,10 L1372.93628,81.2542022 L1365.50038,87.8712446 L1379.72589,101.208599 L1390.15417,131.856945 L1381.63593,140.702714 L1398.55422,156.544368 L1407.46048,182.719548 Z" id="Forground" fill="#D9DBDC" mask="url(#mask-2)"></path>
            </g>
        </g>
    </g>
</svg>