<?xml version="1.0" encoding="UTF-8"?>
<svg width="77px" height="121px" viewBox="0 0 77 121" version="1.1" xmlns="http://www.w3.org/2000/svg" xmlns:xlink="http://www.w3.org/1999/xlink">
    <!-- Generator: Sketch 53.2 (72643) - https://sketchapp.com -->
    <title>rocket</title>
    <desc>Created with Sketch.</desc>
    <g id="Page-1" stroke="none" stroke-width="1" fill="none" fill-rule="evenodd">
        <g id="screen1" transform="translate(-682.000000, -500.000000)">
            <g id="Illustration" transform="translate(0.000000, 500.000000)">
                <g id="rocket" transform="translate(683.000000, 0.000000)">
                    <path d="M63.7247429,56.9500258 L64.460517,58.6899598 L64.5,58.8847008 L64.5,109.636364 C64.5,111.569361 62.9329966,113.136364 61,113.136364 L58,113.136364 C56.0670034,113.136364 54.5,111.569361 54.5,109.636364 C54.5,84.2605324 54.5,84.2605324 54.5,58.8847008 L54.539483,58.6899598 L55.2752571,56.9500258 L54.539579,55.2127065 L54.5000188,55.0134034 C54.5835072,45.3844393 56.1469574,40.5 59.4869091,40.5 C62.8261019,40.5 64.3985034,45.3839062 64.4999722,55.0124696 L64.460421,55.2127065 L63.7247429,56.9500258 Z" id="Rectangle-Copy-3" stroke="#071018" fill="#060F17" fill-rule="nonzero" transform="translate(59.500000, 76.818182) scale(-1, 1) translate(-59.500000, -76.818182) "></path>
                    <path d="M20.1247429,56.9500258 L20.860517,58.6899598 L20.9,58.8847008 L20.9,109.636364 C20.9,111.569361 19.3329966,113.136364 17.4,113.136364 L14.4,113.136364 C12.4670034,113.136364 10.9,111.569361 10.9,109.636364 C10.9,84.2605324 10.9,84.2605324 10.9,58.8847008 L10.939483,58.6899598 L11.6752571,56.9500258 L10.939579,55.2127065 L10.9000188,55.0134034 C10.9835072,45.3844393 12.5469574,40.5 15.8869091,40.5 C19.2261019,40.5 20.7985034,45.3839062 20.8999722,55.0124696 L20.860421,55.2127065 L20.1247429,56.9500258 Z" id="Rectangle-Copy-5" stroke="#071018" fill="#060F17" fill-rule="nonzero"></path>
                    <path d="M48.5720681,15.950149 L50.5,17.6598147 L50.5,81.136364 L25.5,81.136364 L25.5,80.636364 C25.5,41.510851 25.5,41.510851 25.5,17.8847008 L25.5,17.6598147 L27.4279319,15.950149 L25.4090401,14.1622781 L25.5331634,13.8386754 C29.1849155,4.31816977 33.2975503,-0.5 37.9650909,-0.5 C42.6315776,-0.5 46.7672247,4.31702183 50.466056,13.8366535 L50.5921628,14.1612129 L48.5720681,15.950149 Z" id="Rectangle-Copy-4" stroke="#071018" fill="#060F17" fill-rule="nonzero" transform="translate(38.000000, 40.318182) scale(-1, 1) translate(-38.000000, -40.318182) "></path>
                    <path d="M73,93 L47,93 L47,98.634 L47,100.75 L47,102 L44.355,102 L44.637,104.567 C44.638,104.574 44.638,105.424 44.183,105.929 C43.651,106.519 42.52,107 41,107 L39.156,107 L36.844,107 L35,107 C33.508,107 32.388,106.437 31.846,105.867 C31.389,105.387 31.366,104.813 31.367,104.665 L31.789,102 L29,102 L29,100.75 L29,98.634 L29,93 L3,93 L3,87.25 C3,84.443 8.948,79.85 13.291,76.495 C17.442,73.288 21.362,70.26 23.255,67.185 C24.965,64.406 26.167,58.61 27.986,49.385 C29.331,42.566 30.856,34.838 32.783,29.004 C32.9,28.649 33.015,28.326 33.131,28 L42.869,28 C42.984,28.326 43.099,28.648 43.217,29.004 C45.145,34.838 46.669,42.566 48.014,49.385 C49.834,58.611 51.035,64.406 52.746,67.185 C54.639,70.259 58.559,73.288 62.71,76.495 C67.052,79.85 73,84.443 73,87.25 L73,93 Z" id="Path" fill="#09151E"></path>
                    <path d="M49.5,101.172895 L49.5,104.5 L47.628123,104.5 C47.6183844,104.666513 47.5990744,104.846966 47.5676711,105.038459 C47.4737076,105.611436 47.2861483,106.177293 46.9820673,106.709164 C46.0479589,108.343024 44.2239206,109.340099 41.3635715,109.417177 L38.00142,119.556306 L34.6386241,109.433169 C31.7773855,109.355892 29.9531721,108.355466 29.0196546,106.716458 C28.7160029,106.183327 28.528759,105.616172 28.4350107,105.041869 C28.4035482,104.849129 28.3842625,104.667527 28.3746053,104.5 L26.501,104.5 L26.501,101.175503 L-0.499,96.800503 L-0.499,87.25 C-0.499,84.4294675 1.85910607,81.5177445 6.63471849,77.6104686 C7.70998755,76.7307128 8.77891036,75.8974019 10.5488735,74.5452144 C17.0448703,69.5825089 19.054545,67.8548433 20.4341835,65.6129308 C21.1396714,64.4666366 21.8574134,62.3058096 22.6578831,59.0291081 C23.4131864,55.9372944 26.3375435,41.6042381 26.1751227,42.3678904 C29.5403116,26.5458068 32.5307035,18.6403483 37.067137,17.6071374 C37.3781878,17.5343916 37.6392996,17.5 37.938,17.5 C38.2336129,17.5 38.4569758,17.5314629 38.7796347,17.6076216 C43.3171826,18.6469537 46.2328362,26.531826 49.4714277,42.3717765 C49.6033047,43.0167869 51.9175889,54.8646833 52.5558339,57.7106203 C53.4625662,61.7537426 54.2541846,64.3184271 55.0508271,65.6129479 C56.424125,67.8445571 58.366968,69.5514618 64.6840588,74.4992396 C66.4371236,75.8723044 67.4974175,76.7202046 68.5618296,77.6146581 C73.2030474,81.5147956 75.5,84.4321363 75.5,87.25 L75.5,96.7978946 L49.5,101.172895 Z M72.5,92.5 L72.5,87.25 C72.5,85.9649287 70.9186678,83.9714343 68.0017137,81.4059557 C67.2084739,80.7082966 66.3260106,79.9747043 65.3122992,79.164175 C64.4905853,78.5071605 63.832871,77.9944968 62.4043115,76.8906698 C56.2387345,72.1272379 53.9493203,70.0925879 52.3202287,67.4471427 C50.7784496,64.9429907 49.8271695,61.1598367 47.5234513,49.4817573 C46.8590569,46.1133518 46.5513728,44.5759652 46.1518666,42.6618511 C44.9609934,36.9561392 43.8968942,32.6547603 42.7423924,29.1613138 C42.6566328,28.9025815 42.5954205,28.7266357 42.4338801,28.2694272 C42.4178101,28.2239399 42.4159408,28.2186489 42.4028952,28.181681 C41.2853261,25.5681965 40.3268927,23.611899 39.5320993,22.3183298 C38.812839,21.1476949 38.2472353,20.5754395 38,20.5754395 C37.1515857,20.5754395 35.5654075,23.1570301 33.6020668,28.1676189 C33.5871588,28.2095147 33.5871588,28.2095147 33.5722848,28.251329 C33.5294056,28.3719587 33.5294056,28.3719587 33.4867439,28.4926311 C33.3977533,28.7448994 33.3268198,28.9513132 33.2577712,29.1608194 C31.6737523,33.9564426 30.5767742,38.8338484 28.4765544,49.4817283 C26.17622,61.1478001 25.2221642,64.9421539 23.6807864,67.4471182 C23.2822652,68.0944783 22.7906842,68.7515265 22.2048536,69.4270058 C20.414722,71.4910786 18.4874163,73.1121672 13.5966693,76.8906846 C12.1720718,77.9911968 11.5114213,78.5060553 10.6896224,79.1630291 C9.67528007,79.9739286 8.79221661,80.7079259 7.99847755,81.4059687 C5.08146066,83.9712987 3.5,85.9648941 3.5,87.25 L3.5,92.5 L29.5,92.5 L29.5,101.5 L32.3744043,101.5 L32.2828469,102.0782 L31.8669886,104.668378 C31.8651566,104.939516 31.9545974,105.255944 32.208341,105.522458 C32.7428447,106.084575 33.789736,106.5 35,106.5 L41,106.5 C42.286095,106.5 43.3352087,106.122572 43.8115359,105.594314 C44.0409477,105.339693 44.159672,104.761238 44.13999,104.621599 L43.797064,101.5 L46.5,101.5 L46.5,92.5 L72.5,92.5 Z" id="Shape" stroke="#071018" fill="#060F17" fill-rule="nonzero"></path>
                </g>
            </g>
        </g>
    </g>
</svg>