<?xml version="1.0" encoding="UTF-8"?>
<svg width="200px" height="229px" viewBox="0 0 200 229" version="1.1" xmlns="http://www.w3.org/2000/svg" xmlns:xlink="http://www.w3.org/1999/xlink">
    <!-- Generator: Sketch 53.2 (72643) - https://sketchapp.com -->
    <title>Cloud</title>
    <desc>Created with Sketch.</desc>
    <g id="Page-1" stroke="none" stroke-width="1" fill="none" fill-rule="evenodd">
        <g id="screen1" transform="translate(-621.000000, -628.000000)" fill="#060F16">
            <g id="Illustration" transform="translate(0.000000, 500.000000)">
                <g id="Clouds" transform="translate(554.000000, 128.000000)">
                    <path d="M121.474851,128.522987 C121.162714,126.728855 121,124.88343 121,123 C121,107.036529 141.526183,104.377816 150.539578,94.4611415 C158.891439,76.52794 164.378246,45.0408928 167,-8.38440428e-13 C169.387761,57.8871989 176.387761,91.0024333 188,99.3457031 C190.760219,101.328891 192.906566,104.295952 194.545606,107.678895 C206.593323,110.428763 215.583,121.210011 215.583,134.091 L215.571,134.352 C227.094,135.978 235.969,145.855 235.969,157.828 C235.969,159.261 235.821,160.654 235.576,162.017 C237.581,161.487 239.676,161.18 241.846,161.18 C255.439,161.18 266.456,172.2 266.456,185.791 C266.456,199.384 255.439,210.401 241.846,210.401 C236.059,210.401 230.749,208.391 226.546,205.05 C223.747,215.122 214.531,222.524 203.565,222.524 C193.614,222.524 185.091,216.433 181.506,207.776 C179.448,208.22 177.316,208.465 175.127,208.465 C172.664,208.465 170.283,208.138 167.989,207.583 C162.915,213.157 155.623,216.676 147.491,216.676 C145.826,216.676 144.206,216.505 142.621,216.223 C138.134,223.851 129.863,228.987 120.371,228.987 C106.11,228.987 94.55,217.425 94.55,203.164 C94.55,202.088 94.636,201.034 94.764,199.994 C93.967,200.072 93.162,200.117 92.346,200.117 C78.348,200.117 67,188.769 67,174.773 C67,160.773 78.348,149.426 92.346,149.426 C92.636,149.426 92.919,149.46 93.208,149.47 C96.227,137.421 107.095,128.488 120.078,128.488 C120.546533,128.488 121.012235,128.49976 121.474851,128.522987 Z" id="Cloud"></path>
                </g>
            </g>
        </g>
    </g>
</svg>